<?xml version="1.0" encoding="UTF-8"?>
<svg width="70px" height="70px" viewBox="0 0 70 70" version="1.1" xmlns="http://www.w3.org/2000/svg" xmlns:xlink="http://www.w3.org/1999/xlink">
    <!-- Generator: Sketch 49 (51002) - http://www.bohemiancoding.com/sketch -->
    <title>Community-2</title>
    <desc>Created with Sketch.</desc>
    <defs></defs>
    <g id="Community-2" stroke="none" stroke-width="1" fill="none" fill-rule="evenodd">
        <g id="Group-3" transform="translate(0.000000, 4.000000)" fill-rule="nonzero">
            <path d="M61.155103,26.1507274 C61.155103,40.5904555 49.4503936,52.2906525 35.0142207,52.2906525 C20.5757232,52.2906525 8.8712873,40.5904555 8.8712873,26.1507274 C8.8712873,11.71223 20.57586,0.00984508268 35.0142207,0.00984508268 C49.4505303,0.00984508268 61.155103,11.71223 61.155103,26.1507274 Z" id="Shape" fill="#7546D8"></path>
            <path d="M56.1316496,23.3720895 C50.9819876,23.7628846 49.333073,20.7471444 50.0101959,19.8244413 C51.184769,18.2288543 56.7680248,22.1076801 57.1374888,19.2327792 C57.2016186,18.728629 58.4617892,17.4173186 59.5725059,17.1695507 C57.0394482,10.2450392 51.6591105,4.69391664 44.8520563,1.9259443 C44.6235683,2.70767121 44.4184624,3.35266086 44.305244,3.40817619 C40.379654,5.31552422 35.7448079,6.20199188 32.9617944,9.86914844 C32.5708626,10.3839642 32.0539957,11.3557559 32.6114736,11.9709369 C33.3035008,12.7333838 35.1489069,11.9496058 36.0586199,12.0157867 C38.57691,12.197237 45.6871107,13.8525783 45.9177865,15.003906 C46.148599,16.155097 43.2202338,18.3337317 40.358323,16.7531858 C39.5146541,16.2896465 36.1484562,15.7108376 35.005743,15.5058685 C34.2069239,15.3606535 27.3037434,16.2277045 27.6134532,24.4315298 C27.7373372,27.7571167 29.8176579,29.8993794 33.1731902,29.9379393 C35.9562037,29.9699358 38.7734014,29.6431337 39.6853022,32.9398691 C40.4584147,35.7291724 40.1637459,38.6213022 40.8513975,41.397889 C41.1291109,42.5170835 41.7185852,44.0891517 43.1368241,44.2086601 C45.2833256,44.392435 46.7272711,42.9527284 48.0172504,41.4535411 C49.0467452,40.2573635 50.34739,39.2192542 51.1121615,37.8182443 C52.3274823,35.5969475 51.9942536,32.9527224 53.279994,30.7260928 C54.316189,28.9316898 57.7570454,23.2482056 56.1316496,23.3720895 Z" id="Shape" fill="#8F6CD7"></path>
            <path d="M17.2609386,31.2426862 C16.4429763,30.0529353 15.5052322,28.9017443 14.6637511,27.7292223 C13.8799731,26.6355977 10.8170585,21.6654718 9.39881965,20.9028881 C9.05287438,22.5987036 8.8712873,24.352359 8.8712873,26.1507274 C8.8712873,32.5135223 11.1459116,38.3433153 14.9243723,42.8756085 C15.0204986,42.9952537 17.2930718,41.3079159 17.4916144,41.1369943 C18.3310444,40.423636 19.0337372,39.5564483 19.3476859,38.4842915 C20.0803241,35.9938958 18.6385665,33.2471177 17.2609386,31.2426862 Z" id="Shape" fill="#8F6CD7"></path>
            <g id="Group" opacity="0.2" transform="translate(33.427522, 0.000000)" fill="#FFFFFF">
                <path d="M1.58669916,0.00984508268 C1.09758998,0.00984508268 0.610668601,0.0226983851 0.127986075,0.0504560487 C13.8871728,0.806476356 24.8120696,12.2035269 24.8120696,26.1507274 C24.8120696,40.0990218 13.8873095,51.4959356 0.127986075,52.2522294 C0.610668601,52.277936 1.09758998,52.2906525 1.58669916,52.2906525 C16.0228721,52.2906525 27.7275815,40.5904555 27.7275815,26.1507274 C27.7275815,11.71223 16.0230088,0.00984508268 1.58669916,0.00984508268 Z" id="Shape"></path>
            </g>
            <path d="M61.6385547,41.4660812 C61.1815039,41.4276922 60.6775586,41.4106152 60.1286328,41.4106152 C56.5408594,41.4106152 50.952207,42.17457 43.2981445,43.5231031 C42.3435742,40.8088232 36.2913086,39.6180812 36.2913086,39.6180812 C36.2913086,39.6180812 23.2301563,38.9094558 14.8927734,38.4528862 C14.3610742,38.4229674 13.8463281,38.4102621 13.3509961,38.4102621 C2.30576172,38.4102621 0.00998046875,45.2986968 0.00998046875,45.2986968 L0.00998046875,52.4346791 C0.01421875,56.5234491 12.6333594,58.5250051 12.6761523,58.5336119 C22.698457,60.5139925 35.018457,61.1754855 35.018457,61.1754855 C35.018457,61.1754855 68.7775977,47.9234935 69.6638086,47.1510685 C70.5481055,46.3741353 70.1617383,42.1488862 61.6385547,41.4660812 Z" id="Shape" fill="#4513AE"></path>
            <path d="M52.7566211,42.0251124 C50.1044141,42.3751218 47.0140234,42.8702169 43.479707,43.4933209 C43.0270312,43.6938727 42.5635547,43.8987962 42.0873633,44.0994846 C32.8233008,48.0471306 26.2711914,48.8793932 22.4080664,48.8793932 C21.6029297,48.8793932 20.9495508,49.5324161 20.9495508,50.3347598 C20.9495508,51.1414753 21.6030664,51.7901264 22.4080664,51.7901264 C28.4368164,51.7901264 35.458418,50.1000541 43.2769531,46.7625336 C48.0071484,44.7395289 51.5350391,42.7420714 52.7566211,42.0251124 Z" id="Shape" fill="#8F6CD7"></path>
        </g>
    </g>
</svg>