<?xml version="1.0" encoding="UTF-8"?>
<svg width="84px" height="84px" viewBox="0 0 84 84" version="1.1" xmlns="http://www.w3.org/2000/svg" xmlns:xlink="http://www.w3.org/1999/xlink">
    <!-- Generator: Sketch 49 (51002) - http://www.bohemiancoding.com/sketch -->
    <title>different-1</title>
    <desc>Created with Sketch.</desc>
    <defs></defs>
    <g id="Page-1" stroke="none" stroke-width="1" fill="none" fill-rule="evenodd">
        <g id="Home" transform="translate(-260.000000, -2975.000000)">
            <g id="Different" transform="translate(0.000000, 2698.000000)">
                <g id="different-1" transform="translate(260.000000, 277.000000)">
                    <rect id="Rectangle" fill="#4324BA" x="0" y="0" width="84" height="84"></rect>
                    <path d="M48.0329716,45.7714286 L52.2336897,49.848 C52.273,49.87 52.3103448,49.894 52.3457241,49.922 C54.0871724,51.282 56.1273793,52 58.2481724,52 C63.6435172,52 68.0344828,47.514 68.0344828,42 C68.0344828,36.486 63.6435172,32 58.2481724,32 C56.1273793,32 54.0871724,32.718 52.3457241,34.078 C52.2906897,34.122 52.2317241,34.158 52.1707931,34.188 L31.8827241,51.522 C31.8041034,51.59 31.7156552,51.644 31.6213103,51.682 C29.5850345,53.2 27.2146207,54 24.7498621,54 C18.2695517,54 13,48.618 13,42 C13,35.382 18.2695517,30 24.7498621,30 C27.2205172,30 29.5968276,30.804 31.635069,32.328 C31.7431724,32.372 31.8414483,32.436 31.927931,32.522 L37.171931,37.612 C37.3481392,37.7814871 37.4484922,38.0015031 37.4722926,38.2285714 L37.7,38.2285714 L37.7,31.0285714 C37.7,30.4608 38.1642909,30 38.7363636,30 C39.3084364,30 39.7727273,30.4608 39.7727273,31.0285714 L39.7727273,39.2571429 C39.7727273,39.8249143 39.3084364,40.2857143 38.7363636,40.2857143 L30.4454545,40.2857143 C29.8733818,40.2857143 29.4090909,39.8249143 29.4090909,39.2571429 C29.4090909,38.6893714 29.8733818,38.2285714 30.4454545,38.2285714 L34.9650628,38.2285714 L30.7643448,34.152 C30.7250345,34.13 30.6896552,34.106 30.6523103,34.078 C28.9108621,32.718 26.8706552,32 24.7498621,32 C19.3545172,32 14.9655172,36.486 14.9655172,42 C14.9655172,47.514 19.3545172,52 24.7498621,52 C26.8706552,52 28.9108621,51.282 30.6523103,49.922 C30.7073448,49.878 30.7663103,49.842 30.8272414,49.812 L51.1153103,32.478 C51.193931,32.41 51.2823793,32.356 51.3767241,32.318 C53.413,30.8 55.7834138,30 58.2481724,30 C64.7284828,30 70,35.382 70,42 C70,48.618 64.7284828,54 58.2481724,54 C55.7775172,54 53.4012069,53.196 51.3629655,51.672 C51.2548621,51.628 51.1565862,51.564 51.0701034,51.478 L46.1636364,46.7156206 L46.1636364,52.9714286 C46.1636364,53.5392 45.6993455,54 45.1272727,54 C44.5552,54 44.0909091,53.5392 44.0909091,52.9714286 L44.0909091,44.7428571 C44.0909091,44.1750857 44.5552,43.7142857 45.1272727,43.7142857 L53.4181818,43.7142857 C53.9902545,43.7142857 54.4545455,44.1750857 54.4545455,44.7428571 C54.4545455,45.3106286 53.9902545,45.7714286 53.4181818,45.7714286 L48.0329716,45.7714286 Z" id="Combined-Shape" stroke="#FFFFFF" fill="#FFFFFF"></path>
                    <g id="Page-1" transform="translate(13.000000, 30.000000)"></g>
                </g>
            </g>
        </g>
    </g>
</svg>