<?xml version="1.0" encoding="UTF-8"?>
<svg width="84px" height="84px" viewBox="0 0 84 84" version="1.1" xmlns="http://www.w3.org/2000/svg" xmlns:xlink="http://www.w3.org/1999/xlink">
    <!-- Generator: Sketch 49 (51002) - http://www.bohemiancoding.com/sketch -->
    <title>different-3</title>
    <desc>Created with Sketch.</desc>
    <defs></defs>
    <g id="Page-1" stroke="none" stroke-width="1" fill="none" fill-rule="evenodd">
        <g id="Home" transform="translate(-260.000000, -3271.000000)">
            <g id="Different" transform="translate(0.000000, 2698.000000)">
                <g id="different-3" transform="translate(260.000000, 573.000000)">
                    <rect id="Rectangle-Copy-2" fill="#4324BA" x="0" y="0" width="84" height="84"></rect>
                    <g id="Page-1" transform="translate(19.000000, 18.000000)" fill="#FFFFFF" stroke="#FFFFFF">
                        <path d="M11,3.66666667 C9.16166667,3.66666667 7.66666667,5.16166667 7.66666667,7 C7.66666667,8.83833333 9.16166667,10.3333333 11,10.3333333 C12.8383333,10.3333333 14.3333333,8.83833333 14.3333333,7 C14.3333333,5.16166667 12.8383333,3.66666667 11,3.66666667 M11,12 C8.24333333,12 6,9.75666667 6,7 C6,4.24333333 8.24333333,2 11,2 C13.7566667,2 16,4.24333333 16,7 C16,9.75666667 13.7566667,12 11,12" id="Fill-1"></path>
                        <path d="M36,3.66666667 C34.1616667,3.66666667 32.6666667,5.16166667 32.6666667,7 C32.6666667,8.83833333 34.1616667,10.3333333 36,10.3333333 C37.8383333,10.3333333 39.3333333,8.83833333 39.3333333,7 C39.3333333,5.16166667 37.8383333,3.66666667 36,3.66666667 M36,12 C33.2433333,12 31,9.75666667 31,7 C31,4.24333333 33.2433333,2 36,2 C38.7566667,2 41,4.24333333 41,7 C41,9.75666667 38.7566667,12 36,12" id="Fill-3"></path>
                        <path d="M19.3536684,46.4090909 L25.6463316,46.4090909 L26.7249856,31.5547727 C26.7543473,31.1395455 27.0912335,30.8181818 27.496115,30.8181818 L28.2286107,30.8181818 C28.5515888,30.8181818 28.8560226,30.6718182 29.0878251,30.4045455 C29.3644426,30.0863636 29.494252,29.6472727 29.4432554,29.2002273 L28.163706,17.7902273 C27.9597199,15.9654545 26.5843588,14.5909091 24.9663779,14.5909091 L20.0336221,14.5909091 C18.4171865,14.5909091 17.0402801,15.9654545 16.836294,17.7902273 L15.5567446,29.2018182 C15.5072934,29.6472727 15.6371027,30.0863636 15.9121749,30.4045455 C16.1439774,30.6718182 16.4484112,30.8181818 16.7713893,30.8181818 L17.5054303,30.8181818 C17.9087665,30.8181818 18.2456527,31.1395455 18.2765597,31.5547727 L19.3536684,46.4090909 Z M26.3633738,48 L18.6366262,48 C18.2317446,48 17.8964037,47.6786364 17.8654968,47.2634091 L16.7713893,32.4090909 C16.0018052,32.4090909 15.2863084,32.0734091 14.7577988,31.4640909 C14.1891102,30.8070455 13.9202194,29.9161364 14.0206671,29.0188636 L15.3002165,17.6072727 C15.5953783,14.9806818 17.6306036,13 20.0336221,13 L24.9663779,13 C27.3693964,13 29.4046217,14.9806818 29.6997835,17.6072727 L30.9793329,29.0172727 C31.0797806,29.9161364 30.8108898,30.8070455 30.2422012,31.4640909 C29.7136916,32.0734091 28.9981948,32.4090909 28.2286107,32.4090909 L28.2116119,32.4090909 L27.1345032,47.2634091 C27.1051416,47.6786364 26.7682554,48 26.3633738,48 Z" id="Fill-5"></path>
                        <path d="M23,1.66666667 C21.1616667,1.66666667 19.6666667,3.16166667 19.6666667,5 C19.6666667,6.83833333 21.1616667,8.33333333 23,8.33333333 C24.8383333,8.33333333 26.3333333,6.83833333 26.3333333,5 C26.3333333,3.16166667 24.8383333,1.66666667 23,1.66666667 M23,10 C20.2433333,10 18,7.75666667 18,5 C18,2.24333333 20.2433333,0 23,0 C25.7566667,0 28,2.24333333 28,5 C28,7.75666667 25.7566667,10 23,10" id="Fill-7"></path>
                        <path d="M4.66626224,46 C4.26182249,46 3.92427085,45.6815682 3.89160456,45.2671267 L2.76850648,31.8113811 C1.97051574,31.8113811 1.21141344,31.4593459 0.684086224,30.8464846 C0.164536696,30.240024 -0.076571617,29.4335434 0.0214272459,28.6334633 L1.296968,18.250025 C1.59252013,15.8273827 3.62249657,14 6.01802433,14 L10.9319673,14 C11.3099629,14 11.6895141,14.0544054 12.1312867,14.1712171 C12.5450597,14.2832283 12.7970568,14.720072 12.6881692,15.1489149 C12.5808371,15.5729573 12.1670641,15.8305831 11.7392913,15.7217722 C11.4297393,15.6385639 11.1746312,15.60016 10.9319673,15.60016 L6.01802433,15.60016 C4.40493194,15.60016 3.03917001,16.8258826 2.84006121,18.450045 L1.56452045,28.8334833 C1.52252094,29.1823182 1.62363088,29.5215522 1.85073935,29.7871787 C2.08562552,30.0608061 2.41228839,30.2112211 2.76850648,30.2112211 L3.49960911,30.2112211 C3.90404886,30.2112211 4.2416005,30.529653 4.27426679,30.9440944 L5.38180949,44.39984 L11.7315136,44.3966397 L12.4455053,33.9427943 C12.4766161,33.49955 12.890389,33.1731173 13.2761623,33.20032 C13.7054907,33.2323232 14.0290425,33.6147615 13.9979317,34.0548055 L13.2326073,45.2527253 C13.2030521,45.6719672 12.8655004,45.9967997 12.4563941,45.9967997 L4.66626224,46 Z" id="Fill-9"></path>
                        <path d="M41.5719749,46 L33.5766244,46 C33.1586711,46 32.8109085,45.6752 32.7805989,45.256 L32.002121,34.1104 C31.9702162,33.6704 32.3020265,33.288 32.7423131,33.256 C33.1650521,33.2176 33.5622672,33.5568 33.5941721,33.9984 L34.320007,44.4 L40.8190209,44.4 L41.6246178,30.7536 C41.6501417,30.3296 41.9994996,30 42.4206433,30 L43.1480735,30 C43.5628363,30 43.9472895,29.8448 44.1770042,29.584 C44.3572665,29.3792 44.4322429,29.128 44.3971476,28.8352 L43.1289306,18.4528 C42.9311206,16.8304 41.5799511,15.6064 39.9863048,15.6064 L35.1702707,15.6 C34.8177223,15.6 34.3838166,15.6768 34.0424349,15.8 C33.6308626,15.944 33.1714331,15.7344 33.0230756,15.3168 C32.8747182,14.9008 33.0900758,14.4432 33.5032433,14.2944 C34.0216968,14.1072 34.6294838,14 35.1718659,14 L39.9863048,14.0064 C42.3839528,14.0064 44.4146952,15.8336 44.7114101,18.2592 L45.9796271,28.6416 C46.0705559,29.3856 45.8551983,30.0976 45.3718401,30.6432 C44.84222,31.2464 44.0414087,31.5936 43.1735973,31.6 L42.3680004,45.2464 C42.3424765,45.6704 41.9947139,46 41.5719749,46" id="Fill-11"></path>
                    </g>
                </g>
            </g>
        </g>
    </g>
</svg>