<?xml version="1.0" encoding="UTF-8"?>
<svg width="84px" height="84px" viewBox="0 0 84 84" version="1.1" xmlns="http://www.w3.org/2000/svg" xmlns:xlink="http://www.w3.org/1999/xlink">
    <!-- Generator: Sketch 49 (51002) - http://www.bohemiancoding.com/sketch -->
    <title>different-7</title>
    <desc>Created with Sketch.</desc>
    <defs></defs>
    <g id="Page-1" stroke="none" stroke-width="1" fill="none" fill-rule="evenodd">
        <g id="Home" transform="translate(-259.000000, -4010.000000)">
            <g id="Different" transform="translate(0.000000, 2698.000000)">
                <g id="different-7" transform="translate(259.000000, 1312.000000)">
                    <rect id="Rectangle-Copy-6" fill="#4324BA" x="0" y="0" width="84" height="84"></rect>
                    <g id="Page-1" transform="translate(19.000000, 19.000000)" fill="#FFFFFF" stroke="#FFFFFF">
                        <path d="M13.0333333,1.53333333 C6.80033333,1.53333333 1.53333333,6.80033333 1.53333333,13.0333333 C1.53333333,15.3118667 2.26013333,17.4830667 3.69073333,19.4871333 L21.3148667,43.2430667 C21.6476,43.7076667 22.2962,44.4666667 23.0107333,44.4666667 C23.667,44.4666667 24.2757333,43.8073333 24.6698,43.2538 C24.6897333,43.2292667 24.7081333,43.2047333 24.7311333,43.1817333 L42.3138667,19.4825333 C43.7414,17.48 44.4666667,15.3103333 44.4666667,13.0333333 C44.4666667,6.80033333 39.1996667,1.53333333 32.9666667,1.53333333 C29.4691333,1.53333333 25.9823333,3.69533333 23.644,7.31553333 C23.3618667,7.75406667 22.6381333,7.75406667 22.356,7.31553333 C20.0176667,3.69533333 16.5308667,1.53333333 13.0333333,1.53333333 M23.0107333,46 C21.6798,46 20.6800667,44.9910667 20.0759333,44.1462 L2.4518,20.3902667 C0.821866667,18.1102 0,15.6384667 0,13.0333333 C0,5.96926667 5.96926667,0 13.0333333,0 C16.7378667,0 20.3964,2.05773333 23,5.55526667 C25.6036,2.05773333 29.2621333,0 32.9666667,0 C40.0307333,0 46,5.96926667 46,13.0333333 C46,15.6384667 45.1781333,18.1102 43.5574,20.3795333 L43.5482,20.3902667 L25.9148667,44.1569333 C25.9010667,44.1768667 25.8857333,44.1952667 25.8688667,44.2136667 C25.0040667,45.3989333 24.0411333,46 23.0107333,46" id="Fill-1"></path>
                        <path d="M15.6363636,8.96774194 C12.2727273,8.96774194 8.96969697,11.9305171 8.96969697,14.9483136 C8.96969697,16.0068748 9.85212121,17.6778465 10.670303,18.7818601 L23.5151515,36.0645161 L36.36,18.780664 C37.2060606,17.6395709 38.0606061,16.0116593 38.0606061,14.9483136 C38.0606061,11.9305171 34.7575758,8.96774194 31.3939394,8.96774194 C29.3866667,8.96774194 27.5212121,10.6829699 26.4448485,12.2881553 L24.0193939,15.8776945 C23.7939394,16.2114104 23.2363636,16.2114104 23.0109091,15.8776945 L20.5866667,12.2893514 C19.5090909,10.6829699 17.6436364,8.96774194 15.6363636,8.96774194 M24,38 C23.8043077,38 23.6196923,37.9088 23.504,37.7552 L9.96553846,19.7552 C9.05846154,18.548 8,16.6304 8,15.2 C8,11.4992 11.888,8 16,8 C19.1803077,8 21.4363077,10.9616 22.0516923,11.8688 L24,14.7188 L25.9495385,11.8676 C26.5636923,10.9616 28.8196923,8 32,8 C36.112,8 40,11.4992 40,15.2 C40,17.0432 38.3630769,19.3172 38.0344615,19.754 L24.496,37.7552 C24.3803077,37.9088 24.1956923,38 24,38" id="Fill-3"></path>
                    </g>
                </g>
            </g>
        </g>
    </g>
</svg>