<?xml version="1.0" encoding="UTF-8"?>
<svg width="84px" height="84px" viewBox="0 0 84 84" version="1.1" xmlns="http://www.w3.org/2000/svg" xmlns:xlink="http://www.w3.org/1999/xlink">
    <!-- Generator: Sketch 49 (51002) - http://www.bohemiancoding.com/sketch -->
    <title>different-6</title>
    <desc>Created with Sketch.</desc>
    <defs></defs>
    <g id="Page-1" stroke="none" stroke-width="1" fill="none" fill-rule="evenodd">
        <g id="Home" transform="translate(-260.000000, -3839.000000)">
            <g id="Different" transform="translate(0.000000, 2698.000000)">
                <g id="different-6" transform="translate(260.000000, 1141.000000)">
                    <rect id="Rectangle-Copy-5" fill="#4324BA" x="0" y="0" width="84" height="84"></rect>
                    <g id="Page-1" transform="translate(20.000000, 18.000000)" fill="#FFFFFF">
                        <path d="M39.479625,37.74688 C38.140875,39.46208 34.4910536,39.49888 29.6631964,37.74048 C30.3349821,35.31328 30.8219464,32.54848 31.098375,29.55488 C32.6862321,28.49888 34.180875,27.40128 35.5324821,26.27808 C36.4212321,27.38688 37.2119464,28.49088 37.8740893,29.57088 C38.230875,30.15168 38.5281964,30.71008 38.7998036,31.25408 C38.6776607,31.47968 38.5892679,31.72608 38.5892679,31.99968 C38.5892679,32.71488 39.0714107,33.30048 39.7223036,33.50528 C40.278375,35.32928 40.2156964,36.80448 39.479625,37.74688 M21.7142679,46.39968 C19.297125,46.39968 16.7739107,42.90528 15.213375,37.03168 C17.0262321,36.51808 18.9017679,35.85728 20.8110536,35.06048 C23.2040893,36.55488 25.5360536,37.75648 27.7394464,38.66208 C26.1724821,43.54688 23.8999821,46.39968 21.7142679,46.39968 M10.1090893,36.50368 C7.97480357,36.79328 6.16516071,36.76928 4.77016071,36.45568 C4.60783929,35.74368 3.997125,35.19968 3.232125,35.19968 C2.97176786,35.19968 2.73551786,35.27648 2.51694643,35.38688 C2.28551786,35.17568 2.08301786,34.94848 1.94319643,34.68928 C0.999803571,32.96128 2.06373214,30.11648 4.86016071,26.88128 C5.68944643,25.92288 6.65051786,24.96128 7.70801786,24.01088 C9.05158929,25.56128 10.5767679,27.11008 12.2481964,28.61568 C12.4442679,31.22528 12.805875,33.66688 13.3056964,35.88448 C12.2031964,36.15168 11.129625,36.36608 10.1090893,36.50368 M5.55605357,18.42848 C3.32373214,14.78368 2.73873214,11.80448 3.95051786,10.25248 C4.62391071,9.39168 5.87748214,8.95328 7.57141071,8.95328 C9.24926786,8.95328 11.365875,9.39648 13.7637321,10.26848 C13.0951607,12.69248 12.6049821,15.45408 12.3301607,18.44448 C10.7423036,19.50208 9.24766071,20.59808 7.89766071,21.72288 C7.00891071,20.61248 6.21819643,19.51008 5.55605357,18.42848 M17.6899821,4.79808 C17.6915893,4.79808 17.6931964,4.79968 17.6964107,4.79968 C18.5835536,4.79968 19.3035536,4.08128 19.3035536,3.19968 C19.3035536,3.06528 19.2585536,2.94368 19.2264107,2.81888 C20.039625,2.03648 20.883375,1.59968 21.7142679,1.59968 C24.1314107,1.59968 26.6562321,5.09568 28.2151607,10.96768 C26.4039107,11.48128 24.528375,12.14208 22.6223036,12.93728 C20.2340893,11.44608 17.8940893,10.22528 15.6955179,9.31968 C16.2756964,7.51328 16.9555179,6.00608 17.6899821,4.79808 M31.312125,21.70208 C32.4676607,22.80608 33.5460536,23.92288 34.5135536,25.04288 C33.4978393,25.88768 32.4065893,26.71968 31.2462321,27.52928 C31.312125,26.37728 31.357125,25.20608 31.357125,23.99968 C31.357125,23.22208 31.3410536,22.45728 31.312125,21.70208 M24.258375,13.99648 C25.732125,13.41408 27.1817679,12.92608 28.5880179,12.52448 C28.9480179,14.15648 29.2324821,15.94688 29.4317679,17.86848 C28.8467679,17.37888 28.2456964,16.89568 27.6317679,16.42048 C26.5067679,15.55008 25.3817679,14.75008 24.258375,13.99648 M14.0498036,17.34528 C14.3214107,14.95328 14.7312321,12.77728 15.2455179,10.85888 C17.0037321,11.59488 18.8776607,12.53408 20.8431964,13.71168 C19.6024821,14.27968 18.3537321,14.89248 17.1130179,15.56288 C16.0587321,16.13408 15.0430179,16.73248 14.0498036,17.34528 M12.1180179,26.29888 C10.9624821,25.19488 9.88408929,24.07648 8.91498214,22.95648 C9.93069643,22.11328 11.0235536,21.27968 12.1839107,20.47008 C12.1180179,21.62368 12.0714107,22.79488 12.0714107,23.99968 C12.0714107,24.77728 12.0890893,25.54208 12.1180179,26.29888 M19.1765893,34.00128 C17.699625,34.58368 16.2499821,35.07328 14.842125,35.47648 C14.4805179,33.84448 14.1976607,32.05408 13.998375,30.13248 C14.583375,30.62048 15.1844464,31.10528 15.798375,31.58048 L15.798375,31.57888 C16.9249821,32.45088 18.0531964,33.24608 19.1765893,34.00128 M29.3803393,30.65408 C29.107125,33.05248 28.6973036,35.23328 28.1798036,37.15328 C26.4231964,36.41728 24.5428393,35.46848 22.5773036,34.29088 C23.8244464,33.72288 25.0731964,33.11008 26.317125,32.43648 C27.3714107,31.86688 28.387125,31.26688 29.3803393,30.65408 M25.5505179,31.03008 C24.0140893,31.86048 22.4712321,32.60288 20.9428393,33.26688 C19.5815893,32.38368 18.1930179,31.40608 16.7835536,30.31648 L16.7835536,30.31488 C15.7469464,29.51328 14.7585536,28.68608 13.807125,27.84928 C13.7315893,26.60768 13.6785536,25.33248 13.6785536,23.99968 C13.6785536,22.38208 13.7412321,20.83168 13.8553393,19.35008 C15.1378393,18.52448 16.4798036,17.72608 17.879625,16.96928 C19.4080179,16.14368 20.9428393,15.40448 22.4648036,14.74208 C23.8356964,15.63008 25.2274821,16.58528 26.6465893,17.68448 C27.6815893,18.48608 28.6699821,19.31328 29.6214107,20.15008 C29.6985536,21.39168 29.7499821,22.66688 29.7499821,23.99968 C29.7499821,25.61728 29.6873036,27.16768 29.5748036,28.64928 C28.2923036,29.47648 26.9487321,30.27488 25.5505179,31.03008 M33.3210536,11.49568 C37.5719464,10.91968 40.5451607,11.58368 41.4869464,13.31168 C42.4303393,15.03808 41.3664107,17.88288 38.5699821,21.11808 C37.7406964,22.07808 36.7780179,23.03808 35.7205179,23.99008 C34.3769464,22.43968 32.853375,20.88928 31.1819464,19.38368 C30.9842679,16.77568 30.6226607,14.33408 30.1244464,12.11488 C31.2253393,11.84768 32.2989107,11.63488 33.3210536,11.49568 M41.8035536,31.99968 C41.8035536,31.11808 41.0835536,30.39968 40.1964107,30.39968 C40.1899821,30.39968 40.1835536,30.40448 40.1787321,30.40448 C39.9039107,29.86208 39.5953393,29.30848 39.2465893,28.73888 C38.5410536,27.58368 37.6924821,26.40608 36.7426607,25.22368 C37.870875,24.21088 38.9026607,23.18528 39.7865893,22.16128 C43.0924821,18.34048 44.1981964,14.92608 42.899625,12.54688 C41.6010536,10.16768 38.1167679,9.23488 33.1040893,9.91008 C32.0305179,10.05568 30.9039107,10.27968 29.748375,10.55968 C28.0351607,4.14848 25.1053393,-0.00032 21.7142679,-0.00032 C20.4349821,-0.00032 19.2264107,0.60768 18.1206964,1.68448 C17.9824821,1.64768 17.8474821,1.59968 17.6964107,1.59968 C16.810875,1.59968 16.0892679,2.31808 16.0892679,3.19968 C16.0892679,3.49088 16.1905179,3.75008 16.327125,3.98528 C15.5299821,5.30208 14.819625,6.90688 14.2185536,8.74688 C8.88444643,6.83008 4.55801786,6.86528 2.68248214,9.27168 C1.01266071,11.40768 1.544625,14.95648 4.18194643,19.26208 C4.88908929,20.41568 5.73766071,21.59328 6.68748214,22.77568 C5.55926786,23.78848 4.52748214,24.81408 3.64194643,25.83808 C0.337660714,29.65888 -0.768053571,33.07488 0.530517857,35.45248 C0.802125,35.95168 1.17658929,36.38208 1.634625,36.75328 C1.634625,36.76928 1.62498214,36.78368 1.62498214,36.79968 C1.62498214,37.68128 2.34658929,38.39968 3.232125,38.39968 C3.648375,38.39968 4.019625,38.23168 4.30408929,37.97408 C5.19766071,38.18688 6.20533929,38.30528 7.33998214,38.30528 C8.260875,38.30528 9.25891071,38.23328 10.3244464,38.08928 C11.3980179,37.94528 12.5262321,37.71968 13.6801607,37.44128 C15.3949821,43.85088 18.3248036,47.99968 21.7142679,47.99968 C24.7742679,47.99968 27.4565893,44.62208 29.2099821,39.25408 C31.7026607,40.14848 33.9751607,40.62048 35.879625,40.62048 C38.050875,40.62048 39.7480179,40.01088 40.7476607,38.72928 C41.8003393,37.38048 41.9723036,35.46528 41.2956964,33.15648 C41.605875,32.86368 41.8035536,32.45728 41.8035536,31.99968" id="Fill-1" stroke="#FFFFFF"></path>
                        <circle id="Oval-4" cx="17" cy="3" r="3"></circle>
                        <circle id="Oval-4-Copy" cx="3" cy="37" r="3"></circle>
                        <circle id="Oval-4-Copy-2" cx="40" cy="32" r="3"></circle>
                        <path d="M22,27.4 C20.6768,27.4 19.6,26.3232 19.6,25 C19.6,23.6768 20.6768,22.6 22,22.6 C23.3232,22.6 24.4,23.6768 24.4,25 C24.4,26.3232 23.3232,27.4 22,27.4 M22,21 C19.7936,21 18,22.7952 18,25 C18,27.2048 19.7936,29 22,29 C24.2064,29 26,27.2048 26,25 C26,22.7952 24.2064,21 22,21" id="Fill-4" stroke="#FFFFFF"></path>
                    </g>
                </g>
            </g>
        </g>
    </g>
</svg>