<?xml version="1.0" encoding="UTF-8"?>
<svg width="84px" height="84px" viewBox="0 0 84 84" version="1.1" xmlns="http://www.w3.org/2000/svg" xmlns:xlink="http://www.w3.org/1999/xlink">
    <!-- Generator: Sketch 49 (51002) - http://www.bohemiancoding.com/sketch -->
    <title>different-5</title>
    <desc>Created with Sketch.</desc>
    <defs></defs>
    <g id="Page-1" stroke="none" stroke-width="1" fill="none" fill-rule="evenodd">
        <g id="Home" transform="translate(-260.000000, -3669.000000)">
            <g id="Different" transform="translate(0.000000, 2698.000000)">
                <g id="different-5" transform="translate(260.000000, 971.000000)">
                    <rect id="Rectangle-Copy-4" fill="#4324BA" x="0" y="0" width="84" height="84"></rect>
                    <g id="Group-2" transform="translate(17.000000, 17.000000)" fill="#FFFFFF" stroke="#FFFFFF">
                        <g id="Group-4">
                            <path d="M25.862069,48.2327586 L25.862069,42.2413793 C25.862069,41.7655172 25.4758621,41.3793103 25,41.3793103 C24.5241379,41.3793103 24.137931,41.7655172 24.137931,42.2413793 L24.137931,48.2327586 C11.9931034,47.7844828 2.21551724,38.0068966 1.76724138,25.862069 L14.6551724,25.862069 C15.1310345,25.862069 15.5172414,25.4775862 15.5172414,25 C15.5172414,24.5241379 15.1310345,24.137931 14.6551724,24.137931 L1.76724138,24.137931 C2.21551724,11.9931034 11.9931034,2.21724138 24.137931,1.76896552 L24.137931,7.75862069 C24.137931,8.2362069 24.5241379,8.62068966 25,8.62068966 C25.4758621,8.62068966 25.862069,8.2362069 25.862069,7.75862069 L25.862069,1.76896552 C38.0068966,2.21724138 47.7844828,11.9931034 48.2327586,24.137931 L35.3448276,24.137931 C34.8689655,24.137931 34.4827586,24.5241379 34.4827586,25 C34.4827586,25.4775862 34.8689655,25.862069 35.3448276,25.862069 L48.2327586,25.862069 C47.7844828,38.0068966 38.0068966,47.7844828 25.862069,48.2327586 M25,0 C11.2155172,0 0,11.2155172 0,25 C0,38.7862069 11.2155172,50 25,50 C38.7844828,50 50,38.7862069 50,25 C50,11.2155172 38.7844828,0 25,0" id="Fill-1"></path>
                            <path d="M31.2222222,31.3235294 C31.2222222,33.7527059 28.8951111,35.7485882 25.8888889,36.0863529 L25.8888889,26.5607059 C28.8951111,26.8984706 31.2222222,28.8943529 31.2222222,31.3235294 M18.7777778,19.9504118 C18.7777778,17.5229412 21.1048889,15.5253529 24.1111111,15.1875882 L24.1111111,24.7132353 C21.1048889,24.3754706 18.7777778,22.3795882 18.7777778,19.9504118 M31.2222222,19.9504118 C31.2222222,20.4229412 31.6204444,20.8033529 32.1111111,20.8033529 C32.6017778,20.8033529 33,20.4229412 33,19.9504118 C33,16.5949412 29.8782222,13.8518824 25.8888889,13.4851176 L25.8888889,10.8529412 C25.8888889,10.3821176 25.4906667,10 25,10 C24.5093333,10 24.1111111,10.3821176 24.1111111,10.8529412 L24.1111111,13.4851176 C20.1217778,13.8518824 17,16.5949412 17,19.9504118 C17,23.3075882 20.1217778,26.0489412 24.1111111,26.4174118 L24.1111111,36.0863529 C21.1048889,35.7485882 18.7777778,33.7527059 18.7777778,31.3235294 C18.7777778,30.8527059 18.3795556,30.4705882 17.8888889,30.4705882 C17.3982222,30.4705882 17,30.8527059 17,31.3235294 C17,34.6807059 20.1217778,37.4220588 24.1111111,37.7905294 L24.1111111,38.1470588 C24.1111111,38.6178824 24.5093333,39 25,39 C25.4906667,39 25.8888889,38.6178824 25.8888889,38.1470588 L25.8888889,37.7905294 C29.8782222,37.4220588 33,34.6807059 33,31.3235294 C33,27.9663529 29.8782222,25.225 25.8888889,24.8565294 L25.8888889,15.1875882 C28.8951111,15.5253529 31.2222222,17.5229412 31.2222222,19.9504118" id="Fill-4"></path>
                        </g>
                    </g>
                </g>
            </g>
        </g>
    </g>
</svg>