<?xml version="1.0" encoding="UTF-8"?>
<svg width="260px" height="260px" viewBox="0 0 260 260" version="1.1" xmlns="http://www.w3.org/2000/svg" xmlns:xlink="http://www.w3.org/1999/xlink">
    <!-- Generator: Sketch 50.2 (55047) - http://www.bohemiancoding.com/sketch -->
    <title>do-2</title>
    <desc>Created with Sketch.</desc>
    <defs></defs>
    <g id="do-2" stroke="none" stroke-width="1" fill="none" fill-rule="evenodd">
        <rect id="mask" x="0" y="0" width="260" height="260"></rect>
        <g id="Group-2" transform="translate(32.000000, 163.000000)" stroke="#FF5C3C" stroke-width="5">
            <path d="M40.84375,0.4375 L40.84375,74" id="Stroke-23"></path>
            <path d="M27.46875,0.4375 L27.46875,74" id="Stroke-26"></path>
            <path d="M14.09375,0.4375 L14.09375,74" id="Stroke-29"></path>
            <path d="M0.71875,0.4375 L0.71875,74" id="Stroke-32"></path>
            <polygon id="Stroke-38" points="194.830125 70.65625 54.21875 70.65625 54.21875 36.8007812 54.21875 3.78125 194.830125 3.78125 194.830125 39.6563437"></polygon>
            <path d="M54.21875,23.7033125 L54.21875,3.78125 L74.1441562,3.78125 C74.1441562,14.7855312 65.2230312,23.7033125 54.21875,23.7033125 Z" id="Stroke-40"></path>
            <path d="M54.21875,50.59375 L54.21875,70.5158125 L74.1441562,70.5158125 C74.1441562,59.5115312 65.2230312,50.59375 54.21875,50.59375 Z" id="Stroke-42"></path>
            <path d="M194.519156,23.7033125 L194.519156,3.78125 L174.59375,3.78125 C174.59375,14.7855312 183.514875,23.7033125 194.519156,23.7033125 Z" id="Stroke-44"></path>
            <path d="M194.519156,50.59375 L194.519156,70.5158125 L174.59375,70.5158125 C174.59375,59.5115312 183.514875,50.59375 194.519156,50.59375 Z" id="Stroke-46"></path>
            <path d="M84.3125,23.84375 L97.6875,23.84375" id="Stroke-50"></path>
            <path d="M84.3125,37.21875 L97.6875,37.21875" id="Stroke-52"></path>
            <path d="M84.3125,50.59375 L97.6875,50.59375" id="Stroke-54"></path>
            <path d="M151.1875,23.84375 L164.5625,23.84375" id="Stroke-56"></path>
            <path d="M151.1875,37.21875 L164.5625,37.21875" id="Stroke-58"></path>
            <path d="M151.1875,50.59375 L164.5625,50.59375" id="Stroke-60"></path>
        </g>
        <g id="Group-3" transform="translate(23.000000, 23.000000)" stroke="#FF5C3C" stroke-width="5">
            <polyline id="Stroke-20" points="96.96875 126.922062 96.96875 107 117.03125 107 117.03125 126.922062"></polyline>
            <polyline id="Stroke-1" points="83.59375 127.0625 83.59375 33.4375 16.71875 33.4375 16.71875 127.0625"></polyline>
            <path d="M56.84375,53.5 L56.84375,120.375" id="Stroke-8" stroke-dasharray="5"></path>
            <path d="M70.21875,53.5 L70.21875,120.375" id="Stroke-9" stroke-dasharray="5"></path>
            <path d="M30.09375,53.5 L30.09375,120.375" id="Stroke-23" stroke-dasharray="5"></path>
            <path d="M43.46875,53.5 L43.46875,120.375" id="Stroke-24" stroke-dasharray="5"></path>
            <polyline id="Stroke-1" points="197.28125 128.40625 197.28125 34.78125 130.40625 34.78125 130.40625 128.40625"></polyline>
            <path d="M170.53125,56.84375 L170.53125,123.71875" id="Stroke-8" stroke-dasharray="5"></path>
            <path d="M183.90625,56.84375 L183.90625,123.71875" id="Stroke-9" stroke-dasharray="5"></path>
            <path d="M143.78125,56.84375 L143.78125,123.71875" id="Stroke-23" stroke-dasharray="5"></path>
            <path d="M157.15625,56.84375 L157.15625,123.71875" id="Stroke-24" stroke-dasharray="5"></path>
            <polyline id="Stroke-1" points="140.4375 33.4375 140.4375 0 73.5625 0 73.5625 33.4375"></polyline>
            <g id="Group" transform="translate(100.000000, 13.000000)" stroke-dasharray="5">
                <path d="M14,0 L14,84" id="Stroke-8"></path>
                <path d="M0,0 L0,84" id="Stroke-24"></path>
            </g>
            <path d="M214,127.0625 L0,127.0625" id="Stroke-27"></path>
        </g>
        <path d="M142.35,184.156 L157.392,184.156 C160.658,184.156 163.234,184.938 165.074,186.502 C166.776,187.974 167.65,189.952 167.65,192.436 C167.65,194.276 167.19,195.84 166.316,197.128 C165.442,198.324 164.2,199.198 162.544,199.842 C164.706,200.256 166.316,201.13 167.42,202.464 C168.478,203.752 169.03,205.546 169.03,207.754 C169.03,211.066 167.88,213.504 165.626,215.068 C163.694,216.356 160.934,217 157.438,217 L142.35,217 L142.35,184.156 Z M147.732,188.572 L147.732,197.956 L155.966,197.956 C158.266,197.956 159.876,197.542 160.842,196.806 C161.762,196.024 162.268,194.782 162.268,193.08 C162.268,191.516 161.762,190.366 160.842,189.676 C159.83,188.94 158.266,188.572 156.058,188.572 L147.732,188.572 Z M147.732,202.372 L147.732,212.584 L156.656,212.584 C158.68,212.584 160.29,212.262 161.44,211.618 C162.912,210.79 163.648,209.502 163.648,207.662 C163.648,205.776 163.096,204.442 162.038,203.614 C160.934,202.786 159.186,202.372 156.794,202.372 L147.732,202.372 Z" id="B" fill="#FF5C3C"></path>
        <path d="M153,187 L150,187 L150,177 L153,177 L153,187 Z M153,213 L153,220 L150,220 L150,213 L153,213 Z M159,187 L156,187 L156,177 L159,177 L159,187 Z M159,213 L159,220 L156,220 L156,213 L159,213 Z" id="Combined-Shape" fill="#FF5C3C"></path>
    </g>
</svg>