<?xml version="1.0" encoding="UTF-8"?>
<svg width="260px" height="266px" viewBox="0 0 260 266" version="1.1" xmlns="http://www.w3.org/2000/svg" xmlns:xlink="http://www.w3.org/1999/xlink">
    <!-- Generator: Sketch 49 (51002) - http://www.bohemiancoding.com/sketch -->
    <title>do-3</title>
    <desc>Created with Sketch.</desc>
    <defs></defs>
    <g id="do-3" stroke="none" stroke-width="1" fill="none" fill-rule="evenodd">
        <rect id="mask" x="0" y="0" width="260" height="266"></rect>
        <polygon id="Fill-1" fill="#FF5C3C" points="128.0693 158.5039 128.0003 110.5029 133.0003 110.4959 133.0693 158.4959"></polygon>
        <path d="M65.5151,115.4946 C69.8301,125.1156 77.4411,131.8736 86.6191,134.1596 C95.7651,136.4356 105.4651,134.0146 113.4851,127.5086 C109.1751,117.8886 101.5631,111.1276 92.3811,108.8386 C83.2311,106.5626 73.5321,108.9876 65.5151,115.4946 M93.4671,139.9996 C90.7721,140.0006 88.0741,139.6746 85.4111,139.0106 C74.1371,136.2036 64.9401,127.7076 60.1761,115.7006 L59.5321,114.0766 L60.8361,112.9126 C70.3501,104.4296 82.2861,101.1766 93.5891,103.9866 C104.8691,106.7986 114.0671,115.2976 118.8241,127.3046 L119.4681,128.9296 L118.1631,130.0916 C110.8891,136.5736 102.2001,139.9996 93.4671,139.9996" id="Fill-2" fill="#FF5C3C"></path>
        <path d="M146.5146,127.5693 C154.5566,134.0483 164.2676,136.4413 173.4176,134.1403 L173.4176,134.1413 C182.5976,131.8293 190.1966,125.0533 194.4856,115.4303 C186.4466,108.9503 176.7336,106.5573 167.5826,108.8583 C158.4056,111.1693 150.8066,117.9443 146.5146,127.5693 Z M174.0276,136.5653 L174.0376,136.5653 L174.0276,136.5653 Z M166.4896,140.0003 C157.7796,140.0003 149.1146,136.6013 141.8436,130.1663 L140.5326,129.0063 L141.1746,127.3773 C145.9086,115.3653 155.0896,106.8483 166.3626,104.0093 C177.6616,101.1663 189.6146,104.3843 199.1576,112.8333 L200.4676,113.9933 L199.8266,115.6213 C195.0956,127.6323 185.9146,136.1493 174.6386,138.9893 L174.6376,138.9903 C171.9456,139.6673 169.2146,140.0003 166.4896,140.0003 Z" id="Fill-4" fill="#FF5C3C"></path>
        <path d="M124.0645,90.2886 L125.2335,94.0796 C126.3255,97.6206 128.2415,99.9996 130.0005,99.9996 C131.7615,99.9996 133.6775,97.6216 134.7665,94.0806 L135.9335,90.2886 L138.8505,92.9786 C141.6065,95.5196 144.4825,96.6396 146.0125,95.7706 C147.5225,94.9126 147.9655,91.9266 147.1185,88.3396 L146.1945,84.4296 L150.1105,85.3286 C153.7875,86.1736 156.8465,85.7336 157.7225,84.2366 C158.5855,82.7626 157.4475,79.9636 154.8915,77.2716 L152.0875,74.3196 L155.9885,73.1546 C159.5275,72.0976 162.0005,70.1836 162.0005,68.5016 C162.0005,66.8166 159.5275,64.9026 155.9885,63.8456 L152.0855,62.6796 L154.8915,59.7276 C157.4485,57.0376 158.5855,54.2386 157.7225,52.7626 C156.8445,51.2676 153.7855,50.8276 150.1105,51.6716 L146.1945,52.5706 L147.1185,48.6606 C147.9655,45.0736 147.5225,42.0876 146.0145,41.2296 C144.4845,40.3586 141.6055,41.4816 138.8515,44.0226 L135.9335,46.7166 L134.7665,42.9206 C133.6775,39.3786 131.7625,36.9996 130.0005,36.9996 C128.2405,36.9996 126.3255,39.3796 125.2335,42.9226 L124.0645,46.7166 L121.1475,44.0226 C118.3975,41.4806 115.5215,40.3586 113.9905,41.2286 C112.4815,42.0866 112.0375,45.0726 112.8855,48.6596 L113.8105,52.5706 L109.8935,51.6716 C106.2175,50.8276 103.1585,51.2666 102.2815,52.7636 C101.4165,54.2396 102.5525,57.0386 105.1085,59.7276 L107.9145,62.6786 L104.0125,63.8456 C100.4725,64.9026 98.0005,66.8176 98.0005,68.5016 C98.0005,70.1836 100.4725,72.0966 104.0125,73.1546 L107.9125,74.3196 L105.1095,77.2716 C102.5545,79.9626 101.4175,82.7616 102.2815,84.2366 C103.1585,85.7346 106.2165,86.1726 109.8935,85.3286 L113.8105,84.4296 L112.8855,88.3396 C112.0375,91.9276 112.4815,94.9126 113.9885,95.7686 C115.5195,96.6426 118.3955,95.5206 121.1485,92.9796 L124.0645,90.2886 Z M130.0005,104.9996 C126.6865,104.9996 123.7455,102.7506 121.7655,98.8356 C118.0685,101.2546 114.3825,101.7506 111.5145,100.1146 C108.6385,98.4806 107.2225,95.0856 107.4835,90.7236 C103.0645,90.9926 99.6265,89.5976 97.9675,86.7636 C96.3025,83.9216 96.7915,80.2846 99.2195,76.6396 C95.2685,74.6856 93.0005,71.7806 93.0005,68.5016 C93.0005,65.2206 95.2685,62.3146 99.2185,60.3606 C96.7905,56.7176 96.3015,53.0796 97.9675,50.2356 C99.6275,47.4026 103.0735,46.0136 107.4835,46.2766 C107.2225,41.9136 108.6385,38.5186 111.5185,36.8826 C114.3875,35.2486 118.0725,35.7466 121.7655,38.1646 C123.7445,34.2486 126.6865,31.9996 130.0005,31.9996 C133.3175,31.9996 136.2595,34.2486 138.2375,38.1646 C141.9315,35.7506 145.6155,35.2516 148.4855,36.8836 C151.3645,38.5206 152.7805,41.9156 152.5195,46.2766 C156.9365,46.0166 160.3755,47.4026 162.0365,50.2346 C163.7015,53.0786 163.2115,56.7166 160.7825,60.3606 C164.7315,62.3136 167.0005,65.2206 167.0005,68.5016 C167.0005,71.7816 164.7315,74.6866 160.7815,76.6396 C163.2105,80.2846 163.7005,83.9226 162.0365,86.7636 C160.3775,89.5976 156.9435,90.9936 152.5195,90.7236 C152.7805,95.0846 151.3645,98.4786 148.4855,100.1166 C145.6205,101.7496 141.9345,101.2526 138.2375,98.8356 C136.2595,102.7506 133.3165,104.9996 130.0005,104.9996 Z" id="Fill-6" fill="#FF5C3C"></path>
        <path d="M130.5,63.9995 C127.467,63.9995 125,66.2435 125,69.0015 C125,71.7575 127.467,73.9995 130.5,73.9995 C133.533,73.9995 136,71.7575 136,69.0015 C136,66.2435 133.533,63.9995 130.5,63.9995 M130.5,78.9995 C124.71,78.9995 120,74.5145 120,69.0015 C120,63.4865 124.71,58.9995 130.5,58.9995 C136.29,58.9995 141,63.4865 141,69.0015 C141,74.5145 136.29,78.9995 130.5,78.9995" id="Fill-9" fill="#FF5C3C"></path>
        <path d="M78,221.874 L118,221.992 L118,196.041 C118,192.435 116.522,188.901 113.944,186.347 L76.866,149.603 C75.617,151.546 74.948,153.871 74.948,156.352 C74.95,160.02 76.416,163.574 78.971,166.104 L96.085,182.16 L75.316,182.424 C69.296,182.482 63.459,180.143 59.206,175.965 L40.662,160.095 L40.662,133.77 C40.662,128.659 38.271,123.508 33,122.276 L33,167.648 L78,210.149 L78,221.874 Z M123,227.008 L73,226.858 L73,212.304 L28,169.803 L28,116.999 L30.5,116.999 C39.427,116.999 45.662,123.896 45.662,133.77 L45.662,157.792 L62.658,172.347 C65.972,175.63 70.558,177.486 75.255,177.424 L83.616,177.318 L75.501,169.704 C71.956,166.195 69.95,161.346 69.948,156.353 C69.947,151.638 71.709,147.292 74.911,144.118 L76.666,142.378 L78.966,144.645 L117.464,182.796 C120.982,186.282 123,191.109 123,196.041 L123,227.008 Z" id="Fill-11" fill="#FF5C3C"></path>
        <path d="M183.0381,149.6992 L146.0561,186.3462 C143.4401,188.9362 142.0001,192.3792 142.0001,196.0412 L142.0001,221.9922 L182.0001,221.8742 L182.0001,210.1492 L227.0001,167.6482 L227.0001,122.2762 C221.7291,123.5082 219.3391,128.6592 219.3391,133.7702 L219.3391,160.0952 L200.7941,175.9652 C196.5411,180.1422 190.6781,182.4862 184.6891,182.4242 L163.9151,182.1602 L181.0791,166.0572 C183.5521,163.6072 184.9981,160.1072 184.9991,156.5032 C184.9991,154.0092 184.3141,151.6642 183.0381,149.6992 Z M137.0001,227.0082 L137.0001,196.0412 C137.0001,191.1062 139.0181,186.2782 142.5381,182.7952 L183.2261,142.4722 L184.9861,144.2172 C188.2191,147.4202 189.9991,151.7842 189.9991,156.5042 C189.9981,161.4332 188.0111,166.2272 184.5481,169.6572 L176.3841,177.3182 L184.7501,177.4242 C189.4541,177.5002 194.0291,175.6292 197.3421,172.3462 L197.4761,172.2232 L214.3391,157.7922 L214.3391,133.7702 C214.3391,123.8962 220.5731,116.9992 229.5001,116.9992 L232.0001,116.9992 L232.0001,169.8032 L187.0001,212.3032 L187.0001,226.8582 L137.0001,227.0082 Z" id="Fill-13" fill="#FF5C3C"></path>
        <polygon id="Fill-16" fill="#FF5C3C" points="123 234.5 118 234.5 118 228 65 228 65 234.5 60 234.5 60 223 123 223"></polygon>
        <polygon id="Fill-18" fill="#FF5C3C" points="200 234.5 195 234.5 195 228 142 228 142 234.5 137 234.5 137 223 200 223"></polygon>
    </g>
</svg>