<?xml version="1.0" encoding="UTF-8"?>
<svg width="260px" height="260px" viewBox="0 0 260 260" version="1.1" xmlns="http://www.w3.org/2000/svg" xmlns:xlink="http://www.w3.org/1999/xlink">
    <!-- Generator: Sketch 50.2 (55047) - http://www.bohemiancoding.com/sketch -->
    <title>do-3</title>
    <desc>Created with Sketch.</desc>
    <defs></defs>
    <g id="do-3" stroke="none" stroke-width="1" fill="none" fill-rule="evenodd">
        <rect id="mask" x="0" y="0" width="260" height="260"></rect>
        <path d="M206.535911,128.408248 C206.535911,171.554724 171.555403,206.535232 128.408927,206.535232 C85.259054,206.535232 50.2819429,171.554724 50.2819429,128.408248 C50.2819429,85.2583746 85.259054,50.2812635 128.408927,50.2812635 C171.555403,50.2812635 206.535911,85.2583746 206.535911,128.408248 Z" id="Stroke-1" stroke="#FF5C3C" stroke-width="5" stroke-linecap="square" stroke-linejoin="round"></path>
        <path d="M173.652263,128.408248 C173.652263,171.554724 153.393597,206.535232 128.409946,206.535232 C103.419502,206.535232 83.1642317,171.554724 83.1642317,128.408248 C83.1642317,85.2583746 103.419502,50.2812635 128.409946,50.2812635 C153.393597,50.2812635 173.652263,85.2583746 173.652263,128.408248 Z" id="Stroke-3" stroke="#FF5C3C" stroke-width="5" stroke-linecap="square" stroke-linejoin="round"></path>
        <path d="M128.408927,206.535232 L128.408927,50.2812635" id="Stroke-5" stroke="#FF5C3C" stroke-width="5" stroke-linecap="square" stroke-linejoin="round"></path>
        <path d="M233.716968,223.526152 C233.716968,229.154692 229.155032,233.716629 223.526492,233.716629 C217.897952,233.716629 213.336016,229.154692 213.336016,223.526152 C213.336016,217.897613 217.897952,213.335676 223.526492,213.335676 C229.155032,213.335676 233.716968,217.897613 233.716968,223.526152 Z" id="Stroke-7" stroke="#FF5C3C" stroke-width="5" stroke-linecap="square" stroke-linejoin="round"></path>
        <path d="M215.774257,215.775276 L193.576003,192.938419 C176.955337,209.72553 153.894289,220.123213 128.407908,220.123213" id="Stroke-9" stroke="#FF5C3C" stroke-width="5" stroke-linecap="square" stroke-linejoin="round"></path>
        <path d="M43.3819714,33.1911556 C43.3819714,38.8196952 38.8166381,43.3816317 33.1914952,43.3816317 C27.5629556,43.3816317 23.001019,38.8196952 23.001019,33.1911556 C23.001019,27.5626159 27.5629556,23.0006794 33.1914952,23.0006794 C38.8166381,23.0006794 43.3819714,27.5626159 43.3819714,33.1911556 Z" id="Stroke-11" stroke="#FF5C3C" stroke-width="5" stroke-linecap="square" stroke-linejoin="round"></path>
        <path d="M40.5891016,40.5884222 L63.245927,63.8668667 C79.8665937,47.0865492 102.924244,36.6956603 128.410625,36.6956603" id="Stroke-13" stroke="#FF5C3C" stroke-width="5" stroke-linecap="square" stroke-linejoin="round"></path>
        <path d="M223.526492,23.0006794 C229.155032,23.0006794 233.716968,27.5626159 233.716968,33.1911556 C233.716968,38.8196952 229.155032,43.3816317 223.526492,43.3816317 C217.897952,43.3816317 213.336016,38.8196952 213.336016,33.1911556 C213.336016,27.5626159 217.897952,23.0006794 223.526492,23.0006794 Z" id="Stroke-15" stroke="#FF5C3C" stroke-width="5" stroke-linecap="square" stroke-linejoin="round"></path>
        <path d="M215.774257,40.9416921 L192.940797,63.139946 C209.724511,79.7606127 220.122194,102.82166 220.122194,128.311438" id="Stroke-17" stroke="#FF5C3C" stroke-width="5" stroke-linecap="square" stroke-linejoin="round"></path>
        <path d="M33.1914952,213.335676 C38.8166381,213.335676 43.3819714,217.897613 43.3819714,223.526152 C43.3819714,229.154692 38.8166381,233.716629 33.1914952,233.716629 C27.5629556,233.716629 23.001019,229.154692 23.001019,223.526152 C23.001019,217.897613 27.5629556,213.335676 33.1914952,213.335676 Z" id="Stroke-19" stroke="#FF5C3C" stroke-width="5" stroke-linecap="square" stroke-linejoin="round"></path>
        <path d="M40.5891016,216.128886 L63.867546,193.47206 C47.0872286,176.851394 36.6963397,153.793743 36.6963397,128.307362" id="Stroke-21" stroke="#FF5C3C" stroke-width="5" stroke-linecap="square" stroke-linejoin="round"></path>
        <path d="M70.6628952,165.773327 L138.599403,165.773327" id="Stroke-31" stroke="#FF5C3C" stroke-width="5" stroke-linecap="square" stroke-linejoin="round"></path>
        <path d="M179.361308,165.773327 L196.342038,165.773327" id="Stroke-33" stroke="#FF5C3C" stroke-width="5" stroke-linecap="square" stroke-linejoin="round"></path>
        <path d="M186.145108,90.9969714 L118.2086,90.9969714" id="Stroke-35" stroke="#FF5C3C" stroke-width="5" stroke-linecap="square" stroke-linejoin="round"></path>
        <path d="M77.4466952,90.9969714 L60.4659651,90.9969714" id="Stroke-37" stroke="#FF5C3C" stroke-width="5" stroke-linecap="square" stroke-linejoin="round"></path>
    </g>
</svg>