<?xml version="1.0" encoding="UTF-8"?>
<svg width="70px" height="70px" viewBox="0 0 70 70" version="1.1" xmlns="http://www.w3.org/2000/svg" xmlns:xlink="http://www.w3.org/1999/xlink">
    <!-- Generator: Sketch 49 (51002) - http://www.bohemiancoding.com/sketch -->
    <title>life-cycle-1</title>
    <desc>Created with Sketch.</desc>
    <defs></defs>
    <g id="life-cycle-1" stroke="none" stroke-width="1" fill="none" fill-rule="evenodd">
        <path d="M64.5169189,6.94594595 L14.6258378,6.94594595 C12.0670541,6.94594595 9.98502703,9.00905405 9.98502703,11.5441892 L9.98502703,37.3051351 L11.8769189,37.3051351 L11.8769189,11.5441892 C11.8769189,10.0524324 13.1104324,8.83783784 14.6258378,8.83783784 L64.5169189,8.83783784 C66.0342162,8.83783784 67.2677297,10.0524324 67.2677297,11.5441892 L67.2677297,40.7606757 C67.2677297,42.2524324 66.0342162,43.4651351 64.5169189,43.4651351 L32.4682703,43.4651351 L32.4682703,45.357027 L64.5169189,45.357027 C67.0766486,45.357027 69.1596216,43.2958108 69.1596216,40.7606757 L69.1596216,11.5441892 C69.1596216,9.00905405 67.0766486,6.94594595 64.5169189,6.94594595" id="Fill-1" fill="#FEFEFE"></path>
        <path d="M18.7678514,25.9036486 C18.7319054,25.6747297 18.7016351,25.5082432 18.6751486,25.3672973 C18.6231216,25.0816216 18.6032568,24.9747297 18.6032568,24.62 L18.6032568,24.3504054 C18.6032568,20.9752703 21.4127162,18.2282432 24.8654189,18.2282432 C28.3181216,18.2282432 31.1266351,20.9752703 31.1266351,24.3504054 L31.1266351,24.62 C31.1266351,24.9577027 31.1067703,25.0513514 31.0462297,25.3322973 C31.0150135,25.4751351 30.9781216,25.6463514 30.9365,25.8818919 L30.8258243,26.9943243 L32.0233919,26.9943243 L31.7320405,28.8568919 L30.1655541,29.625 L28.5148784,32.932973 C28.3673108,33.3189189 27.3371757,34.1589189 26.8424459,34.5628378 L26.5378514,34.8116216 C26.2947432,35.0131081 25.9523108,35.1067568 25.6013649,35.1181081 L24.0197432,35.1181081 C23.6867703,35.1143243 23.3670405,34.997973 23.1192027,34.7898649 C22.9621757,34.6574324 22.7833919,34.5155405 22.5960946,34.3651351 C22.1477162,34.0075676 21.2150135,33.2640541 21.0617703,32.8695946 L19.5113649,29.6562162 L18.1293378,28.872973 L17.7112297,26.9943243 L18.9362297,26.9943243 L18.7678514,25.9036486 Z M15.7663649,26.8562162 L16.464473,30.1045946 L18.0640676,31.0108108 L19.3250135,33.6178378 C19.6097432,34.3632432 20.3712297,35.0102703 21.4155541,35.8445946 C21.5905541,35.9836486 21.7570405,36.1160811 21.9027162,36.2390541 C22.4854189,36.7271622 23.2289324,37.0005405 24.0083919,37.01 L25.5900135,37.01 L25.6316351,37.01 C26.4186622,37.01 27.1687973,36.747973 27.7448784,36.2683784 L28.0381216,36.0281081 C29.1231216,35.1436486 29.9782568,34.402973 30.2440676,33.6944595 L31.5712297,31.042027 L33.4489324,30.1206757 L33.9370405,26.9971622 L33.9483919,26.8789189 C33.9616351,26.4116216 33.789473,25.967973 33.4621757,25.6312162 C33.3221757,25.4874324 33.158527,25.3701351 32.9797432,25.2821622 C33.0052838,25.1005405 33.018527,24.9028378 33.018527,24.62 L33.018527,24.3504054 C33.018527,19.9318919 29.3615,16.3363514 24.8654189,16.3363514 C20.3693378,16.3363514 16.7113649,19.9318919 16.7113649,24.3504054 L16.7113649,24.62 C16.7113649,24.9085135 16.7236622,25.11 16.7454189,25.2868919 C16.1655541,25.5754054 15.7663649,26.1704054 15.7663649,26.8562162 Z" id="Fill-4" fill="#FEFEFE"></path>
        <polygon id="Fill-6" fill="#FEFEFE" points="39.4147297 23.4455135 58.1227027 23.4455135 58.1227027 21.5536216 39.4147297 21.5536216"></polygon>
        <polygon id="Fill-8" fill="#FEFEFE" points="39.4147297 29.1845676 58.1227027 29.1845676 58.1227027 27.2926757 39.4147297 27.2926757"></polygon>
        <polygon id="Fill-9" fill="#FEFEFE" points="39.4147297 34.4024054 50.7660811 34.4024054 50.7660811 32.5105135 39.4147297 32.5105135"></polygon>
        <path d="M66.006027,19.7937838 L66.006027,12.457027 C66.006027,11.4316216 65.149,10.5982432 64.0952162,10.5982432 L58.3334595,10.5982432 L58.3334595,12.4901351 L64.1141351,12.457027 L64.1141351,19.7937838 L66.006027,19.7937838 Z" id="Fill-10" fill="#FEFEFE"></path>
        <path d="M29.1303108,52.0067432 L22.3450405,52.0067432 C21.8219324,52.0067432 21.3990946,52.4295811 21.3990946,52.9526892 C21.3990946,53.4757973 21.8219324,53.8986351 22.3450405,53.8986351 L27.1863919,53.8986351 C27.5467973,53.8986351 27.8911216,54.0499865 28.1313919,54.3139054 C28.3669324,54.5749865 28.4785541,54.9117432 28.4445,55.2636351 C28.3839595,55.8907973 27.7899054,56.3826892 27.0993649,56.3826892 L24.8735541,56.3647162 C24.7572027,56.3524189 24.6389595,56.3457973 24.5207162,56.3457973 L22.3450405,56.3457973 C21.8238243,56.3457973 21.4009865,56.7667432 21.3990946,57.2879595 C21.3972027,57.8091757 21.8162568,58.2339054 22.337473,58.2376892 L24.7458514,58.2556622 C25.0173378,58.3020135 25.2632838,58.4316081 25.4534189,58.6312027 C25.6832838,58.8733649 25.8005811,59.1902568 25.7845,59.5241757 C25.7542297,60.130527 25.1223378,60.6829595 24.4582838,60.6829595 L19.7928784,60.6829595 C15.9580135,60.6829595 12.0701757,59.9394459 8.24571622,58.4779595 C7.98936486,58.3757973 7.76328378,58.3928243 7.63368919,58.4117432 L6.09558108,58.4117432 L6.09558108,46.2799865 L7.34612162,46.2799865 C8.01112162,46.2799865 8.83504054,45.9413378 9.25031081,45.5251216 L12.7105811,42.5993108 C14.1663919,41.1576892 15.6269324,40.6185 18.1450405,40.6762027 L21.0926081,40.6629595 C21.4643649,40.6487703 21.7519324,40.7925541 21.9903108,41.0290405 C22.2230135,41.2607973 22.3507162,41.5672838 22.3507162,41.8926892 C22.3507162,42.5699865 21.7897703,43.1224189 21.0992297,43.1224189 L17.3958514,43.1224189 C16.8736892,43.1224189 16.4499054,43.5462027 16.4499054,44.0683649 C16.4499054,44.591473 16.8736892,45.0143108 17.3958514,45.0143108 L27.5013919,45.0143108 C27.8769324,45.0143108 28.2307162,45.1770135 28.4719324,45.4598514 C28.7093649,45.7379595 28.8077432,46.0945811 28.7490946,46.4635 C28.6516622,47.075527 28.0699054,47.5390405 27.3907162,47.5513378 L22.3450405,47.5503919 C21.8219324,47.5503919 21.3990946,47.9732297 21.3990946,48.4963378 C21.3990946,49.0185 21.8219324,49.4422838 22.3450405,49.4422838 L27.3623378,49.4432297 L27.4030135,49.4432297 L29.2154459,49.4432297 C29.5559865,49.4432297 29.8776081,49.5898514 30.1216622,49.8566081 C30.3780135,50.1356622 30.5076081,50.5074189 30.4754459,50.8753919 C30.4243649,51.4675541 29.7830135,52.0067432 29.1303108,52.0067432 M30.2796351,47.7433649 C30.4451757,47.4425541 30.561527,47.111473 30.6173378,46.761473 C30.7630135,45.850527 30.5057162,44.9291757 29.9116622,44.2320135 C29.3100405,43.5272838 28.4322027,43.1224189 27.5013919,43.1224189 L23.9881486,43.1224189 C24.1527432,42.7449865 24.2426081,42.3297162 24.2426081,41.8926892 C24.2426081,41.0602568 23.9172027,40.2779595 23.3250405,39.6886351 C22.7300405,39.096473 21.9401757,38.7710676 21.0992297,38.7710676 L21.0840946,38.7710676 L18.1554459,38.7843108 C15.1662568,38.7559324 13.2005811,39.4530946 11.4345,41.2040405 L7.97422973,44.1317432 C7.85504054,44.2490405 7.5145,44.3880946 7.34612162,44.3880946 L6.0917973,44.3880946 C6.07855405,43.8763378 5.66422973,43.4657973 5.14963514,43.4657973 L-9.45945946e-05,43.4657973 L-9.45945946e-05,45.3576892 L4.20368919,45.3576892 L4.20368919,46.2799865 L4.20368919,58.4117432 L4.20368919,60.3036351 L4.20368919,61.2041757 L-9.45945946e-05,61.2041757 L-9.45945946e-05,63.0960676 L5.14963514,63.0960676 C5.67274324,63.0960676 6.09558108,62.6722838 6.09558108,62.1501216 L6.09558108,60.3036351 L7.71314865,60.3036351 L7.7245,60.3036351 C11.7220676,61.810527 15.7811216,62.5748514 19.7928784,62.5748514 L24.4582838,62.5748514 C26.1212568,62.5748514 27.5940946,61.2202568 27.6735541,59.6187703 C27.6972027,59.1429595 27.6149054,58.6803919 27.4351757,58.2566081 C28.9458514,58.0986351 30.1859865,56.9209324 30.3278784,55.4462027 C30.3836892,54.8653919 30.2758514,54.285527 30.0242297,53.7709324 C31.2719324,53.4086351 32.2500405,52.3207973 32.3607162,51.0380946 C32.4373378,50.1432297 32.1299054,49.246473 31.5159865,48.5776892 C31.1707162,48.2012027 30.7440946,47.916473 30.2796351,47.7433649" id="Fill-11" fill="#FEFEFE"></path>
    </g>
</svg>