<?xml version="1.0" encoding="UTF-8"?>
<svg width="1160px" height="85px" viewBox="0 0 1160 85" version="1.1" xmlns="http://www.w3.org/2000/svg" xmlns:xlink="http://www.w3.org/1999/xlink">
    <!-- Generator: Sketch 50.2 (55047) - http://www.bohemiancoding.com/sketch -->
    <title>Line</title>
    <desc>Created with Sketch.</desc>
    <defs>
        <circle id="path-1" cx="16.5" cy="68.5" r="16.5"></circle>
        <circle id="path-2" cx="16.5" cy="68.5" r="16.5"></circle>
        <circle id="path-3" cx="16.5" cy="68.5" r="16.5"></circle>
        <circle id="path-4" cx="16.5" cy="68.5" r="16.5"></circle>
    </defs>
    <g id="Page-1" stroke="none" stroke-width="1" fill="none" fill-rule="evenodd">
        <g id="Home-Copy-2" transform="translate(-220.000000, -9676.000000)">
            <g id="Group-19" transform="translate(0.000000, 9263.000000)">
                <g id="Line" transform="translate(220.000000, 413.000000)">
                    <rect id="Rectangle" fill="#4324BA" x="0" y="13" width="1160" height="5"></rect>
                    <g id="Group-3" transform="translate(335.500000, 42.500000) scale(1, -1) translate(-335.500000, -42.500000) translate(319.000000, 0.000000)">
                        <rect id="Rectangle-16" fill="#0A283E" x="15" y="8" width="3" height="46"></rect>
                        <g id="Oval" stroke-linejoin="square">
                            <circle stroke="#FFFFFF" stroke-width="6" fill="#4324BA" fill-rule="evenodd" cx="16.5" cy="68.5" r="13.5"></circle>
                            <circle stroke="#0A283E" stroke-width="3" cx="16.5" cy="68.5" r="15"></circle>
                        </g>
                        <circle id="Oval-3" fill="#0A283E" cx="16.5" cy="7.5" r="7.5"></circle>
                    </g>
                    <g id="Group-3" transform="translate(635.500000, 42.500000) scale(1, -1) translate(-635.500000, -42.500000) translate(619.000000, 0.000000)">
                        <rect id="Rectangle-16" fill="#0A283E" x="15" y="8" width="3" height="46"></rect>
                        <g id="Oval" stroke-linejoin="square">
                            <circle stroke="#FFFFFF" stroke-width="6" fill="#4324BA" fill-rule="evenodd" cx="16.5" cy="68.5" r="13.5"></circle>
                            <circle stroke="#0A283E" stroke-width="3" cx="16.5" cy="68.5" r="15"></circle>
                        </g>
                        <circle id="Oval-3" fill="#0A283E" cx="16.5" cy="7.5" r="7.5"></circle>
                    </g>
                    <g id="Group-3" transform="translate(35.500000, 42.500000) scale(1, -1) translate(-35.500000, -42.500000) translate(19.000000, 0.000000)">
                        <rect id="Rectangle-16" fill="#0A283E" x="15" y="8" width="3" height="46"></rect>
                        <g id="Oval" stroke-linejoin="square">
                            <circle stroke="#FFFFFF" stroke-width="6" fill="#4324BA" fill-rule="evenodd" cx="16.5" cy="68.5" r="13.5"></circle>
                            <circle stroke="#0A283E" stroke-width="3" cx="16.5" cy="68.5" r="15"></circle>
                        </g>
                        <circle id="Oval-3" fill="#0A283E" cx="16.5" cy="7.5" r="7.5"></circle>
                    </g>
                    <g id="Group-3" transform="translate(935.500000, 42.500000) scale(1, -1) translate(-935.500000, -42.500000) translate(919.000000, 0.000000)">
                        <rect id="Rectangle-16" fill="#0A283E" x="15" y="8" width="3" height="46"></rect>
                        <g id="Oval" stroke-linejoin="square">
                            <circle stroke="#FFFFFF" stroke-width="6" fill="#4324BA" fill-rule="evenodd" cx="16.5" cy="68.5" r="13.5"></circle>
                            <circle stroke="#0A283E" stroke-width="3" cx="16.5" cy="68.5" r="15"></circle>
                        </g>
                        <circle id="Oval-3" fill="#0A283E" cx="16.5" cy="7.5" r="7.5"></circle>
                    </g>
                </g>
            </g>
        </g>
    </g>
</svg>