<?xml version="1.0" encoding="UTF-8"?>
<svg width="30px" height="30px" viewBox="0 0 30 30" version="1.1" xmlns="http://www.w3.org/2000/svg" xmlns:xlink="http://www.w3.org/1999/xlink">
    <!-- Generator: Sketch 49.3 (51167) - http://www.bohemiancoding.com/sketch -->
    <title>reddit</title>
    <desc>Created with Sketch.</desc>
    <defs></defs>
    <g id="Page-1" stroke="none" stroke-width="1" fill="none" fill-rule="evenodd">
        <g id="phome-home" transform="translate(-246.000000, -13200.000000)" fill="#FBFBFB" fill-rule="nonzero">
            <g id="Group-2" transform="translate(0.000000, 12943.000000)">
                <g id="Group-4" transform="translate(100.000000, 257.000000)">
                    <path d="M151,0 L171,0 C173.761424,-5.07265313e-16 176,2.23857625 176,5 L176,25 C176,27.7614237 173.761424,30 171,30 L151,30 C148.238576,30 146,27.7614237 146,25 L146,5 C146,2.23857625 148.238576,-1.26909153e-15 151,-1.77635684e-15 Z M170.005681,14.5388709 C170.003393,14.0036788 169.788591,13.4913164 169.408532,13.1145 C169.028472,12.7376836 168.514288,12.5272809 167.979096,12.5295791 C167.405167,12.5295791 166.89825,12.7662843 166.526439,13.1370143 C165.158089,12.1912745 163.317409,11.5838393 161.274611,11.5157461 L162.338163,6.73624732 L165.715805,7.49608169 C165.715805,8.32400933 166.391334,8.99953776 167.219261,8.99953779 C168.063402,8.99953779 168.73893,8.30671582 168.73893,7.47986902 C168.73893,6.65302222 168.063402,5.96020025 167.219261,5.96020025 C166.646703,5.96752277 166.12583,6.29296378 165.868205,6.80434059 L162.136045,5.97641295 C161.95014,5.92561322 161.764234,6.06071889 161.713434,6.24662432 L160.548283,11.5157461 C158.521698,11.600052 156.697231,12.208568 155.329961,13.1543078 C154.94627,12.7541056 154.41551,12.5283665 153.861092,12.5295791 C153.3259,12.5272809 152.811716,12.7376836 152.431656,13.1145 C152.051596,13.4913164 151.836795,14.0036788 151.834507,14.5388709 C151.834507,15.349505 152.307917,16.0250334 152.982365,16.3622572 C152.914025,16.6728414 152.879954,16.9899841 152.880765,17.307997 C152.880765,20.5170273 156.495112,23.1175415 160.936307,23.1175415 C165.394794,23.1175415 169.009142,20.5170273 169.009142,17.307997 C169.009142,16.9869859 168.975635,16.6497621 168.891329,16.3449637 C169.573323,16.0003378 170.003992,15.3019098 170.005681,14.5377901 L170.005681,14.5388709 Z M164.280443,19.6220872 C164.432842,19.7744864 164.432842,20.0101108 164.280443,20.1452164 C163.317409,21.1082498 161.460517,21.1925557 160.920094,21.1925557 C160.379671,21.1925557 158.521698,21.1082498 157.559745,20.1452164 C157.407346,20.0101107 157.407346,19.7734056 157.559745,19.6220872 C157.701676,19.4868958 157.924731,19.4868958 158.066662,19.6220872 C158.674097,20.2468159 159.991648,20.4500149 160.921175,20.4500149 C161.850702,20.4500149 163.150959,20.2478968 163.775688,19.6220872 C163.917619,19.4868958 164.140673,19.4868958 164.282604,19.6220872 L164.280443,19.6220872 Z M159.096708,16.5654562 C159.096708,17.3933838 158.421179,18.0689123 157.593251,18.0689123 C157.192229,18.0714995 156.80665,17.9144495 156.521562,17.6324026 C156.236473,17.3503557 156.075297,16.9664835 156.073583,16.5654562 C156.071849,16.1618861 156.2314,15.7743445 156.51677,15.4889747 C156.80214,15.2036049 157.189681,15.0440541 157.593251,15.0457874 C158.421179,15.0457874 159.096708,15.7213159 159.096708,16.5654562 Z M165.766605,16.5654562 C165.766605,17.3933838 165.091077,18.0689123 164.246936,18.0689123 C163.41734,18.0671288 162.745264,17.3950522 162.74348,16.5654562 C162.74348,15.7213159 163.419009,15.0457874 164.246936,15.0457874 C164.650506,15.0440541 165.038048,15.2036049 165.323418,15.4889747 C165.608788,15.7743445 165.768338,16.1618861 165.766605,16.5654562 Z" id="reddit"></path>
                </g>
            </g>
        </g>
    </g>
</svg>