<?xml version="1.0" encoding="UTF-8"?>
<svg width="70px" height="70px" viewBox="0 0 70 70" version="1.1" xmlns="http://www.w3.org/2000/svg" xmlns:xlink="http://www.w3.org/1999/xlink">
    <!-- Generator: Sketch 49 (51002) - http://www.bohemiancoding.com/sketch -->
    <title>why-now-3</title>
    <desc>Created with Sketch.</desc>
    <defs></defs>
    <g id="why-now-3" stroke="none" stroke-width="1" fill="none" fill-rule="evenodd">
        <g id="pantheon" transform="translate(0.000000, 5.000000)" fill-rule="nonzero">
            <path d="M67.0728179,33.2051282 L2.92704538,33.2051282 C2.12199928,33.2051282 1.46853147,33.8772666 1.46853147,34.7129822 L1.46853147,58.8605783 C1.46853147,59.6962939 2.12199928,60.3729604 2.92704538,60.3729604 L67.0728179,60.3729604 C67.8780007,60.3729604 68.5314685,59.6964354 68.5314685,58.8605783 L68.5314685,34.7129822 C68.5314685,33.8772666 67.8780007,33.2051282 67.0728179,33.2051282 Z" id="Shape" fill="#FF4F02"></path>
            <path d="M57.7214895,13.485762 C57.6874282,13.3415135 56.857423,9.94223071 53.5087906,6.59541459 C51.5737012,4.66296091 49.1851882,3.12617615 46.4094665,2.02871259 C43.0011587,0.684305743 38.9989585,0 34.5117257,0 C30.0221768,0 26.0201128,0.684305743 22.6119413,2.02871259 C19.8360834,3.12603623 17.4475703,4.662821 15.5126172,6.59541459 C12.1638486,9.94223071 11.3335708,13.3415135 11.2995096,13.485762 C11.1931021,13.9382349 11.2973296,14.4149124 11.5848068,14.7777022 C11.6869907,14.9089389 14.1797313,18.0370738 18.2158565,21.1959891 C20.600146,23.0605859 23.0332112,24.5493811 25.449382,25.6205413 C28.5169408,26.9824371 31.5654252,27.6709402 34.5115895,27.6709402 C37.4557101,27.6709402 40.5039221,26.9824371 43.571617,25.6205413 C45.9877879,24.5493811 48.4208531,23.0605859 50.8051426,21.1959891 C54.841404,18.0370738 57.3340084,14.908799 57.4361922,14.7777022 C57.7235332,14.4147725 57.8278969,13.9382349 57.7214895,13.485762 Z" id="Shape" fill="#FF4F02"></path>
            <path d="M59.7329717,9.05594406 L10.2647095,9.05594406 C9.46115371,9.05594406 8.81118881,9.73246547 8.81118881,10.5660542 L8.81118881,21.132014 C8.81118881,21.9654613 9.46115371,22.6398601 10.2647095,22.6398601 L59.7331081,22.6398601 C60.5366638,22.6398601 61.1888112,21.9654613 61.1888112,21.132014 L61.1888112,10.5660542 C61.1886748,9.73246547 60.5365274,9.05594406 59.7329717,9.05594406 Z" id="Shape" fill="#FF7B40"></path>
            <path d="M68.5408919,36.2237762 L1.45692053,36.2237762 C0.651485203,36.2237762 0,35.5510927 0,34.714523 C0,33.8779534 0.651485203,33.2051282 1.45692053,33.2051282 L68.5408919,33.2051282 C69.3463272,33.2051282 70,33.8779534 70,34.714523 C70,35.5510927 69.3463272,36.2237762 68.5408919,36.2237762 Z" id="Shape" fill="#A63400"></path>
            <path d="M62.6688261,24.1491841 L7.33103738,24.1491841 C6.52687575,24.1491841 5.87412587,24.8256677 5.87412587,25.6592097 L5.87412587,58.8606709 C5.87412587,59.6963353 6.52687575,60.3729604 7.33103738,60.3729604 L62.6688261,60.3729604 C63.4731243,60.3729604 64.1258741,59.6964768 64.1258741,58.8606709 L64.1258741,25.6592097 C64.1258741,24.8256677 63.4731243,24.1491841 62.6688261,24.1491841 Z" id="Shape" fill="#FF9E73"></path>
            <path d="M65.9446937,16.6427254 L35.3386567,9.09743628 C35.1166203,9.04211331 34.8839262,9.04211331 34.6618899,9.09743628 L4.05585286,16.6427254 C3.40040156,16.806289 2.93706294,17.4120119 2.93706294,18.1106943 L2.93706294,21.1305361 L67.0629371,21.1305361 L67.062937,18.1106943 C67.0630737,17.4120119 66.600145,16.806289 65.9446937,16.6427254 Z" id="Shape" fill="#FF9E73"></path>
            <path d="M38.670896,60.3729604 L31.3292417,60.3729604 C30.5182138,60.3729604 29.8601399,56.9952809 29.8601399,52.8263403 C29.8601399,48.6573997 30.5183514,45.2797203 31.3292417,45.2797203 L38.670896,45.2797203 C39.4816486,45.2797203 40.1398601,48.6573997 40.1398601,52.8263403 C40.1398601,56.9952809 39.4816486,60.3729604 38.670896,60.3729604 Z" id="Shape" fill="#FF9E73"></path>
            <g id="Group" transform="translate(13.216783, 24.149184)" fill="#FF7B40">
                <path d="M20.2653225,0.555055373 C19.986576,0.231296563 19.5876021,0.0463720715 19.1673551,0.0463720715 L13.3131299,0.0463720715 C12.8928828,0.0463720715 12.4918502,0.231296563 12.2151624,0.555055373 C11.9364159,0.878814182 11.8076792,1.3082844 11.8591465,1.73549944 L12.5796876,7.65745259 L12.5796876,36.1304683 L19.9006601,36.1304683 L19.9006601,7.65745259 L20.6212012,1.73549944 C20.6726685,1.3082844 20.544069,0.878814182 20.2653225,0.555055373 Z" id="Shape"></path>
                <path d="M31.9758316,0.555055373 C31.6991438,0.231296563 31.2981112,0.0463720715 30.8800601,0.0463720715 L25.0237762,0.0463720715 C24.6035292,0.0463720715 24.2045553,0.231296563 23.9258088,0.555055373 C23.6470623,0.878814182 23.5183256,1.3082844 23.5697928,1.73549944 L24.2925299,7.65745259 L24.2925299,36.1304683 L31.6113065,36.1304683 L31.6113065,7.65745259 L32.3318476,1.73549944 C32.3833148,1.3082844 32.2547154,0.878814182 31.9758316,0.555055373 Z" id="Shape"></path>
                <path d="M43.6886739,0.555055373 C43.4099275,0.231296563 43.0109535,0.0463720715 42.5907065,0.0463720715 L36.7341481,0.0463720715 C36.3139011,0.0463720715 35.9149271,0.231296563 35.6361806,0.555055373 C35.3597673,0.878814182 35.228972,1.3082844 35.2826351,1.73549944 L36.0029018,7.65745259 L36.0029018,36.1304683 L43.3219528,36.1304683 L43.3219528,7.65745259 L44.042494,1.73549944 C44.0939612,1.3082844 43.9653617,0.878814182 43.6886739,0.555055373 Z" id="Shape"></path>
                <path d="M8.55467616,0.555055373 C8.27592968,0.231296563 7.87695575,0.0463720715 7.45670871,0.0463720715 L1.60028756,0.0463720715 C1.18004052,0.0463720715 0.781203843,0.231296563 0.50232011,0.555055373 C0.225632312,0.878814182 0.0948369388,1.3082844 0.148500098,1.73549944 L0.869041239,7.65745259 L0.869041239,36.1304683 L8.18795504,36.1304683 L8.18795504,7.65745259 L8.90849618,1.73549944 C8.9599634,1.3082844 8.83136396,0.878814182 8.55467616,0.555055373 Z" id="Shape"></path>
            </g>
            <path d="M20.5604685,24.1491841 L14.685129,24.1491841 C14.2635245,24.1491841 13.8633994,24.3348531 13.5836148,24.6599151 C13.3060332,24.9849772 13.1748153,25.4161763 13.2286518,25.8451111 L13.9406431,31.6958042 L21.3068821,31.6958042 L22.016808,25.8451111 C22.0684415,25.4161763 21.9394266,24.9849772 21.6618451,24.6599151 C21.3821981,24.3349946 20.9820731,24.1491841 20.5604685,24.1491841 Z" id="Shape" fill="#F5F7FA"></path>
            <path d="M31.8172598,24.1491841 L25.9451082,24.1491841 C25.5235743,24.1491841 25.1213137,24.3348531 24.8437787,24.6599151 C24.5641786,24.9849772 24.4350477,25.4161763 24.4866725,25.8451111 L25.1985444,31.6958042 L32.5635483,31.6958042 L33.2755578,25.8451111 C33.3271827,25.4161763 33.1981894,24.9849772 32.9184517,24.6599151 C32.638714,24.3348531 32.2387937,24.1491841 31.8172598,24.1491841 Z" id="Shape" fill="#F5F7FA"></path>
            <path d="M44.057087,24.1491841 L38.1828705,24.1491841 C37.7613366,24.1491841 37.3611409,24.3348531 37.0815409,24.6599151 C36.8019409,24.9849772 36.67281,25.4161763 36.7244348,25.8451111 L37.4364443,31.6958042 L44.8013105,31.6958042 L45.5133201,25.8451111 C45.5649449,25.4161763 45.4359517,24.9849772 45.156214,24.6599151 C44.8788166,24.3349946 44.4765559,24.1491841 44.057087,24.1491841 Z" id="Shape" fill="#F5F7FA"></path>
            <path d="M55.3155757,24.1491841 L49.4400992,24.1491841 C49.0184946,24.1491841 48.6182319,24.3348531 48.338585,24.6599151 C48.0612788,24.9849772 47.9300609,25.4161763 47.9838974,25.8451111 L48.695751,31.6958042 L56.0621269,31.6958042 L56.7720528,25.8451111 C56.8236863,25.4161763 56.6946714,24.9849772 56.4170898,24.6599151 C56.1374429,24.3349946 55.7373179,24.1491841 55.3155757,24.1491841 Z" id="Shape" fill="#F5F7FA"></path>
            <g id="Group" transform="translate(5.874126, 19.621212)">
                <path d="M57.1835174,0.0461182336 L1.55554539,0.0461182336 C0.747166852,0.0461182336 0.0909940527,0.714273612 0.0909940527,1.53755396 L0.0909940527,6.00948534 C0.0909940527,6.83262594 0.747166852,7.49868503 1.55554539,7.49868503 L57.1835174,7.49868503 C57.9920332,7.49868503 58.648206,6.83262594 58.648206,6.00948534 L58.648206,1.53755396 C58.648206,0.714273612 57.9920332,0.0461182336 57.1835174,0.0461182336 Z" id="Shape" fill="#FF4F02"></path>
                <path d="M49.8647409,4.51804962 C49.0562251,4.51804962 48.4000523,5.186205 48.4000523,6.00948534 L48.4000523,7.49868503 L51.3294294,7.49868503 L51.3294294,6.00948534 C51.3294294,5.186205 50.6732566,4.51804962 49.8647409,4.51804962 Z" id="Shape" fill="#FF9E73"></path>
                <path d="M44.0081825,4.51804962 C43.1996667,4.51804962 42.5459643,5.186205 42.5459643,6.00948534 L42.5459643,7.49868503 L45.4728711,7.49868503 L45.4728711,6.00948534 C45.4728711,5.186205 44.8166983,4.51804962 44.0081825,4.51804962 Z" id="Shape" fill="#FF9E73"></path>
                <path d="M38.1540945,4.51804962 C37.34352,4.51804962 36.6894059,5.186205 36.6894059,6.00948534 L36.6894059,7.49868503 L39.6165872,7.49868503 L39.6165872,6.00948534 C39.6165872,5.186205 38.9604144,4.51804962 38.1540945,4.51804962 Z" id="Shape" fill="#FF9E73"></path>
                <path d="M32.2978106,4.51804962 C31.4892948,4.51804962 30.833122,5.186205 30.833122,6.00948534 L30.833122,7.49868503 L33.7622247,7.49868503 L33.7622247,6.00948534 C33.7622247,5.186205 33.1063264,4.51804962 32.2978106,4.51804962 Z" id="Shape" fill="#FF9E73"></path>
                <path d="M26.4413895,4.51804962 C25.6328737,4.51804962 24.9788968,5.186205 24.9788968,6.00948534 L24.9788968,7.49868503 L27.906078,7.49868503 L27.906078,6.00948534 C27.906078,5.186205 27.249768,4.51804962 26.4413895,4.51804962 Z" id="Shape" fill="#FF9E73"></path>
                <path d="M20.5871642,4.51804962 C19.7765898,4.51804962 19.1226129,5.186205 19.1226129,6.00948534 L19.1226129,7.49868503 L22.0496569,7.49868503 L22.0496569,6.00948534 C22.0496569,5.186205 21.3934841,4.51804962 20.5871642,4.51804962 Z" id="Shape" fill="#FF9E73"></path>
                <path d="M14.7308803,4.51804962 C13.9223646,4.51804962 13.2661918,5.186205 13.2661918,6.00948534 L13.2661918,7.49868503 L16.1954317,7.49868503 L16.1954317,6.00948534 C16.1954317,5.186205 15.5392589,4.51804962 14.7308803,4.51804962 Z" id="Shape" fill="#FF9E73"></path>
                <path d="M8.87445919,4.51804962 C8.06608065,4.51804962 7.41196654,5.186205 7.41196654,6.00948534 L7.41196654,7.49868503 L10.3391478,7.49868503 L10.3391478,6.00948534 C10.3391478,5.186205 9.68283772,4.51804962 8.87445919,4.51804962 Z" id="Shape" fill="#FF9E73"></path>
            </g>
        </g>
    </g>
</svg>