<?xml version="1.0" encoding="UTF-8"?>
<svg width="36px" height="36px" viewBox="0 0 36 36" version="1.1" xmlns="http://www.w3.org/2000/svg" xmlns:xlink="http://www.w3.org/1999/xlink">
    <!-- Generator: Sketch 49 (51002) - http://www.bohemiancoding.com/sketch -->
    <title>linked-in</title>
    <desc>Created with Sketch.</desc>
    <defs></defs>
    <g id="Page-1" stroke="none" stroke-width="1" fill="none" fill-rule="evenodd">
        <g id="Team" transform="translate(-444.000000, -8411.000000)" fill="#FF5C3C" fill-rule="nonzero">
            <g id="linked-in" transform="translate(444.000000, 8411.000000)">
                <path d="M30.6705,30.678 L25.3395,30.678 L25.3395,22.3245 C25.3395,20.3325 25.299,17.769 22.5615,17.769 C19.782,17.769 19.3575,19.9365 19.3575,22.1775 L19.3575,30.678 L14.0265,30.678 L14.0265,13.5 L19.1475,13.5 L19.1475,15.8415 L19.2165,15.8415 C19.932,14.4915 21.672,13.0665 24.2715,13.0665 C29.673,13.0665 30.672,16.6215 30.672,21.249 L30.672,30.678 L30.6705,30.678 Z M8.0055,11.1495 C7.18414525,11.1498992 6.39636022,10.8235886 5.8158561,10.2425217 C5.23535197,9.66145484 4.90980494,8.87335399 4.91100001,8.05200001 C4.91182863,6.34212672 6.29862646,4.95667223 8.00849976,4.95750071 C9.71837305,4.9583292 11.1038276,6.34512694 11.1029993,8.05500023 C11.1021709,9.76487352 9.71537329,11.1503282 8.0055,11.1495 Z M10.6785,30.678 L5.3325,30.678 L5.3325,13.5 L10.6785,13.5 L10.6785,30.678 Z M33.3375,0 L2.65650001,0 C1.188,0 0,1.161 0,2.59350001 L0,33.4065 C0,34.8405 1.188,36 2.65650001,36 L33.333,36 C34.8,36 36,34.8405 36,33.4065 L36,2.59350001 C36,1.161 34.8,0 33.333,0 L33.3375,0 Z" id="Shape-Copy-6"></path>
            </g>
        </g>
    </g>
</svg>