<?xml version="1.0" encoding="UTF-8"?>
<svg width="70px" height="70px" viewBox="0 0 70 70" version="1.1" xmlns="http://www.w3.org/2000/svg" xmlns:xlink="http://www.w3.org/1999/xlink">
    <!-- Generator: Sketch 49 (51002) - http://www.bohemiancoding.com/sketch -->
    <title>backtop</title>
    <desc>Created with Sketch.</desc>
    <defs></defs>
    <g id="Page-1" stroke="none" stroke-width="1" fill="none" fill-rule="evenodd">
        <g id="Red-Copy-2" transform="translate(-1390.000000, -14668.000000)">
            <g id="backtop" transform="translate(1390.000000, 14668.000000)">
                <rect id="Rectangle-12" fill="#4324BA" x="0" y="0" width="70" height="70"></rect>
                <path d="M31.17087,41.5068566 L28.1404123,45.5474668 C28.1404123,45.5474668 26.0000001,42.3364949 26.0000001,39.1262301 C25.9995479,37.7574047 27.3126057,36.3885794 28.2593402,35.5795751 C28.1818493,35.1413538 28.1404123,34.691534 28.1404123,34.2337583 C28.1404123,24.3342633 34.5043731,18 34.5043731,18 C34.5043731,18 40.8683344,24.3342633 40.8683344,34.2337583 C40.8683344,34.691534 40.8268974,35.1413538 40.7494066,35.5795751 C41.6961411,36.3885794 43.0091988,37.7574047 43.0087466,39.1262301 C43.0087466,42.3364949 40.8683344,45.5474668 40.8683344,45.5474668 L37.8378768,41.5068566 L36.6256937,42.7190397 L32.383053,42.7190397 L31.17087,41.5068566 Z M35.8351483,43.9904176 L36.482151,43.9897105 C36.6801409,44.3291218 36.8010562,44.7187376 36.8010562,45.1387591 C36.8010562,47.0960306 34.5022521,49.0624946 34.5022521,49.0624946 C34.5022521,49.0624946 32.2034479,47.0705748 32.2034479,45.1387591 C32.2034479,44.7187376 32.3243632,44.3291218 32.5223531,43.9897105 L33.1693558,43.9904176 C33.1566278,44.0681994 33.1233938,44.138203 33.1233938,44.2202273 C33.1226867,45.5997927 34.5022521,46.2892218 34.5022521,46.2892218 C34.5022521,46.2892218 35.8811103,45.5990856 35.8811103,44.2202273 C35.8818174,44.1389101 35.8485834,44.0674923 35.8351483,43.9904176 Z M32.5999756,28.9003906 C32.5999756,30.0053906 33.4949756,30.9003906 34.5999756,30.9003906 C35.7049756,30.9003906 36.5999756,30.0053906 36.5999756,28.9003906 C36.5999756,27.7953906 35.7049756,26.9003906 34.5999756,26.9003906 C33.4949756,26.9003906 32.5999756,27.7953906 32.5999756,28.9003906 Z" id="Combined-Shape" fill="#FFFFFF" fill-rule="nonzero"></path>
            </g>
        </g>
    </g>
</svg>