<?xml version="1.0" encoding="UTF-8"?>
<svg width="70px" height="70px" viewBox="0 0 70 70" version="1.1" xmlns="http://www.w3.org/2000/svg" xmlns:xlink="http://www.w3.org/1999/xlink">
    <!-- Generator: Sketch 49 (51002) - http://www.bohemiancoding.com/sketch -->
    <title>Community-3</title>
    <desc>Created with Sketch.</desc>
    <defs></defs>
    <g id="Community-3" stroke="none" stroke-width="1" fill="none" fill-rule="evenodd">
        <g id="Group-4" transform="translate(0.000000, 5.000000)" fill-rule="nonzero">
            <path d="M3.73033277,10.0719424 C14.7763964,14.5549709 10.9370978,22.6341512 10.9370978,22.6341512 C1.61986181,23.3470605 3.73033277,10.0719424 3.73033277,10.0719424 Z" id="Shape" fill="#8F6CD7"></path>
            <path d="M18.7305642,13.5971223 C21.2469694,26.6536511 11.2468539,28.2014388 11.2468539,28.2014388 C4.86685385,20.0256522 18.7305642,13.5971223 18.7305642,13.5971223 Z" id="Shape" fill="#8F6CD7"></path>
            <path d="M0,26.2668831 C13.1535145,25.2064955 13.5971223,35.0600452 13.5971223,35.0600452 C4.84121261,40.3810078 0,26.2668831 0,26.2668831 Z" id="Shape" fill="#8F6CD7"></path>
            <path d="M19.1463579,27.1942446 C28.155554,38.0664358 19.20409,44.3165468 19.20409,44.3165468 C8.88838484,39.8236386 19.1463579,27.1942446 19.1463579,27.1942446 Z" id="Shape" fill="#8F6CD7"></path>
            <path d="M3.02158273,41.3223161 C18.1622596,35.7948167 22.1582734,46.9422714 22.1582734,46.9422714 C13.7056676,55.9078703 3.02158273,41.3223161 3.02158273,41.3223161 Z" id="Shape" fill="#8F6CD7"></path>
            <path d="M23.7654391,38.2733813 C36.4208218,44.5914925 31.1353974,53.8848496 31.1353974,53.8848496 C20.0445293,53.9146308 23.7654391,38.2733813 23.7654391,38.2733813 Z" id="Shape" fill="#8F6CD7"></path>
            <path d="M48.3973977,59.9280576 C48.3183302,59.9280576 48.2370738,59.9216638 48.1537656,59.9087404 C31.6129074,57.1477421 20.1160965,50.6394804 13.9839806,40.5666524 C12.0241166,37.3443541 10.6283958,33.7607427 9.83963502,29.9136284 C9.21119813,26.850765 8.96332534,23.6136387 9.10217241,20.2957067 C9.33937518,14.650325 10.6091077,10.7331519 10.6624578,10.5693639 C10.9125193,9.80633473 11.7375308,9.39183129 12.5027628,9.64050615 C13.2678581,9.889181 13.6867248,10.707577 13.4366633,11.4684296 C13.4238045,11.5066558 12.2227432,15.2433084 12.0133098,20.5188067 C11.8252165,25.3287878 12.4494127,32.4556078 16.4954027,39.0892952 C22.1721275,48.3925643 32.9872882,54.4354449 48.6367892,57.0454426 C49.4319794,57.1793026 49.9683532,57.9275037 49.8360723,58.7161077 C49.7162397,59.4264907 49.0986096,59.9280576 48.3973977,59.9280576 Z" id="Shape" fill="#7546D8"></path>
            <path d="M58.5290521,28.2014388 C60.236883,26.1124754 60.5433593,24.1408333 60.0594715,22.3645029 C68.2198403,22.1295919 66.2712566,10.0719424 66.2712566,10.0719424 C59.5909987,12.737579 58.3932608,16.7099922 58.4787434,19.407174 C55.730827,15.9632435 50.7802612,13.7737381 50.7802612,13.7737381 C48.1745822,26.6725034 58.5290521,28.2014388 58.5290521,28.2014388 Z" id="Shape" fill="#8F6CD7"></path>
            <path d="M56.4028777,35.0594798 C57.7925177,35.9047108 59.0835478,36.2589928 60.2708652,36.2589928 C66.5737569,36.2589928 70,26.2671888 70,26.2671888 C69.329867,26.2122791 68.6897996,26.1870504 68.0822803,26.1870504 C56.8015924,26.1870504 56.4028777,35.0594798 56.4028777,35.0594798 Z" id="Shape" fill="#8F6CD7"></path>
            <path d="M55.5004789,40.6993533 C58.0192278,35.1981523 51.7159126,27.1942446 51.7159126,27.1942446 C44.6091584,36.0402211 49.0965453,41.8092364 50.9619603,43.613438 C49.1776979,45.4767937 48.5246382,47.3674306 48.5246382,47.3674306 C50.4928649,49.5304737 52.5832319,50.3597122 54.6309663,50.3597122 C61.2898728,50.3597122 67.4820144,41.5961194 67.4820144,41.5961194 C64.5004758,40.4693544 61.9559554,40.0175949 59.7927978,40.0175949 C58.1521976,40.01773 56.7277761,40.2773059 55.5004789,40.6993533 Z" id="Shape" fill="#8F6CD7"></path>
            <path d="M38.2840528,53.8848921 C49.2003731,52.9399714 44.1636654,37.2661871 44.1636654,37.2661871 C32.2673411,44.8426311 38.2840528,53.8848921 38.2840528,53.8848921 Z" id="Shape" fill="#8F6CD7"></path>
            <path d="M21.6024106,59.9280576 C20.9035193,59.9280576 20.2836961,59.4263533 20.1639995,58.7165126 C20.0314441,57.9279064 20.5679584,57.1797033 21.3631542,57.0458429 C37.0278134,54.431485 47.8493432,48.3821944 53.5196787,39.0640721 C57.5743154,32.4026152 58.1834685,25.2481605 57.9826518,20.4169446 C57.7624101,15.166871 56.576251,11.5067971 56.5633922,11.4706113 C56.3133289,10.7096207 56.7321986,9.88918187 57.4972992,9.64050634 C58.2625366,9.39183081 59.087554,9.80633537 59.3374805,10.5693666 C59.3909678,10.733155 60.6605724,14.6503387 60.8977769,20.2957357 C61.0367617,23.6136767 60.7887504,26.8508117 60.1604459,29.9136834 C59.3715427,33.760672 57.9759488,37.3466057 56.0160709,40.5667361 C49.8841854,50.6395913 38.3871564,57.1478706 21.8460444,59.9088763 C21.7625988,59.9217999 21.6814787,59.9280576 21.6024106,59.9280576 Z" id="Shape" fill="#7546D8"></path>
            <path d="M58.2891773,11.5827338 C63.1167226,4.38949845 50.9861352,0 50.9861352,0 C49.7472065,10.9738145 58.2891773,11.5827338 58.2891773,11.5827338 Z" id="Shape" fill="#8F6CD7"></path>
            <path d="M19.0138648,0 C20.2527935,10.9736777 11.7108227,11.5827338 11.7108227,11.5827338 C6.88327744,4.38936168 19.0138648,0 19.0138648,0 Z" id="Shape" fill="#8F6CD7"></path>
        </g>
    </g>
</svg>