<?xml version="1.0" encoding="UTF-8"?>
<svg width="70px" height="70px" viewBox="0 0 70 70" version="1.1" xmlns="http://www.w3.org/2000/svg" xmlns:xlink="http://www.w3.org/1999/xlink">
    <!-- Generator: Sketch 49 (51002) - http://www.bohemiancoding.com/sketch -->
    <title>Community-1</title>
    <desc>Created with Sketch.</desc>
    <defs></defs>
    <g id="Community-1" stroke="none" stroke-width="1" fill="none" fill-rule="evenodd">
        <g id="Group-12" transform="translate(0.000000, 7.000000)" fill-rule="nonzero">
            <path d="M11.5189873,0 L11.5189873,43.7690715 C11.5189873,46.9992204 14.0968239,49.6202532 17.2763935,49.6202532 C20.458118,49.6202532 23.0379747,46.9993572 23.0379747,43.7690715 L23.0379747,0 L11.5189873,0 Z" id="Shape" fill="#CCD1D9"></path>
            <path d="M29.2405063,0 L29.2405063,43.7690715 C29.2405063,46.9992204 31.8183429,49.6202532 34.9979125,49.6202532 C38.179637,49.6202532 40.7594937,46.9993572 40.7594937,43.7690715 L40.7594937,0 L29.2405063,0 Z" id="Shape" fill="#CCD1D9"></path>
            <path d="M46.5189873,0 L46.5189873,43.7690715 C46.5189873,46.9992204 49.0968239,49.6202532 52.2763935,49.6202532 C55.458118,49.6202532 58.0379747,46.9993572 58.0379747,43.7690715 L58.0379747,0 L46.5189873,0 Z" id="Shape" fill="#CCD1D9"></path>
            <rect id="Rectangle-path" fill="#4513AE" x="4.43037975" y="10.1898734" width="3.10126582" height="42.0886076"></rect>
            <rect id="Rectangle-path" fill="#4513AE" x="62.9113924" y="10.1898734" width="3.10126582" height="42.0886076"></rect>
            <path d="M68.543125,8.86075949 L1.4590625,8.86075949 C0.653652344,8.86075949 0,9.55595604 0,10.4125557 C0,11.2691553 0.653652344,11.9620253 1.4590625,11.9620253 L68.543125,11.9620253 C69.3485352,11.9620253 70,11.2690099 70,10.4125557 C70,9.55610145 69.3483984,8.86075949 68.543125,8.86075949 Z" id="Shape" fill="#7546D8"></path>
            <path d="M68.543125,52.278481 L1.4590625,52.278481 C0.653652344,52.278481 0,52.9736776 0,53.8302772 C0,54.6868768 0.653652344,55.3797468 1.4590625,55.3797468 L68.543125,55.3797468 C69.3485352,55.3797468 70,54.6867314 70,53.8302772 C70,52.973823 69.3483984,52.278481 68.543125,52.278481 Z" id="Shape" fill="#7546D8"></path>
            <path d="M11.5189873,29.2405063 L11.5189873,43.784329 C11.5189873,47.006055 14.0968239,49.6202532 17.2763935,49.6202532 C20.458118,49.6202532 23.0379747,47.0061915 23.0379747,43.784329 L23.0379747,29.2405063 L11.5189873,29.2405063 Z" id="Shape" fill="#8F6CD7"></path>
            <path d="M23.3521921,0 L11.649997,0 C10.8419488,0 10.1898734,0.695196544 10.1898734,1.55179618 C10.1898734,2.40839581 10.8419488,3.10126582 11.649997,3.10126582 L23.3521921,3.10126582 C24.1559989,3.10126582 24.8101266,2.4082504 24.8101266,1.55179618 C24.8101266,0.695341953 24.1559989,0 23.3521921,0 Z" id="Shape" fill="#E6E9ED"></path>
            <path d="M41.0737111,0 L29.3715159,0 C28.5634678,0 27.9113924,0.695196544 27.9113924,1.55179618 C27.9113924,2.40839581 28.5634678,3.10126582 29.3715159,3.10126582 L41.0737111,3.10126582 C41.8775179,3.10126582 42.5316456,2.4082504 42.5316456,1.55179618 C42.5316456,0.695341953 41.8775179,0 41.0737111,0 Z" id="Shape" fill="#E6E9ED"></path>
            <path d="M58.3521921,0 L46.649997,0 C45.8419488,0 45.1898734,0.695196544 45.1898734,1.55179618 C45.1898734,2.40839581 45.8419488,3.10126582 46.649997,3.10126582 L58.3521921,3.10126582 C59.1559989,3.10126582 59.8101266,2.4082504 59.8101266,1.55179618 C59.8101266,0.695341953 59.1559989,0 58.3521921,0 Z" id="Shape" fill="#E6E9ED"></path>
            <path d="M29.2405063,20.3797468 L29.2405063,43.7588299 C29.2405063,46.9946327 31.8183429,49.6202532 34.9979125,49.6202532 C38.179637,49.6202532 40.7594937,46.9947697 40.7594937,43.7588299 L40.7594937,20.3797468 L29.2405063,20.3797468 Z" id="Shape" fill="#7546D8"></path>
            <path d="M46.5189873,37.6582278 L46.5189873,43.4050342 C46.5189873,46.5915707 49.0968239,49.1772152 52.2763935,49.1772152 C55.458118,49.1772152 58.0379747,46.5917057 58.0379747,43.4050342 L58.0379747,37.6582278 L46.5189873,37.6582278 Z" id="Shape" fill="#4513AE"></path>
        </g>
    </g>
</svg>