<?xml version="1.0" encoding="UTF-8"?>
<svg width="84px" height="84px" viewBox="0 0 84 84" version="1.1" xmlns="http://www.w3.org/2000/svg" xmlns:xlink="http://www.w3.org/1999/xlink">
    <!-- Generator: Sketch 49 (51002) - http://www.bohemiancoding.com/sketch -->
    <title>different-2</title>
    <desc>Created with Sketch.</desc>
    <defs></defs>
    <g id="Page-1" stroke="none" stroke-width="1" fill="none" fill-rule="evenodd">
        <g id="Home" transform="translate(-260.000000, -3121.000000)">
            <g id="Different" transform="translate(0.000000, 2698.000000)">
                <g id="different-2" transform="translate(260.000000, 423.000000)">
                    <rect id="Rectangle-Copy" fill="#4324BA" x="0" y="0" width="84" height="84"></rect>
                    <path d="M36.9061793,30.6935172 C37.230869,30.6935172 37.526731,30.7481379 37.790731,30.868 C38.2185931,31.0652414 38.5281103,31.4217931 38.6859034,31.8997241 C39.5932138,34.645931 41.3881103,53.2624828 39.4111448,57.494069 C38.5888,59.254069 35.8076966,59.82 34.974731,59.9504828 C34.4664552,60.0293793 34.1721103,60.222069 34.1721103,60.9655172 C34.1721103,61.6012414 34.4785931,62.4827586 35.1583172,62.4827586 L48.3583172,62.4827586 C48.9682483,62.4827586 49.3445241,61.6953103 49.3445241,60.9655172 C49.3445241,60.222069 49.0501793,60.0293793 48.5419034,59.9504828 C46.7576276,59.6697931 44.5318345,58.9961379 44.0645241,57.3833103 C42.4319724,51.7497931 43.8020414,35.0161379 44.8322483,31.8997241 C44.9900414,31.4217931 45.2995586,31.0652414 45.7274207,30.868 C46.8441103,30.3566897 48.5236966,31.0485517 50.6463172,31.9255172 C52.4184552,32.6568276 54.4257655,33.4867586 56.2449379,33.6597241 C59.4174897,33.9555862 61.0636966,32.5961379 62.2350069,30.1351724 C58.4722483,31.2230345 51.8570759,29.202069 46.766731,27.6484138 C46.0930759,27.4435862 45.4543172,27.2478621 44.8656276,27.0748966 C44.6471448,27.0096552 44.4681103,26.8488276 44.3801103,26.637931 C44.2921103,26.4255172 44.3042483,26.1873103 44.4134897,25.9855172 C44.6653517,25.5212414 44.7928,25.0387586 44.7928,24.5517241 C44.7928,22.8782069 43.4318345,21.5172414 41.7583172,21.5172414 C40.0848,21.5172414 38.7238345,22.8782069 38.7238345,24.5517241 C38.7238345,25.0387586 38.8512828,25.5212414 39.1031448,25.9855172 C39.2123862,26.1873103 39.2245241,26.4255172 39.1380414,26.637931 C39.0500414,26.8488276 38.8710069,27.0096552 38.6510069,27.0748966 C38.0638345,27.2478621 37.4250759,27.4435862 36.7499034,27.6484138 C31.6595586,29.202069 25.0459034,31.22 21.2816276,30.1351724 C22.4544552,32.5946207 24.1021793,33.9571034 27.2732138,33.6597241 C29.0923862,33.4867586 31.0996966,32.6568276 32.8718345,31.9255172 C34.4937655,31.2564138 35.8562483,30.6935172 36.9061793,30.6935172 M19.2018977,49.0711913 L24.7629225,35.0421161 C21.4550331,34.3183592 20.0065083,31.4494895 19.0406621,28.5875862 C18.9223172,28.2386207 19.0725241,27.8562759 19.3941793,27.6802759 C19.7173517,27.5027586 20.1209379,27.5846897 20.3500414,27.8714483 C22.4059034,30.4401379 31.1088,27.7849655 36.306869,26.197931 C36.6861793,26.0811034 37.054869,25.9703448 37.4099034,25.8626207 C37.274869,25.4347586 37.2065931,24.9962759 37.2065931,24.5517241 C37.2065931,22.0422069 39.2488,20 41.7583172,20 C44.2693517,20 46.3100414,22.0422069 46.3100414,24.5517241 C46.3100414,24.9962759 46.2417655,25.4347586 46.1082483,25.8626207 C46.4617655,25.9703448 46.8304552,26.0811034 47.2097655,26.197931 C52.4093517,27.7849655 61.1122483,30.4401379 63.1665931,27.8714483 C63.3956966,27.5846897 63.7992828,27.5027586 64.1224552,27.6802759 C64.4456276,27.8562759 64.5958345,28.2386207 64.4774897,28.5875862 C63.5101393,31.450304 62.0687977,34.3279584 58.756242,35.0472712 L64.3151334,49.0709643 C64.4405469,49.2063081 64.5172414,49.3874313 64.5172414,49.5863586 C64.5172414,49.6083315 64.5163057,49.6300872 64.5144719,49.6515879 C64.516824,49.6756355 64.518,49.6998308 64.518,49.7241241 C64.518,53.2881241 61.3272414,56.4136414 57.6904138,56.4136414 C54.1296597,56.4136414 50.8853277,53.1816161 50.8629441,49.6230917 C50.8623629,49.61092 50.862069,49.5986734 50.862069,49.5863586 C50.862069,49.4837915 50.8824578,49.3859575 50.9194008,49.2966911 L56.5565702,35.2037676 C56.4074967,35.1957474 56.2555955,35.1843192 56.1008,35.1693793 C54.0570759,34.9751724 51.9374897,34.1012414 50.0682483,33.3289655 C48.6450759,32.7417931 46.8774897,32.012 46.3601103,32.2471724 C46.338869,32.2577931 46.3070069,32.2729655 46.2721103,32.3761379 C45.3041103,35.3074483 43.9901793,51.6769655 45.5225931,56.9615172 C45.7016276,57.5835862 46.9806621,58.1677241 48.7785931,58.4514483 C50.1031448,58.6593103 50.8617655,59.5757241 50.8617655,60.9655172 C50.8617655,62.4372414 49.9848,64 48.3583172,64 L35.1583172,64 C33.5318345,64 32.654869,62.4417931 32.654869,60.9746207 C32.654869,59.5757241 33.4150069,58.6593103 34.7395586,58.4514483 C36.3599724,58.1965517 37.7163862,57.538069 38.0365241,56.8522759 C39.7343172,53.2184828 38.1685241,35.1693793 37.2460414,32.3761379 C37.2111448,32.2729655 37.1792828,32.2577931 37.1580414,32.2471724 C36.6452138,32.012 34.8730759,32.7417931 33.4499034,33.3274483 C31.5806621,34.0997241 29.4610759,34.9751724 27.4173517,35.1693793 C27.2621662,35.1840287 27.1098816,35.1951556 26.9604312,35.2028641 L32.6013103,49.3050621 C32.6021968,49.307336 32.6030734,49.3096138 32.6039402,49.3118954 C32.6191981,49.3511581 32.6312799,49.3920023 32.6398696,49.4341121 C32.6503488,49.4840495 32.655931,49.5349006 32.655931,49.5857517 C32.655931,53.1588552 29.4014483,56.4133379 25.8283448,56.4133379 C22.1915172,56.4133379 19.0007586,53.2878207 19.0007586,49.7238207 C19.0007586,49.7020015 19.0016283,49.6802613 19.0034036,49.6586363 C19.0011517,49.6348454 19,49.6107357 19,49.5863586 C19,49.3875425 19.0766087,49.2065106 19.2018977,49.0711913 Z M20.9299851,48.8277379 L30.7759466,48.8277379 L25.8298621,36.4646483 L20.9299851,48.8277379 Z M31.0753497,50.3449793 L20.5613999,50.3449793 C20.9091549,52.7969666 23.2623886,54.8960966 25.8283448,54.8960966 C28.3508174,54.8960966 30.6700764,52.8095971 31.0753497,50.3449793 Z M52.7414162,48.8277379 L62.587136,48.8277379 L57.6873793,36.4649517 L52.7414162,48.8277379 Z M62.9558849,50.3449793 L52.4418425,50.3449793 C52.8469835,52.8097293 55.1664362,54.8964 57.6904138,54.8964 C60.2550511,54.8964 62.6082862,52.7970969 62.9558849,50.3449793 Z" id="Combined-Shape" stroke="#FFFFFF" fill="#FFFFFF"></path>
                </g>
            </g>
        </g>
    </g>
</svg>