<?xml version="1.0" encoding="UTF-8"?>
<svg width="84px" height="84px" viewBox="0 0 84 84" version="1.1" xmlns="http://www.w3.org/2000/svg" xmlns:xlink="http://www.w3.org/1999/xlink">
    <!-- Generator: Sketch 49 (51002) - http://www.bohemiancoding.com/sketch -->
    <title>different-4</title>
    <desc>Created with Sketch.</desc>
    <defs></defs>
    <g id="Page-1" stroke="none" stroke-width="1" fill="none" fill-rule="evenodd">
        <g id="Home" transform="translate(-260.000000, -3470.000000)">
            <g id="Different" transform="translate(0.000000, 2698.000000)">
                <g id="different-4" transform="translate(260.000000, 772.000000)">
                    <rect id="Rectangle-Copy-3" fill="#4324BA" x="0" y="0" width="84" height="84"></rect>
                    <g id="Page-1" transform="translate(17.000000, 17.000000)" fill="#FFFFFF" stroke="#FFFFFF">
                        <path d="M1.66666667,48.3333333 L48.3333333,48.3333333 L48.3333333,15.4783333 L25,1.8 L1.66666667,15.4783333 L1.66666667,48.3333333 Z M49.1666667,50 L0.833333333,50 C0.373333333,50 0,49.6266667 0,49.1666667 L0,15 C0,14.705 0.156666667,14.43 0.411666667,14.2816667 L24.5783333,0.115 C24.8383333,-0.0383333333 25.1616667,-0.0383333333 25.4216667,0.115 L49.5883333,14.2816667 C49.8433333,14.43 50,14.705 50,15 L50,49.1666667 C50,49.6266667 49.6266667,50 49.1666667,50 Z" id="Fill-1"></path>
                        <path d="M24.8999939,9.75 C23.9339939,9.75 23.1499939,10.53575 23.1499939,11.5 C23.1499939,12.46425 23.9339939,13.25 24.8999939,13.25 C25.8659939,13.25 26.6499939,12.46425 26.6499939,11.5 C26.6499939,10.53575 25.8659939,9.75 24.8999939,9.75 M24.8999939,15 C22.9697439,15 21.3999939,13.43025 21.3999939,11.5 C21.3999939,9.56975 22.9697439,8 24.8999939,8 C26.8302439,8 28.3999939,9.56975 28.3999939,11.5 C28.3999939,13.43025 26.8302439,15 24.8999939,15" id="Fill-3"></path>
                        <path d="M5.06666056,24.4 L11.7333272,24.4 L11.7333272,19.6 L5.06666056,19.6 L5.06666056,24.4 Z M12.5666606,26 L4.23332723,26 C3.77332723,26 3.3999939,25.6416 3.3999939,25.2 L3.3999939,18.8 C3.3999939,18.3584 3.77332723,18 4.23332723,18 L12.5666606,18 C13.0266606,18 13.3999939,18.3584 13.3999939,18.8 L13.3999939,25.2 C13.3999939,25.6416 13.0266606,26 12.5666606,26 Z" id="Fill-5"></path>
                        <path d="M38.2666728,24.4 L44.9333394,24.4 L44.9333394,19.6 L38.2666728,19.6 L38.2666728,24.4 Z M45.7666728,26 L37.4333394,26 C36.9733394,26 36.6000061,25.6416 36.6000061,25.2 L36.6000061,18.8 C36.6000061,18.3584 36.9733394,18 37.4333394,18 L45.7666728,18 C46.2266728,18 46.6000061,18.3584 46.6000061,18.8 L46.6000061,25.2 C46.6000061,25.6416 46.2266728,26 45.7666728,26 Z" id="Fill-7"></path>
                        <path d="M5.06666056,38.4 L11.7333272,38.4 L11.7333272,33.6 L5.06666056,33.6 L5.06666056,38.4 Z M12.5666606,40 L4.23332723,40 C3.77332723,40 3.3999939,39.6416 3.3999939,39.2 L3.3999939,32.8 C3.3999939,32.3584 3.77332723,32 4.23332723,32 L12.5666606,32 C13.0266606,32 13.3999939,32.3584 13.3999939,32.8 L13.3999939,39.2 C13.3999939,39.6416 13.0266606,40 12.5666606,40 Z" id="Fill-8"></path>
                        <path d="M38.2666728,38.4 L44.9333394,38.4 L44.9333394,33.6 L38.2666728,33.6 L38.2666728,38.4 Z M45.7666728,40 L37.4333394,40 C36.9733394,40 36.6000061,39.6416 36.6000061,39.2 L36.6000061,32.8 C36.6000061,32.3584 36.9733394,32 37.4333394,32 L45.7666728,32 C46.2266728,32 46.6000061,32.3584 46.6000061,32.8 L46.6000061,39.2 C46.6000061,39.6416 46.2266728,40 45.7666728,40 Z" id="Fill-9"></path>
                        <path d="M19.625,48.3 L29.375,48.3 L29.375,39.8 C29.375,36.9882 27.18775,34.7 24.5,34.7 C21.81225,34.7 19.625,36.9882 19.625,39.8 L19.625,48.3 Z M30.1875,50 L18.8125,50 C18.364,50 18,49.6192 18,49.15 L18,39.8 C18,36.0498 20.91525,33 24.5,33 C28.08475,33 31,36.0498 31,39.8 L31,49.15 C31,49.6192 30.636,50 30.1875,50 Z" id="Fill-10"></path>
                        <path d="M19.625,28.2857143 L29.375,28.2857143 L29.375,19.7142857 L19.625,19.7142857 L19.625,28.2857143 Z M30.1875,30 L18.8125,30 C18.364,30 18,29.616 18,29.1428571 L18,18.8571429 C18,18.384 18.364,18 18.8125,18 L30.1875,18 C30.636,18 31,18.384 31,18.8571429 L31,29.1428571 C31,29.616 30.636,30 30.1875,30 Z" id="Fill-11"></path>
                    </g>
                </g>
            </g>
        </g>
    </g>
</svg>