<?xml version="1.0" encoding="UTF-8"?>
<svg width="260px" height="260px" viewBox="0 0 260 260" version="1.1" xmlns="http://www.w3.org/2000/svg" xmlns:xlink="http://www.w3.org/1999/xlink">
    <!-- Generator: Sketch 50.2 (55047) - http://www.bohemiancoding.com/sketch -->
    <title>do-1</title>
    <desc>Created with Sketch.</desc>
    <defs></defs>
    <g id="do-1" stroke="none" stroke-width="1" fill="none" fill-rule="evenodd">
        <rect id="mask" x="0" y="0" width="260" height="260"></rect>
        <g id="Group" transform="translate(22.000000, 26.000000)" stroke="#FF5C3C" stroke-width="5">
            <polyline id="Stroke-1" points="45 56 45 69 55.3915 65.434424 65.671 69 66 56"></polyline>
            <path d="M21,82 L21,70.0070525 C21,67.0838794 22.846513,64.4782174 25.6145504,63.5015255 L45.212532,55.3532236 L45.212532,48.4508078 L38.176382,40.68559 L38.176382,25.4312509 C38.176382,23.4295503 39.049405,21.5244836 40.5702666,20.2130246 L46.9828287,14.6841895 C48.2403977,13.597059 49.851333,13 51.5176984,13 L59.4996234,13 C61.1555957,13 62.7526736,13.5901566 64.0102425,14.6634822 L70.5094141,20.2130246 C72.0441332,21.5244836 72.9275493,23.4364528 72.9275493,25.4519582 L72.9275493,40.68559 L65.998795,48.4508078 L65.998795,55.3532236 L81.9383943,63.4946231 C84.6925742,64.4747662 90,67.0769769 90,69.9932476 L90,82" id="Stroke-2"></path>
            <path d="M138,102 C126.567456,96.6426613 117.33944,87.3432603 112.062352,75.8484551 C108.938122,69.0516769 106.988493,61.4816745 106.988493,53.5043487 C106.988493,47.0355004 105.634775,40.8358997 103.537029,35.0988528 C96.0485236,14.6153169 76.4213364,0 53.3909093,0 C23.9019045,0 0,23.9526888 0,53.5043487 C0,73.8187418 11.2982053,91.4889844 27.9389462,100.550205" id="Stroke-4"></path>
            <path d="M114,186.430517 C123.214323,202.325903 140.313419,213 159.886574,213 C189.222318,213 213,189.022156 213,159.439461 C213,138.046345 200.561178,119.580053 182.578,111" id="Stroke-6"></path>
            <path d="M112.705655,29.5958329 C121.450416,12.0567982 139.622961,0 160.624186,0 C190.156296,0 214,23.6395684 214,53.0464771 C214,74.5116999 201.146753,92.8167363 182.770682,101.23932 C175.9715,104.354852 168.409956,106.299053 160.437907,106.299053 L160.434457,106.299053 C153.973338,106.299053 147.777839,107.645568 142.041137,109.740909 C128.501419,114.680417 117.52476,124.916673 111.646625,137.928397 C108.642014,144.588834 106.955155,151.977487 106.955155,159.754294 C106.955155,169.365382 104.378296,178.389089 99.9041524,186.172765 C90.6867948,202.203841 73.3456058,213 53.4689535,213 C23.9402927,213 0,189.161202 0,159.757729 C0,139.539406 11.3147205,121.955716 27.9832355,112.942315 C35.5585789,108.840942 44.241247,106.515457 53.4689535,106.515457 L53.2723257,106.481108 C61.2788703,106.481108 68.878361,104.729265 75.6982397,101.586254 C87.0647044,96.3479011 96.2751628,87.2520602 101.628957,75.9853086" id="Stroke-8"></path>
            <path d="M103,139 C97.9457815,127.173469 88.6487702,117.55102 77,112" id="Stroke-10"></path>
            <polyline id="Stroke-12" points="148 56 148 69 158.3915 65.434424 168.671 69 169 56"></polyline>
            <path d="M124,82 L124,70.0070525 C124,67.0838794 125.849977,64.4782174 128.61455,63.5015255 L148.215996,55.3532236 L148.215996,48.4508078 L141.176382,40.68559 L141.176382,25.4312509 C141.176382,23.4295503 142.049405,21.5244836 143.570267,20.2130246 L149.982829,14.6841895 C151.240398,13.597059 152.851333,13 154.517698,13 L162.503088,13 C164.155596,13 165.756138,13.5901566 167.010243,14.6634822 L173.512878,20.2130246 C175.047598,21.5244836 175.931014,23.4364528 175.931014,25.4519582 L175.931014,40.68559 L169.002259,48.4508078 L169.002259,55.3532236 L184.938394,63.4946231 C187.696039,64.4747662 193,67.0769769 193,69.9932476 L193,82" id="Stroke-14"></path>
            <polyline id="Stroke-16" points="45 166 45 179 55.3915 175.435372 65.671 179 66 166"></polyline>
            <path d="M21,192 L21,180.007052 C21,177.083879 22.846513,174.478217 25.6145504,173.501526 L45.212532,165.353224 L45.212532,158.450808 L38.176382,150.68559 L38.176382,135.431251 C38.176382,133.42955 39.049405,131.524484 40.5702666,130.213025 L46.9828287,124.684189 C48.2403977,123.60051 49.851333,123 51.5176984,123 L59.4996234,123 C61.1555957,123 62.7526736,123.590157 64.0102425,124.663482 L70.5094141,130.213025 C72.0441332,131.524484 72.9275493,133.439904 72.9275493,135.451958 L72.9275493,150.68559 L65.998795,158.450808 L65.998795,165.353224 L81.9383943,173.494623 C84.6925742,174.474766 90,177.076977 90,179.993248 L90,192" id="Stroke-18"></path>
            <polyline id="Stroke-20" points="148 166 148 179 158.3915 175.435372 168.671 179 169 166"></polyline>
            <path d="M124,192 L124,180.007052 C124,177.083879 125.849977,174.478217 128.61455,173.501526 L148.215996,165.353224 L148.215996,158.450808 L141.176382,150.68559 L141.176382,135.431251 C141.176382,133.42955 142.049405,131.524484 143.570267,130.213025 L149.982829,124.684189 C151.240398,123.60051 152.851333,123 154.517698,123 L162.503088,123 C164.155596,123 165.756138,123.590157 167.010243,124.663482 L173.512878,130.213025 C175.047598,131.524484 175.931014,133.439904 175.931014,135.451958 L175.931014,150.68559 L169.002259,158.450808 L169.002259,165.353224 L184.938394,173.494623 C187.696039,174.474766 193,177.076977 193,179.993248 L193,192" id="Stroke-22"></path>
        </g>
    </g>
</svg>