<?xml version="1.0" encoding="UTF-8"?>
<svg width="260px" height="266px" viewBox="0 0 260 266" version="1.1" xmlns="http://www.w3.org/2000/svg" xmlns:xlink="http://www.w3.org/1999/xlink">
    <!-- Generator: Sketch 49 (51002) - http://www.bohemiancoding.com/sketch -->
    <title>do-1</title>
    <desc>Created with Sketch.</desc>
    <defs></defs>
    <g id="do-1" stroke="none" stroke-width="1" fill="none" fill-rule="evenodd">
        <path d="M130.8354,66.4692 C93.6894,66.4692 63.4694,96.6912 63.4694,133.8382 C63.4694,170.9842 93.6894,201.2042 130.8354,201.2042 C167.9824,201.2042 198.2044,170.9842 198.2044,133.8382 C198.2044,96.6912 167.9824,66.4692 130.8354,66.4692 M130.8354,206.2042 C90.9324,206.2042 58.4694,173.7412 58.4694,133.8382 C58.4694,93.9342 90.9324,61.4692 130.8354,61.4692 C170.7394,61.4692 203.2044,93.9342 203.2044,133.8382 C203.2044,173.7412 170.7394,206.2042 130.8354,206.2042" id="Fill-1" fill="#FF5C3C"></path>
        <path d="M130.8369,66.4692 C109.8389,66.4692 92.7549,96.6912 92.7549,133.8382 C92.7549,170.9842 109.8389,201.2042 130.8369,201.2042 C151.8349,201.2042 168.9189,170.9842 168.9189,133.8382 C168.9189,96.6912 151.8349,66.4692 130.8369,66.4692 M130.8369,206.2042 C119.0689,206.2042 108.1099,198.4942 99.9789,184.4962 C92.0969,170.9252 87.7549,152.9342 87.7549,133.8382 C87.7549,114.7412 92.0969,96.7502 99.9789,83.1772 C108.1099,69.1782 119.0689,61.4692 130.8369,61.4692 C142.6049,61.4692 153.5639,69.1782 161.6949,83.1772 C169.5769,96.7502 173.9189,114.7412 173.9189,133.8382 C173.9189,152.9342 169.5769,170.9252 161.6949,184.4962 C153.5639,198.4942 142.6049,206.2042 130.8369,206.2042" id="Fill-3" fill="#FF5C3C"></path>
        <polygon id="Fill-5" fill="#FF5C3C" points="127.918 203.704 132.918 203.704 132.918 63.969 127.918 63.969"></polygon>
        <polygon id="Fill-7" fill="#FF5C3C" points="66.826 164.367 194.847 164.367 194.847 159.367 66.826 159.367"></polygon>
        <polygon id="Fill-8" fill="#FF5C3C" points="66.826 108.306 194.847 108.306 194.847 103.306 66.826 103.306"></polygon>
        <path d="M109.49,233 L150.51,233 L150.51,218.755 L109.49,218.755 L109.49,233 Z M104.49,238 L155.51,238 L155.51,213.755 L104.49,213.755 L104.49,238 Z" id="Fill-9" fill="#FF5C3C"></path>
        <path d="M109.49,47.245 L150.51,47.245 L150.51,33 L109.49,33 L109.49,47.245 Z M104.49,52.245 L155.51,52.245 L155.51,28 L104.49,28 L104.49,52.245 Z" id="Fill-10" fill="#FF5C3C"></path>
        <path d="M188.98,233 L230,233 L230,218.755 L188.98,218.755 L188.98,233 Z M183.98,238 L235,238 L235,213.755 L183.98,213.755 L183.98,238 Z" id="Fill-11" fill="#FF5C3C"></path>
        <polygon id="Fill-12" fill="#FF5C3C" points="212.4082 216.2554 207.4082 216.2554 207.4082 196.7254 187.2072 176.1714 190.7732 172.6664 212.4082 194.6794"></polygon>
        <path d="M30,233 L71.021,233 L71.021,218.755 L30,218.755 L30,233 Z M25,238 L76.021,238 L76.021,213.755 L25,213.755 L25,238 Z" id="Fill-13" fill="#FF5C3C"></path>
        <polygon id="Fill-14" fill="#FF5C3C" points="53.4287 216.2554 48.4287 216.2554 48.4287 194.6794 70.0637 172.6664 73.6307 176.1714 53.4287 196.7254"></polygon>
        <path d="M188.98,47.245 L230,47.245 L230,33 L188.98,33 L188.98,47.245 Z M183.98,52.245 L235,52.245 L235,28 L183.98,28 L183.98,52.245 Z" id="Fill-15" fill="#FF5C3C"></path>
        <polygon id="Fill-16" fill="#FF5C3C" points="189.917 96.7007 186.39 93.1567 208.245 71.4087 208.245 51.4187 213.245 51.4187 213.245 73.4867"></polygon>
        <path d="M30,47.245 L71.021,47.245 L71.021,33 L30,33 L30,47.245 Z M25,52.245 L76.021,52.245 L76.021,28 L25,28 L25,52.245 Z" id="Fill-17" fill="#FF5C3C"></path>
        <polygon id="Fill-18" fill="#FF5C3C" points="71.7993 95.0684 48.4283 72.8774 48.4283 51.4184 53.4283 51.4184 53.4283 70.7304 75.2413 91.4424"></polygon>
        <polygon id="Fill-19" fill="#FF5C3C" points="132.9185 66.4878 127.9185 66.4708 127.9685 51.4098 132.9685 51.4268"></polygon>
        <path d="M215.755,153.51 L230,153.51 L230,112.489 L215.755,112.489 L215.755,153.51 Z M210.755,158.51 L235,158.51 L235,107.489 L210.755,107.489 L210.755,158.51 Z" id="Fill-20" fill="#FF5C3C"></path>
        <path d="M30,153.51 L44.245,153.51 L44.245,112.489 L30,112.489 L30,153.51 Z M25,158.51 L49.245,158.51 L49.245,107.489 L25,107.489 L25,158.51 Z" id="Fill-21" fill="#FF5C3C"></path>
        <polygon id="Fill-22" fill="#FF5C3C" points="63.4717 135.9687 48.4097 135.9187 48.4267 130.9187 63.4887 130.9687"></polygon>
        <polygon id="Fill-23" fill="#FF5C3C" points="200.704 135.918 213.255 135.918 213.255 130.918 200.704 130.918"></polygon>
        <polygon id="Fill-24" fill="#FF5C3C" points="127.918 216.255 132.918 216.255 132.918 203.704 127.918 203.704"></polygon>
        <rect id="mask" x="0" y="0" width="260" height="266"></rect>
    </g>
</svg>