<?xml version="1.0" encoding="UTF-8"?>
<svg width="260px" height="266px" viewBox="0 0 260 266" version="1.1" xmlns="http://www.w3.org/2000/svg" xmlns:xlink="http://www.w3.org/1999/xlink">
    <!-- Generator: Sketch 49 (51002) - http://www.bohemiancoding.com/sketch -->
    <title>do-2</title>
    <desc>Created with Sketch.</desc>
    <defs></defs>
    <g id="do-2" stroke="none" stroke-width="1" fill="none" fill-rule="evenodd">
        <polygon id="Fill-1" fill="#FF5C3C" points="193.9111 136.3841 190.4161 132.8081 199.3631 124.0631 199.3631 122.2291 191.0981 113.4331 194.7421 110.0091 204.3631 120.2481 204.3631 126.1661"></polygon>
        <polygon id="Fill-2" fill="#FF5C3C" points="38 41.0002 38 161.8602 147.019 161.8602 147.019 156.8612 43 156.8612 43 46.0002 216.492 46.0002 216.492 103.9672 221.492 103.9672 221.492 41.0002"></polygon>
        <path d="M157.2451,225.9827 L152.2451,225.9827 L152.2481,119.4407 L137.8411,134.9487 L127.3691,135.0647 L107.6951,114.7927 C103.6331,110.6077 103.6731,103.8387 107.7851,99.7027 C109.8041,97.6707 112.4911,96.5517 115.3501,96.5517 C118.2091,96.5517 120.8961,97.6707 122.9151,99.7027 L132.5581,109.4037 L145.9371,94.9347 L163.7921,86.3357 L163.7921,83.0597 L158.0351,76.5427 L158.0351,61.9027 L168.6341,52.7597 L178.5311,52.7597 L189.0341,61.9107 L189.0341,76.5527 L183.1841,83.0707 L183.1841,86.1327 L199.4341,91.8197 L221.0011,118.7247 L221.0011,130.5147 L194.6711,157.9417 L194.6711,225.9827 L189.6711,225.9827 L189.6711,155.9297 L216.0011,128.5037 L216.0011,120.4807 L196.4291,96.0657 L178.1841,89.6797 L178.1841,81.1567 L184.0341,74.6387 L184.0341,64.1857 L176.6581,57.7597 L170.4921,57.7597 L163.0351,64.1937 L163.0351,74.6497 L168.7921,81.1677 L168.7921,89.4777 L148.9631,99.0267 L132.6891,116.6287 L119.3701,103.2277 C118.2951,102.1467 116.8681,101.5517 115.3501,101.5517 C113.8321,101.5517 112.4051,102.1467 111.3301,103.2277 C109.1281,105.4427 109.1071,109.0687 111.2831,111.3097 L129.4601,130.0417 L135.6391,129.9717 L150.8911,113.5547 L155.9031,113.5547 L157.2481,115.3907 L157.2451,225.9827 Z" id="Fill-3" fill="#FF5C3C"></path>
        <polygon id="Fill-5" fill="#FF5C3C" points="107.7842 103.2278 84.7532 80.0558 88.2992 76.5308 111.3302 99.7028"></polygon>
        <polygon id="Fill-7" fill="#FF5C3C" points="57.775 66.434 80.984 66.434 80.984 61.434 57.775 61.434"></polygon>
        <polygon id="Fill-9" fill="#FF5C3C" points="57.775 78.02 80.984 78.02 80.984 73.02 57.775 73.02"></polygon>
        <polygon id="Fill-10" fill="#FF5C3C" points="57.775 89.606 80.984 89.606 80.984 84.606 57.775 84.606"></polygon>
        <path d="M145.4258,226.096 L140.4258,226.096 L140.4258,224.606 L127.1798,216.554 L127.1798,208.409 L132.9378,201.891 L132.9378,190.052 C132.9378,189.086 132.5218,188.174 131.7968,187.55 L126.3948,182.891 C125.8048,182.382 125.0528,182.102 124.2798,182.102 L117.6458,182.102 C116.8668,182.102 116.1108,182.386 115.5178,182.902 L110.1918,187.543 C109.4718,188.169 109.0598,189.077 109.0598,190.034 L109.0598,201.88 L114.9058,208.398 L114.9058,216.383 L102.7278,225.7 L96.1718,225.7 L81.1258,216.554 L81.1258,208.409 L86.8838,201.891 L86.8838,190.052 C86.8838,189.087 86.4678,188.175 85.7408,187.548 L80.3408,182.891 C79.7508,182.382 78.9988,182.102 78.2248,182.102 L71.5928,182.102 C70.8128,182.102 70.0568,182.386 69.4648,182.901 L64.1378,187.543 C63.4178,188.17 63.0058,189.077 63.0058,190.034 L63.0058,201.88 L68.8528,208.398 L68.8528,216.611 L54.3138,224.784 L54.3138,225.975 L49.3138,225.975 L49.3138,221.859 L63.8528,213.685 L63.8528,210.312 L58.0058,203.794 L58.0058,190.034 C58.0058,187.63 59.0438,185.348 60.8538,183.773 L66.1808,179.13 C67.6848,177.822 69.6068,177.102 71.5928,177.102 L78.2248,177.102 C80.1968,177.102 82.1078,177.813 83.6058,179.104 L89.0078,183.762 C90.8358,185.34 91.8838,187.632 91.8838,190.052 L91.8838,203.784 L86.1258,210.301 L86.1258,213.742 L97.5718,220.7 L101.0348,220.7 L109.9058,213.912 L109.9058,210.312 L104.0598,203.794 L104.0598,190.034 C104.0598,187.63 105.0978,185.348 106.9078,183.773 L112.2348,179.13 C113.7398,177.822 115.6608,177.102 117.6458,177.102 L124.2798,177.102 C126.2508,177.102 128.1608,177.813 129.6588,179.104 L135.0608,183.762 C136.8888,185.336 137.9378,187.629 137.9378,190.052 L137.9378,203.784 L132.1798,210.301 L132.1798,213.742 L145.4258,221.793 L145.4258,226.096 Z" id="Fill-11" fill="#FF5C3C"></path>
        <polygon id="Fill-12" fill="#FF5C3C" points="57.792 150.288 103.855 150.288 103.855 145.288 57.792 145.288"></polygon>
        <polygon id="Fill-13" fill="#FF5C3C" points="57.792 138.702 103.855 138.702 103.855 133.702 57.792 133.702"></polygon>
        <polygon id="Fill-14" fill="#FF5C3C" points="57.792 127.117 103.855 127.117 103.855 122.117 57.792 122.117"></polygon>
        <polygon id="Fill-15" fill="#FF5C3C" points="98.098 63.393 144.16 63.393 144.16 58.393 98.098 58.393"></polygon>
        <polygon id="Fill-16" fill="#FF5C3C" points="98.098 74.979 144.16 74.979 144.16 69.979 98.098 69.979"></polygon>
        <rect id="mask" x="0" y="0" width="260" height="266"></rect>
    </g>
</svg>