<?xml version="1.0" encoding="UTF-8"?>
<svg width="43px" height="43px" viewBox="0 0 43 43" version="1.1" xmlns="http://www.w3.org/2000/svg" xmlns:xlink="http://www.w3.org/1999/xlink">
    <!-- Generator: Sketch 49 (51002) - http://www.bohemiancoding.com/sketch -->
    <title>facebook</title>
    <desc>Created with Sketch.</desc>
    <defs></defs>
    <g id="Page-1" stroke="none" stroke-width="1" fill="none" fill-rule="evenodd">
        <g id="Red-Copy-2" transform="translate(-1250.000000, -14934.000000)" fill="#FBFBFB">
            <g id="底栏" transform="translate(0.000000, 14808.000000)">
                <path d="M1255,126 L1288,126 C1290.76142,126 1293,128.238576 1293,131 L1293,164 C1293,166.761424 1290.76142,169 1288,169 L1255,169 C1252.23858,169 1250,166.761424 1250,164 L1250,131 C1250,128.238576 1252.23858,126 1255,126 Z M1268.15699,158.966667 L1268.1487,158.966667 L1272.66337,158.966667 L1272.66337,148.479037 L1276.47689,148.479037 L1277.0463,144.467375 L1272.66337,144.467375 L1272.66337,141.869346 C1272.66337,140.684951 1273.00612,139.882618 1274.83779,139.882618 L1277.23333,139.882618 L1277.23333,136.186159 C1276.82886,136.138401 1275.41364,136.033333 1273.80126,136.033333 C1270.43368,136.033333 1268.15791,137.9532 1268.15791,141.439525 L1268.15791,144.467375 L1264.33333,144.467375 L1264.33333,148.479037 L1268.15699,148.479037 L1268.15699,158.966667 Z" id="facebook"></path>
            </g>
        </g>
    </g>
</svg>