<?xml version="1.0" encoding="UTF-8"?>
<svg width="70px" height="70px" viewBox="0 0 70 70" version="1.1" xmlns="http://www.w3.org/2000/svg" xmlns:xlink="http://www.w3.org/1999/xlink">
    <!-- Generator: Sketch 49 (51002) - http://www.bohemiancoding.com/sketch -->
    <title>life-cycle-2</title>
    <desc>Created with Sketch.</desc>
    <defs></defs>
    <g id="life-cycle-2" stroke="none" stroke-width="1" fill="none" fill-rule="evenodd">
        <path d="M50.5348732,54.8984366 L19.2034648,60.9559014 L11.8179718,60.9559014 L11.8179718,53.2618169 L20.0119155,45.0668873 C21.1200845,43.9597042 22.5920563,43.3504085 24.1586761,43.3504085 L43.3643099,43.3504085 C42.9048732,45.9088592 40.7043099,47.9151972 38.1517746,47.9151972 L31.4652958,47.9151972 L31.4652958,49.8870282 L49.7974085,49.8870282 L61.072338,44.0898451 C63.1674085,42.8682958 65.4931831,43.0230845 67.5202254,44.4950563 L50.5348732,54.8984366 Z M69.2051549,43.3099859 C66.4485352,41.0078732 63.0372676,40.6637887 60.1258592,42.3605493 L49.3202254,47.9151972 L43.001493,47.9151972 C44.4783944,46.5280141 45.4229014,44.5354789 45.4229014,42.364493 L45.4229014,41.3785775 L24.1586761,41.3785775 C22.0665634,41.3785775 20.0986761,42.1929437 18.617831,43.6728028 L11.8179718,50.4736479 L11.8179718,50.0891408 L-0.000197183099,50.0891408 L-0.000197183099,52.0609718 L9.84614085,52.0609718 L9.84614085,52.4454789 L9.84614085,62.9277324 L9.84614085,67.4757606 L-0.000197183099,67.4757606 L-0.000197183099,69.4475915 L11.8179718,69.4475915 L11.8179718,62.9277324 L19.3917746,62.9277324 L51.0850141,56.8002676 L51.260507,56.7667465 L69.0247324,45.8851972 C69.4565634,45.6229437 69.7385352,45.163507 69.776,44.6577324 C69.8144507,44.1450563 69.600507,43.6412535 69.2051549,43.3099859 Z" id="Fill-1" fill="#FEFEFE"></path>
        <path d="M54.203169,27.9330563 C56.1326056,27.9330563 57.703169,29.5036197 57.703169,31.4340423 C57.703169,33.3644648 56.1326056,34.9350282 54.203169,34.9350282 C52.2737324,34.9350282 50.703169,33.3644648 50.703169,31.4340423 C50.703169,29.5036197 52.2737324,27.9330563 54.203169,27.9330563 M54.203169,36.9068592 C57.2210563,36.9068592 59.675,34.4509437 59.675,31.4340423 C59.675,28.4161549 57.2210563,25.9612254 54.203169,25.9612254 C51.1852817,25.9612254 48.731338,28.4161549 48.731338,31.4340423 C48.731338,34.4509437 51.1852817,36.9068592 54.203169,36.9068592" id="Fill-4" fill="#FEFEFE"></path>
        <path d="M43.4245493,2.00071831 C45.3539859,2.00071831 46.9245493,3.57128169 46.9245493,5.50071831 C46.9245493,7.43114085 45.3539859,9.00170423 43.4245493,9.00170423 C41.4951127,9.00170423 39.9245493,7.43114085 39.9245493,5.50071831 C39.9245493,3.57128169 41.4951127,2.00071831 43.4245493,2.00071831 M43.4245493,10.9735352 C46.4424366,10.9735352 48.8963803,8.51761972 48.8963803,5.50071831 C48.8963803,2.48283099 46.4424366,0.0288873239 43.4245493,0.0288873239 C40.406662,0.0288873239 37.9527183,2.48283099 37.9527183,5.50071831 C37.9527183,8.51761972 40.406662,10.9735352 43.4245493,10.9735352" id="Fill-6" fill="#FEFEFE"></path>
        <polygon id="Fill-8" fill="#FEFEFE" points="5.53591549 65.1882394 7.50774648 65.1882394 7.50774648 62.9403521 5.53591549 62.9403521"></polygon>
        <polygon id="Fill-10" fill="#FEFEFE" points="25.0964789 1.07415493 27.0683099 1.07415493 27.0683099 0.000492957746 25.0964789 0.000492957746"></polygon>
        <polygon id="Fill-11" fill="#FEFEFE" points="25.0964789 5.01683099 27.0683099 5.01683099 27.0683099 3.045 25.0964789 3.045"></polygon>
        <polygon id="Fill-12" fill="#FEFEFE" points="25.0964789 12.9041549 27.0683099 12.9041549 27.0683099 10.9323239 25.0964789 10.9323239"></polygon>
        <polygon id="Fill-13" fill="#FEFEFE" points="25.0964789 8.96049296 27.0683099 8.96049296 27.0683099 6.98866197 25.0964789 6.98866197"></polygon>
        <polygon id="Fill-14" fill="#FEFEFE" points="53.2177465 23.8280986 55.1895775 23.8280986 55.1895775 21.8562676 53.2177465 21.8562676"></polygon>
        <polygon id="Fill-15" fill="#FEFEFE" points="53.2177465 15.9407746 55.1895775 15.9407746 55.1895775 13.9689437 53.2177465 13.9689437"></polygon>
        <polygon id="Fill-16" fill="#FEFEFE" points="53.2177465 19.8844366 55.1895775 19.8844366 55.1895775 17.9126056 53.2177465 17.9126056"></polygon>
        <polygon id="Fill-17" fill="#FEFEFE" points="53.2177465 11.9971127 55.1895775 11.9971127 55.1895775 10.9234507 53.2177465 10.9234507"></polygon>
        <path d="M14,30.5165493 L38.1638028,30.5165493 L38.1638028,17.2747183 L14,17.2747183 L14,30.5165493 Z M12.028169,32.4883803 L40.1356338,32.4883803 L40.1356338,15.3028873 L12.028169,15.3028873 L12.028169,32.4883803 Z" id="Fill-18" fill="#FEFEFE"></path>
        <path d="M26.1219296,21.6092958 C27.3750282,21.6092958 28.3964366,22.6297183 28.3964366,23.8838028 C28.3964366,25.1369014 27.3750282,26.1573239 26.1219296,26.1573239 C24.868831,26.1573239 23.8474225,25.1369014 23.8474225,23.8838028 C23.8474225,22.6297183 24.868831,21.6092958 26.1219296,21.6092958 M26.1219296,28.1291549 C28.4634789,28.1291549 30.3682676,26.2253521 30.3682676,23.8838028 C30.3682676,21.5422535 28.4634789,19.6374648 26.1219296,19.6374648 C23.7803803,19.6374648 21.8755915,21.5422535 21.8755915,23.8838028 C21.8755915,26.2253521 23.7803803,28.1291549 26.1219296,28.1291549" id="Fill-19" fill="#FEFEFE"></path>
        <polygon id="Fill-20" fill="#FEFEFE" points="32.608169 24.8140141 35.8291549 24.8140141 35.8291549 22.8421831 32.608169 22.8421831"></polygon>
        <polygon id="Fill-21" fill="#FEFEFE" points="16.2676056 24.8810563 19.5684507 24.8810563 19.5684507 22.9092254 16.2676056 22.9092254"></polygon>
    </g>
</svg>