<?xml version="1.0" encoding="UTF-8"?>
<svg width="833px" height="833px" viewBox="0 0 833 833" version="1.1" xmlns="http://www.w3.org/2000/svg" xmlns:xlink="http://www.w3.org/1999/xlink">
    <!-- Generator: Sketch 49 (51002) - http://www.bohemiancoding.com/sketch -->
    <title>life-cycle-bg</title>
    <desc>Created with Sketch.</desc>
    <defs></defs>
    <g id="Page-1" stroke="none" stroke-width="1" fill="none" fill-rule="evenodd" opacity="0.049999997">
        <g id="Life-Cycle" transform="translate(-384.000000, -7726.000000)" fill="#FFFFFF">
            <g transform="translate(0.000000, 7407.000000)" id="life-cycle-bg">
                <g>
                    <path d="M961.059471,882.251225 L787.059339,882.251225 C745.796915,882.251225 708.766237,859.44617 693.810202,824.838601 L591.622225,588.243407 L591.599037,588.243407 L545.757052,482.113529 L639.365598,588.243407 L813.446886,588.243407 C854.70931,588.243407 891.739989,611.036867 906.696023,645.65603 L1008.884,882.251225 L1008.83762,882.251225 L1054.67961,988.381102 L961.059471,882.251225 Z M800.253113,319 C570.359149,319 384,505.359149 384,735.241519 C384,965.135482 570.359149,1151.50623 800.253113,1151.50623 C1030.13548,1151.50623 1216.49463,965.135482 1216.49463,735.241519 C1216.49463,505.359149 1030.13548,319 800.253113,319 Z"></path>
                </g>
            </g>
        </g>
    </g>
</svg>