<?xml version="1.0" encoding="UTF-8"?>
<svg width="70px" height="70px" viewBox="0 0 70 70" version="1.1" xmlns="http://www.w3.org/2000/svg" xmlns:xlink="http://www.w3.org/1999/xlink">
    <!-- Generator: Sketch 49 (51002) - http://www.bohemiancoding.com/sketch -->
    <title>life-cycle-4</title>
    <desc>Created with Sketch.</desc>
    <defs></defs>
    <g id="life-cycle-4" stroke="none" stroke-width="1" fill="none" fill-rule="evenodd">
        <polygon id="Fill-1" fill="#FEFEFE" points="32.5185 6.00009722 29.1225278 9.80634722 29.1225278 13.9596806 30.9357222 16.4213472 30.9357222 17.7727361 23.9843333 22.4345417 23.9843333 28.4127361 25.9287778 28.4127361 25.9287778 23.4709306 32.8801667 18.809125 32.8801667 15.7825972 31.0679444 13.3219028 31.0679444 10.5462083 33.3896111 7.94454167 35.9689167 7.94454167 38.5540556 10.5744028 38.5540556 13.2781528 36.4190556 15.7388472 36.4190556 18.8169028 43.5687778 23.4796806 43.5687778 28.4127361 45.5132222 28.4127361 45.5132222 22.4267639 38.3635 17.7639861 38.3635 16.464125 40.4994722 14.0034306 40.4994722 9.77815278 36.7836389 6.00009722"></polygon>
        <path d="M17.444875,30.7048472 L17.444875,37.003875 L31.5955694,37.003875 L31.5955694,62.8649861 L33.5400139,62.8649861 L33.5400139,37.003875 L35.9491806,37.003875 L35.9491806,62.8649861 L37.893625,62.8649861 L37.893625,37.003875 L52.0404306,37.003875 L52.0404306,30.7048472 L17.444875,30.7048472 Z M19.3893194,35.0604028 L50.0969583,35.0604028 L50.0969583,32.6502639 L19.3893194,32.6502639 L19.3893194,35.0604028 Z" id="Fill-2" fill="#FEFEFE"></path>
        <path d="M67.5152917,20.7911944 L67.5152917,33.7343889 L65.5504306,41.5909167 L64.2952917,41.5909167 L65.1070972,21.4814722 L64.2087639,18.0961944 L63.3289028,15.4011944 L63.5797361,15.1970278 C64.3934861,14.3949444 64.8601528,13.2798056 64.8601528,12.1384167 C64.8601528,9.77202778 62.9341806,7.848 60.5677917,7.848 L58.4872361,7.848 C57.3176528,7.848 56.2044583,8.35063889 55.4344583,9.22758333 C54.7820972,9.96938889 54.4233472,10.9231389 54.4233472,11.9109167 L54.4233472,17.1395278 L56.9627917,17.9863333 L56.9627917,18.5307778 L54.5380694,21.9734167 L54.0675139,36.9582778 L43.4158472,42.1373056 L43.4158472,58.9664722 L45.3602917,58.9664722 L45.3602917,43.3545278 L55.9740417,38.1920278 L56.4640417,22.6170278 L58.9072361,19.1461944 L58.9072361,16.5853611 L56.3677917,15.7385556 L56.3677917,11.9109167 C56.3677917,11.3956389 56.5554306,10.8978611 56.8957083,10.5118889 C57.2962639,10.0539722 57.8766806,9.79244444 58.4872361,9.79244444 L60.5677917,9.79244444 C61.8627917,9.79244444 62.9157083,10.8443889 62.9157083,12.1384167 C62.9157083,12.7470278 62.673625,13.3410556 62.2497361,13.7766111 L61.0597361,14.7118889 L62.3440417,18.6464722 L62.9934861,21.0906389 L62.0864028,21.0906389 C59.9951528,21.0906389 58.2927917,22.793 58.2927917,24.88425 L58.2927917,38.2095278 C58.2927917,39.5959167 59.4205694,40.7227222 60.8069583,40.7227222 L60.8069583,38.7782778 C60.4919583,38.7782778 60.2372361,38.5225833 60.2372361,38.2095278 L60.2372361,24.88425 C60.2372361,23.8643889 61.0665417,23.0350833 62.0864028,23.0350833 L63.0994583,23.0350833 L62.3440417,41.7474444 L56.4582083,42.8324444 L48.3595972,45.5371667 L48.3595972,60.803 L41.271125,60.803 L41.271125,62.7474444 L50.3040417,62.7474444 L50.3040417,46.9371667 L56.8791806,44.7321667 L63.373625,43.5353611 L65.3375139,43.5353611 L65.3375139,45.9435556 L55.4247361,45.9435556 L55.4247361,47.888 L59.8950139,47.888 L59.8950139,56.33175 L61.8394583,56.33175 L61.8394583,47.888 L67.2819583,47.888 L67.2819583,42.6875833 L69.4305694,34.0902222 L69.4597361,20.7911944 L67.5152917,20.7911944 Z" id="Fill-3" fill="#FEFEFE"></path>
        <polygon id="Fill-6" fill="#FEFEFE" points="59.5912917 57.5353611 53.3651806 60.0271667 53.3651806 62.8621667 55.309625 62.8621667 55.309625 61.3425833 59.9655972 59.4798056 61.7680972 59.4798056 66.4250417 61.3425833 66.4250417 62.8621667 68.3694861 62.8621667 68.3694861 60.0271667 62.1424028 57.5353611"></polygon>
        <path d="M21.1002361,45.5373611 L13.1357917,42.8666667 L7.11579167,41.7476389 L6.360375,23.0343056 L7.37440278,23.0343056 C8.39426389,23.0343056 9.22259722,23.8645833 9.22259722,24.8844444 L9.22259722,38.2097222 C9.22259722,38.5227778 8.967875,38.7784722 8.652875,38.7784722 L8.652875,40.7229167 C10.0392639,40.7229167 11.1670417,39.5961111 11.1670417,38.2097222 L11.1670417,24.8844444 C11.1670417,22.7922222 9.46565278,21.0898611 7.37440278,21.0898611 L6.46634722,21.0898611 L7.10023611,18.6991667 L8.40106944,14.7120833 L7.21009722,13.7758333 C6.78620833,13.34125 6.544125,12.74625 6.544125,12.1376389 C6.544125,10.8436111 7.59704167,9.79166667 8.89204167,9.79166667 L10.9735694,9.79166667 C11.5831528,9.79166667 12.1635694,10.0541667 12.5650972,10.5130556 C12.905375,10.8990278 13.0930139,11.3958333 13.0930139,11.9111111 L13.0930139,15.73875 L10.5525972,16.5855556 L10.5525972,19.1454167 L12.9957917,22.6172222 L13.4857917,38.1922222 L24.1005139,43.3547222 L24.1005139,58.9666667 L26.0449583,58.9666667 L26.0449583,42.1375 L15.3923194,36.9584722 L14.9217639,21.9736111 L12.4970417,18.5309722 L12.4970417,17.9865278 L15.0374583,17.1397222 L15.0374583,11.9111111 C15.0374583,10.9223611 14.6777361,9.96861111 14.0263472,9.22777778 C13.255375,8.35083333 12.1421806,7.84722222 10.9735694,7.84722222 L8.89204167,7.84722222 C6.52565278,7.84722222 4.59968056,9.77222222 4.59968056,12.1376389 C4.59968056,13.28 5.06634722,14.3951389 5.88009722,15.1972222 L6.13190278,15.4013889 L5.23648611,18.1469444 L4.35176389,21.4816667 L5.16356944,41.5901389 L3.90843056,41.5901389 L1.94454167,33.7345833 L1.94454167,20.7913889 L9.72222222e-05,20.7913889 L9.72222222e-05,33.8541667 L2.177875,42.6780556 L2.177875,47.8881944 L7.62134722,47.8881944 L7.62134722,56.3319444 L9.56579167,56.3319444 L9.56579167,47.8881944 L14.034125,47.8881944 L14.034125,45.94375 L4.12231944,45.94375 L4.12231944,43.5345833 L6.08620833,43.5345833 L12.581625,44.7323611 L19.1557917,46.9363889 L19.1557917,62.7476389 L28.1887083,62.7476389 L28.1887083,60.8031944 L21.1002361,60.8031944 L21.1002361,45.5373611 Z" id="Fill-8" fill="#FEFEFE"></path>
        <polygon id="Fill-10" fill="#FEFEFE" points="7.31733333 57.5353611 1.09025 60.0271667 1.09025 62.8621667 3.03469444 62.8621667 3.03469444 61.3425833 7.69163889 59.4798056 9.49413889 59.4798056 14.1501111 61.3425833 14.1501111 62.8621667 16.0945556 62.8621667 16.0945556 60.0271667 9.86844444 57.5353611"></polygon>
    </g>
</svg>