<?xml version="1.0" encoding="utf-8"?>
<!-- Generator: Adobe Illustrator 16.0.0, SVG Export Plug-In . SVG Version: 6.00 Build 0)  -->
<!DOCTYPE svg PUBLIC "-//W3C//DTD SVG 1.1//EN" "http://www.w3.org/Graphics/SVG/1.1/DTD/svg11.dtd">
<svg version="1.1" id="图层_1" xmlns="http://www.w3.org/2000/svg" xmlns:xlink="http://www.w3.org/1999/xlink" x="0px" y="0px"
	 width="70px" height="70px" viewBox="0 0 70 70" enable-background="new 0 0 70 70" xml:space="preserve">
<title>life-cycle</title>
<desc>Created with Sketch.</desc>
<g id="life-cycle">
	<path id="Fill-1" fill="#FF5C3C" d="M1.267,68.029L1.225,29.861l3.426,0.002v28.879h0.007l0.045,6.105l60.651,0.013l-0.044-6.464
		h0.529V29.87l2.65,0.002l0.041,38.169L1.267,68.029z M5.875,57.518V21.294l17.595,0.004v-0.093
		c0.758,1.182,1.698,2.256,2.807,3.176c0.016,0.014,1.592,1.385,1.592,3.51l0.003,2.948h-1.44l0.007,4.713l1.708,2.775v4.749h13.951
		v-4.69l1.714-2.865v-4.07l-0.012-0.612h-1.429v-3.696c0.164-1.342,0.802-2.01,1.226-2.452l0.052-0.056
		c1.325-1.036,2.423-2.277,3.272-3.658v0.071l17.694,0.005v36.118l-23.792-0.005c-2.113,0-3.98,1.063-5.09,2.676V45.646h-1.223
		v13.79c-1.133-1.382-2.856-2.272-4.772-2.272L5.875,57.518z M41.088,37.692H29.194l-1.53-2.486l-0.004-3.143h0.216h14.497h0.216
		v3.121L41.088,37.692z M29.371,41.854h11.504v-2.938H29.371V41.854z M35.125,1.224c6.95,0,12.604,5.634,12.604,12.56
		c0,3.899-1.773,7.513-4.866,9.915l-0.149,0.148c-0.475,0.496-1.355,1.418-1.561,3.192l-0.004,3.802H29.097l-0.004-2.949
		c0-2.706-1.943-4.374-2.03-4.447c-2.889-2.395-4.545-5.916-4.545-9.661C22.52,6.858,28.174,1.224,35.125,1.224z M29.739,58.387
		c2.286,0.002,4.228,1.576,4.772,3.684v0.709h0.129c0.014,0.135,0.025,0.271,0.027,0.408l0.001,0.09l1.224-0.008
		c0-2.689,2.213-4.879,4.932-4.879l23.263,0.006l0.036,5.24L5.917,63.624l-0.036-4.883L29.739,58.387z M69.712,28.65l-3.872-0.004
		v-8.815l-18.277-0.005c0.905-1.852,1.389-3.908,1.389-6.042C48.951,6.183,42.748,0,35.125,0C27.5,0,21.295,6.183,21.294,13.783
		c0,2.222,0.536,4.37,1.523,6.291L4.651,20.07v8.57L0,28.636l0.044,40.617l69.1,0.013h0.612L69.712,28.65z"/>
	<polygon id="Fill-4" fill="#FF5C3C" points="10.893,51.889 28.515,51.889 28.515,50.664 10.893,50.664 	"/>
	<polygon id="Fill-6" fill="#FF5C3C" points="10.893,47.482 28.515,47.482 28.515,46.259 10.893,46.259 	"/>
	<polygon id="Fill-7" fill="#FF5C3C" points="10.893,43.077 25.088,43.077 25.088,41.854 10.893,41.854 	"/>
	<polygon id="Fill-8" fill="#FF5C3C" points="10.893,38.672 24.354,38.672 24.354,37.447 10.893,37.447 	"/>
	<polygon id="Fill-9" fill="#FF5C3C" points="10.893,34.266 24.354,34.266 24.354,33.042 10.893,33.042 	"/>
	<polygon id="Fill-10" fill="#FF5C3C" points="10.893,29.86 24.354,29.86 24.354,28.636 10.893,28.636 	"/>
	<polygon id="Fill-11" fill="#FF5C3C" points="41.731,51.889 59.354,51.889 59.354,50.664 41.731,50.664 	"/>
	<polygon id="Fill-12" fill="#FF5C3C" points="41.731,47.482 59.354,47.482 59.354,46.259 41.731,46.259 	"/>
	<polygon id="Fill-13" fill="#FF5C3C" points="45.158,43.077 59.354,43.077 59.354,41.854 45.158,41.854 	"/>
	<polygon id="Fill-14" fill="#FF5C3C" points="46.137,38.672 59.599,38.672 59.599,37.447 46.137,37.447 	"/>
	<polygon id="Fill-15" fill="#FF5C3C" points="46.137,34.266 59.599,34.266 59.599,33.042 46.137,33.042 	"/>
	<polygon id="Fill-16" fill="#FF5C3C" points="46.137,29.86 59.599,29.86 59.599,28.636 46.137,28.636 	"/>
	<path id="Fill-17" fill="#FF5C3C" d="M28.646,13.119c1.014-0.991,2.663-0.991,3.677,0c1.484,1.452,3.902,1.452,5.387,0l0.142-0.137
		c1.012-0.991,2.66-0.992,3.675,0l1.245,1.218l0.856-0.875l-1.246-1.218c-1.485-1.453-3.902-1.453-5.387,0l-0.14,0.137
		c-1.016,0.991-2.665,0.991-3.677,0c-1.485-1.453-3.902-1.453-5.388,0l-1.172,1.147l0.856,0.875L28.646,13.119z"/>
	<polygon id="Fill-18" fill="#FF5C3C" points="10.893,14.44 17.501,14.44 17.501,13.217 10.893,13.217 	"/>
	<polygon id="Fill-19" fill="#FF5C3C" points="52.746,14.44 59.354,14.44 59.354,13.217 52.746,13.217 	"/>
	<polygon id="Fill-20" fill="#FF5C3C" points="56.49,2.358 55.854,1.313 50.225,4.74 50.861,5.785 	"/>
	<polygon id="Fill-21" fill="#FF5C3C" points="20.021,4.739 14.392,1.313 13.756,2.358 19.385,5.785 	"/>
</g>
</svg>
