<?xml version="1.0" encoding="UTF-8"?>
<svg width="70px" height="70px" viewBox="0 0 70 70" version="1.1" xmlns="http://www.w3.org/2000/svg" xmlns:xlink="http://www.w3.org/1999/xlink">
    <!-- Generator: Sketch 49 (51002) - http://www.bohemiancoding.com/sketch -->
    <title>life-cycle-3</title>
    <desc>Created with Sketch.</desc>
    <defs></defs>
    <g id="life-cycle-3" stroke="none" stroke-width="1" fill="none" fill-rule="evenodd">
        <path d="M34.8699167,33.0507917 C32.9672778,33.0507917 31.4195,31.5030139 31.4195,29.600375 C31.4195,27.6977361 32.9672778,26.1489861 34.8699167,26.1489861 C36.7725556,26.1489861 38.3203333,27.6977361 38.3203333,29.600375 C38.3203333,31.5030139 36.7725556,33.0507917 34.8699167,33.0507917 M34.8699167,24.2045417 C31.8949167,24.2045417 29.4750556,26.625375 29.4750556,29.600375 C29.4750556,32.575375 31.8949167,34.9952361 34.8699167,34.9952361 C37.8449167,34.9952361 40.2647778,32.575375 40.2647778,29.600375 C40.2647778,26.625375 37.8449167,24.2045417 34.8699167,24.2045417" id="Fill-1" fill="#FEFEFE"></path>
        <polygon id="Fill-3" fill="#FEFEFE" points="21.7379167 26.0582778 26.1265278 26.0582778 26.1265278 24.1138333 21.7379167 24.1138333"></polygon>
        <polygon id="Fill-5" fill="#FEFEFE" points="21.7379167 30.4478611 26.1265278 30.4478611 26.1265278 28.5034167 21.7379167 28.5034167"></polygon>
        <polygon id="Fill-6" fill="#FEFEFE" points="21.7379167 34.8355 26.1265278 34.8355 26.1265278 32.8910556 21.7379167 32.8910556"></polygon>
        <polygon id="Fill-7" fill="#FEFEFE" points="43.6809722 26.0582778 48.0705556 26.0582778 48.0705556 24.1138333 43.6809722 24.1138333"></polygon>
        <polygon id="Fill-8" fill="#FEFEFE" points="43.6809722 30.4478611 48.0705556 30.4478611 48.0705556 28.5034167 43.6809722 28.5034167"></polygon>
        <polygon id="Fill-9" fill="#FEFEFE" points="43.6809722 34.8355 48.0705556 34.8355 48.0705556 32.8910556 43.6809722 32.8910556"></polygon>
        <path d="M69.9677222,34.9828889 C69.9677222,28.8831667 68.3723056,22.8748333 65.3545278,17.6092778 L63.6686944,18.5756667 C66.5173056,23.5476111 68.0232778,29.2215 68.0232778,34.9828889 C68.0232778,43.5588611 64.8091111,51.5748333 58.9378611,57.73775 L58.9378611,52.6510833 L56.9934167,52.6510833 L56.9934167,61.2805278 L65.6461944,61.2805278 L65.6461944,59.3360833 L60.0899444,59.3360833 C66.4657778,52.7774722 69.9677222,44.1869167 69.9677222,34.9828889" id="Fill-10" fill="#FEFEFE"></path>
        <path d="M34.9838611,68.0223056 C25.4492778,68.0223056 16.5155278,63.9671667 10.2349722,56.85925 L15.1660833,56.8573056 L15.1660833,54.9128611 L6.51427778,54.9148056 L6.51525,63.5432778 L8.45969444,63.5432778 L8.45872222,57.7721667 C15.1242778,65.5305 24.7230278,69.96675 34.9838611,69.96675 C41.1808056,69.96675 47.2708056,68.3246667 52.59275,65.2174444 L51.61275,63.5393889 C46.5883056,66.4716111 40.8376111,68.0223056 34.9838611,68.0223056" id="Fill-11" fill="#FEFEFE"></path>
        <path d="M13.0861111,10.2529583 L13.0861111,15.2812917 L15.0305556,15.2812917 L15.0305556,6.62851389 L6.40208333,6.62851389 L6.40208333,8.57295833 L12.0594444,8.57295833 C4.38472222,15.2336528 0,24.7789306 0,34.983375 C0,40.4618472 1.23180556,45.7089306 3.66138889,50.5797639 L5.40069444,49.7115694 C3.10722222,45.1129583 1.94444444,40.1575417 1.94444444,34.983375 C1.94444444,25.4555972 5.98888889,16.5325417 13.0861111,10.2529583" id="Fill-12" fill="#FEFEFE"></path>
        <path d="M34.9838611,1.94444444 C43.554,1.94444444 51.5670556,5.15375 57.7270556,11.0172222 L52.4809444,11.0172222 L52.4809444,12.9616667 L61.1103889,12.9616667 L61.1103889,4.30986111 L59.1659444,4.30986111 L59.1659444,9.70763889 C52.6296944,3.43680556 44.1081667,0 34.9838611,0 C29.5160833,0 24.2796944,1.22597222 19.4205278,3.64388889 L20.2867778,5.38513889 C24.8746944,3.10138889 29.8194167,1.94444444 34.9838611,1.94444444" id="Fill-13" fill="#FEFEFE"></path>
        <path d="M12.8148611,48.3882778 L57.00625,48.3882778 L57.00625,45.9441111 L12.8148611,45.9441111 L12.8148611,48.3882778 Z M12.8148611,41.5555 L19.3511111,41.5555 L50.4690278,41.5555 L57.00625,41.5555 L57.00625,43.9996667 L12.8148611,43.9996667 L12.8148611,41.5555 Z M57.00625,35.1048056 L57.00625,39.6110556 L52.4990278,39.6110556 C52.9034722,37.3205 54.7147222,35.50925 57.00625,35.1048056 Z M57.00625,24.1206389 C54.7147222,23.7161944 52.9034722,21.9039722 52.4990278,19.6134167 L57.00625,19.6134167 L57.00625,24.1206389 Z M17.3211111,19.6134167 C16.9166667,21.9039722 15.1054167,23.7161944 12.8148611,24.1206389 L12.8148611,19.6134167 L17.3211111,19.6134167 Z M12.8148611,35.1048056 C15.1054167,35.50925 16.9166667,37.3205 17.3211111,39.6110556 L12.8148611,39.6110556 L12.8148611,35.1048056 Z M19.2811111,39.6110556 C18.8436111,36.2481389 16.1777778,33.5823056 12.8148611,33.1448056 L12.8148611,26.0796667 C16.1777778,25.6421667 18.8436111,22.9753611 19.2811111,19.6124444 L50.5390278,19.6124444 C50.9775,22.9753611 53.6433333,25.6421667 57.00625,26.0796667 L57.00625,33.1448056 C53.6433333,33.5823056 50.9775,36.2481389 50.5390278,39.6110556 L19.2811111,39.6110556 Z M59.1101389,45.9441111 L59.1101389,43.9996667 L58.9506944,43.9996667 L58.9506944,41.5555 L58.9506944,40.5832778 L58.9506944,33.0748056 L58.9506944,26.1506389 L58.9506944,17.6689722 L58.9506944,17.668 L10.8704167,17.668 L10.8704167,17.6689722 L10.8704167,26.1506389 L10.8704167,33.0748056 L10.8704167,40.5832778 L10.8704167,41.5555 L10.8704167,43.9996667 L10.7216667,43.9996667 L10.7216667,45.9441111 L10.8704167,45.9441111 L10.8704167,48.3882778 L10.7216667,48.3882778 L10.7216667,50.3327222 L59.1101389,50.3327222 L59.1101389,48.3882778 L58.9506944,48.3882778 L58.9506944,45.9441111 L59.1101389,45.9441111 Z" id="Fill-14" fill="#FEFEFE"></path>
        <polygon id="Fill-15" fill="#FEFEFE" points="17.3493056 59.0409167 52.5009722 59.0409167 52.5009722 57.0964722 17.3493056 57.0964722"></polygon>
        <polygon id="Fill-16" fill="#FEFEFE" points="17.3493056 54.6386944 52.5009722 54.6386944 52.5009722 52.69425 17.3493056 52.69425"></polygon>
    </g>
</svg>