<?xml version="1.0" encoding="UTF-8"?>
<svg width="43px" height="43px" viewBox="0 0 43 43" version="1.1" xmlns="http://www.w3.org/2000/svg" xmlns:xlink="http://www.w3.org/1999/xlink">
    <!-- Generator: Sketch 49 (51002) - http://www.bohemiancoding.com/sketch -->
    <title>linkedin</title>
    <desc>Created with Sketch.</desc>
    <defs></defs>
    <g id="Symbols" stroke="none" stroke-width="1" fill="none" fill-rule="evenodd">
        <g id="底栏" transform="translate(-1179.000000, -263.000000)" fill="#FBFBFB">
            <path d="M1184,263 L1217,263 C1219.76142,263 1222,265.238576 1222,268 L1222,301 C1222,303.761424 1219.76142,306 1217,306 L1184,306 C1181.23858,306 1179,303.761424 1179,301 L1179,268 C1179,265.238576 1181.23858,263 1184,263 Z M1195.54708,281.784313 L1191.25227,281.784313 L1191.25227,294.68207 L1195.54708,294.68207 L1195.54708,281.784313 Z M1195.8203,277.801035 L1195.81697,277.801035 C1195.80808,277.15909 1195.58707,276.627654 1195.15392,276.206724 C1194.72077,275.785795 1194.1438,275.575331 1193.423,275.575331 C1192.7022,275.575331 1192.11857,275.785795 1191.67209,276.206724 C1191.22562,276.627654 1191.00238,277.15909 1191.00238,277.801035 C1191.00349,278.434095 1191.22062,278.96331 1191.65377,279.388682 C1192.08691,279.814054 1192.65944,280.026739 1193.37136,280.026739 L1193.39801,280.026739 C1194.12659,280.026739 1194.71467,279.814054 1195.16225,279.388682 C1195.60983,278.96331 1195.82918,278.434095 1195.8203,277.801035 Z M1210.9954,287.2886 L1210.99707,287.286934 C1210.99596,285.386644 1210.54449,283.943935 1209.64266,282.958805 C1208.74082,281.973675 1207.54801,281.481111 1206.0642,281.481111 C1205.51777,281.48 1205.02077,281.547193 1204.57318,281.68269 C1204.1256,281.818187 1203.74798,282.006994 1203.44034,282.249112 C1203.13269,282.491229 1202.8878,282.716688 1202.70566,282.925486 C1202.52351,283.134285 1202.34581,283.377513 1202.17255,283.655171 L1202.19921,283.655171 L1202.19921,281.780981 L1197.91773,281.780981 L1197.93105,282.405711 C1197.93994,282.822197 1197.94438,284.106642 1197.94438,286.259045 C1197.94438,288.411448 1197.9355,291.218567 1197.91773,294.680404 L1202.19921,294.680404 L1202.19921,287.483515 C1202.19921,287.040374 1202.24696,286.688859 1202.34248,286.428971 C1202.52462,285.98694 1202.80006,285.615989 1203.16879,285.316119 C1203.53752,285.016249 1203.9951,284.866314 1204.54153,284.866314 C1205.28787,284.866314 1205.83652,285.124535 1206.18748,285.640979 C1206.53844,286.157422 1206.71392,286.871002 1206.71392,287.78172 L1206.71392,294.680404 L1210.9954,294.680404 L1210.9954,287.2886 Z" id="linkedin"></path>
        </g>
    </g>
</svg>