<?xml version="1.0" encoding="UTF-8"?>
<svg width="43px" height="43px" viewBox="0 0 43 43" version="1.1" xmlns="http://www.w3.org/2000/svg" xmlns:xlink="http://www.w3.org/1999/xlink">
    <!-- Generator: Sketch 49 (51002) - http://www.bohemiancoding.com/sketch -->
    <title>medium</title>
    <desc>Created with Sketch.</desc>
    <defs></defs>
    <g id="Symbols" stroke="none" stroke-width="1" fill="none" fill-rule="evenodd">
        <g id="底栏" transform="translate(-1250.000000, -263.000000)" fill="#FBFBFB">
            <path d="M1255,263 L1288,263 C1290.76142,263 1293,265.238576 1293,268 L1293,301 C1293,303.761424 1290.76142,306 1288,306 L1255,306 C1252.23858,306 1250,303.761424 1250,301 L1250,268 C1250,265.238576 1252.23858,263 1255,263 Z M1282.99836,291.523838 L1283,291.523838 L1282.0883,291.523838 C1281.91746,291.523838 1281.74005,291.440607 1281.55606,291.274147 C1281.37208,291.107686 1281.28009,290.947248 1281.28009,290.792834 L1281.28009,279.486101 C1281.28009,279.332782 1281.37427,279.161941 1281.56263,278.973577 C1281.751,278.785214 1281.92622,278.691032 1282.0883,278.691032 L1283,278.691032 L1283,276.008496 L1274.40209,276.008496 L1271.5405,286.544801 L1271.46329,286.544801 L1268.62634,276.008496 L1260.00214,276.008496 L1260.00214,278.691032 L1260.88756,278.691032 C1261.06716,278.692127 1261.25114,278.786309 1261.43951,278.973577 C1261.62787,279.160846 1261.72205,279.331687 1261.72205,279.486101 L1261.72205,290.792834 C1261.72205,290.947248 1261.62787,291.107686 1261.43951,291.274147 C1261.25114,291.440607 1261.06716,291.523838 1260.88756,291.523838 L1260.00214,291.523838 L1260.00214,294.206374 L1266.90643,294.206374 L1266.90643,291.523838 L1265.17337,291.523838 L1265.17337,279.640515 L1265.27522,279.640515 L1269.25385,294.206374 L1272.3717,294.206374 L1276.40126,279.640515 L1276.47846,279.640515 L1276.47846,291.523838 L1274.75855,291.523838 L1274.75855,294.206374 L1282.99836,294.206374 L1282.99836,291.523838 Z" id="medium"></path>
        </g>
    </g>
</svg>