<?xml version="1.0" encoding="UTF-8"?>
<svg width="24px" height="24px" viewBox="0 0 24 24" version="1.1" xmlns="http://www.w3.org/2000/svg" xmlns:xlink="http://www.w3.org/1999/xlink">
    <!-- Generator: Sketch 49 (51002) - http://www.bohemiancoding.com/sketch -->
    <title>navigation</title>
    <desc>Created with Sketch.</desc>
    <defs></defs>
    <g id="Page-1" stroke="none" stroke-width="1" fill="none" fill-rule="evenodd">
        <g id="Home" transform="translate(-202.000000, -378.000000)" fill="#FFFFFF" fill-rule="nonzero">
            <g id="目录" transform="translate(0.000000, 202.000000)">
                <path d="M214,176 C207.373,176 202,181.373 202,188 C202,194.627 207.373,200 214,200 C220.627,200 226,194.627 226,188 C226,181.373 220.627,176 214,176 Z M216,190 L207,195 L212,186 L221,181 L216,190 Z M214,189 C214.552285,189 215,188.552285 215,188 C215,187.447715 214.552285,187 214,187 C213.447715,187 213,187.447715 213,188 C213,188.552285 213.447715,189 214,189 Z" id="navigation"></path>
            </g>
        </g>
    </g>
</svg>