<?xml version="1.0" encoding="UTF-8"?>
<svg width="70px" height="70px" viewBox="0 0 70 70" version="1.1" xmlns="http://www.w3.org/2000/svg" xmlns:xlink="http://www.w3.org/1999/xlink">
    <!-- Generator: Sketch 49 (51002) - http://www.bohemiancoding.com/sketch -->
    <title>Phase-2</title>
    <desc>Created with Sketch.</desc>
    <defs></defs>
    <g id="Phase-2" stroke="none" stroke-width="1" fill="none" fill-rule="evenodd">
        <path d="M31.78725,65.1415833 C31.78725,66.22075 30.90975,67.09825 29.8305833,67.09825 L8.45558333,67.09825 C7.37725,67.09825 6.49975,66.22075 6.49975,65.1415833 L6.49975,5.28991667 C6.49975,4.21075 7.37725,3.33325 8.45558333,3.33325 L29.8305833,3.33325 C30.90975,3.33325 31.78725,4.21075 31.78725,5.28991667 L31.78725,65.1415833 Z M29.8305833,0.83325 L8.45558333,0.83325 C5.99891667,0.83325 3.99975,2.83241667 3.99975,5.28991667 L3.99975,65.1415833 C3.99975,67.59825 5.99891667,69.59825 8.45558333,69.59825 L29.8305833,69.59825 C32.2880833,69.59825 34.28725,67.59825 34.28725,65.1415833 L34.28725,5.28991667 C34.28725,2.83241667 32.2880833,0.83325 29.8305833,0.83325 Z" id="Fill-1" fill="#FF5C3C"></path>
        <polygon id="Fill-4" fill="#EA5C3F" points="11.6616667 9.74633333 26.625 9.74633333 26.625 7.24633333 11.6616667 7.24633333"></polygon>
        <polygon id="Fill-6" fill="#FF5C3C" points="11.6616667 14.0213333 26.625 14.0213333 26.625 11.5213333 11.6616667 11.5213333"></polygon>
        <polygon id="Fill-7" fill="#FF5C3C" points="11.6616667 18.2963333 26.625 18.2963333 26.625 15.7963333 11.6616667 15.7963333"></polygon>
        <polygon id="Fill-8" fill="#FF5C3C" points="11.6616667 54.6346667 26.625 54.6346667 26.625 52.1346667 11.6616667 52.1346667"></polygon>
        <polygon id="Fill-9" fill="#FF5C3C" points="11.6616667 58.9096667 26.625 58.9096667 26.625 56.4096667 11.6616667 56.4096667"></polygon>
        <polygon id="Fill-10" fill="#FF5C3C" points="11.6616667 63.1846667 26.625 63.1846667 26.625 60.6846667 11.6616667 60.6846667"></polygon>
        <polygon id="Fill-11" fill="#FF5C3C" points="20.4666667 36.4663333 22.1333333 36.4663333 22.1333333 33.9663333 20.4666667 33.9663333"></polygon>
        <polygon id="Fill-12" fill="#FF5C3C" points="23.8 36.4663333 24.4875 36.4663333 24.4875 33.9663333 23.8 33.9663333"></polygon>
        <polygon id="Fill-13" fill="#FF5C3C" points="13.8 36.4663333 15.4666667 36.4663333 15.4666667 33.9663333 13.8 33.9663333"></polygon>
        <polygon id="Fill-14" fill="#FF5C3C" points="17.1333333 36.4663333 18.8 36.4663333 18.8 33.9663333 17.1333333 33.9663333"></polygon>
        <path d="M63.8698333,65.1415833 C63.8698333,66.22075 62.9923333,67.09825 61.914,67.09825 L40.539,67.09825 C39.4598333,67.09825 38.5823333,66.22075 38.5823333,65.1415833 L38.5823333,5.28991667 C38.5823333,4.21075 39.4598333,3.33325 40.539,3.33325 L61.914,3.33325 C62.9923333,3.33325 63.8698333,4.21075 63.8698333,5.28991667 L63.8698333,65.1415833 Z M61.914,0.83325 L40.539,0.83325 C38.0823333,0.83325 36.0823333,2.83241667 36.0823333,5.28991667 L36.0823333,65.1415833 C36.0823333,67.59825 38.0823333,69.59825 40.539,69.59825 L61.914,69.59825 C64.3715,69.59825 66.3698333,67.59825 66.3698333,65.1415833 L66.3698333,5.28991667 C66.3698333,2.83241667 64.3715,0.83325 61.914,0.83325 Z" id="Fill-15" fill="#FF5C3C"></path>
        <polygon id="Fill-16" fill="#EA5C3F" points="43.745 9.74633333 58.7075 9.74633333 58.7075 7.24633333 43.745 7.24633333"></polygon>
        <polygon id="Fill-17" fill="#FF5C3C" points="43.745 14.0213333 58.7075 14.0213333 58.7075 11.5213333 43.745 11.5213333"></polygon>
        <polygon id="Fill-18" fill="#FF5C3C" points="43.745 18.2963333 58.7075 18.2963333 58.7075 15.7963333 43.745 15.7963333"></polygon>
        <polygon id="Fill-19" fill="#FF5C3C" points="43.745 54.6346667 58.7075 54.6346667 58.7075 52.1346667 43.745 52.1346667"></polygon>
        <polygon id="Fill-20" fill="#FF5C3C" points="43.745 58.9096667 58.7075 58.9096667 58.7075 56.4096667 43.745 56.4096667"></polygon>
        <polygon id="Fill-21" fill="#FF5C3C" points="43.745 63.1846667 58.7075 63.1846667 58.7075 60.6846667 43.745 60.6846667"></polygon>
        <polygon id="Fill-22" fill="#FF5C3C" points="52.5491667 36.4663333 54.2158333 36.4663333 54.2158333 33.9663333 52.5491667 33.9663333"></polygon>
        <polygon id="Fill-23" fill="#FF5C3C" points="49.2158333 36.4663333 50.8825 36.4663333 50.8825 33.9663333 49.2158333 33.9663333"></polygon>
        <polygon id="Fill-24" fill="#FF5C3C" points="45.8825 36.4663333 47.5491667 36.4663333 47.5491667 33.9663333 45.8825 33.9663333"></polygon>
        <polygon id="Fill-25" fill="#FF5C3C" points="55.8825 36.4663333 56.57 36.4663333 56.57 33.9663333 55.8825 33.9663333"></polygon>
    </g>
</svg>