<?xml version="1.0" encoding="UTF-8"?>
<svg width="70px" height="70px" viewBox="0 0 70 70" version="1.1" xmlns="http://www.w3.org/2000/svg" xmlns:xlink="http://www.w3.org/1999/xlink">
    <!-- Generator: Sketch 49 (51002) - http://www.bohemiancoding.com/sketch -->
    <title>Phase-4</title>
    <desc>Created with Sketch.</desc>
    <defs></defs>
    <g id="Phase-4" stroke="none" stroke-width="1" fill="none" fill-rule="evenodd">
        <path d="M24.8069756,59.0699268 C25.1347805,59.0699268 25.4625854,58.9452927 25.7127073,58.6951707 C26.2120976,58.1949268 26.2120976,57.3839512 25.7127073,56.8837073 L25.6222195,56.7940732 C25.1219756,56.2938293 24.3118537,56.2938293 23.8116098,56.7940732 C23.3113659,57.2943171 23.3113659,58.104439 23.8116098,58.6046829 L23.9012439,58.6951707 C24.1513659,58.9452927 24.4791707,59.0699268 24.8069756,59.0699268" id="Fill-1" fill="#FF5C3C"></path>
        <path d="M28.6909512,53.8305122 C29.0170488,53.8305122 29.3431463,53.7067317 29.5924146,53.4591707 C30.0952195,52.9614878 30.0977805,52.1513659 29.6000976,51.648561 L29.5104634,51.5580732 C29.0127805,51.0552683 28.2009512,51.0518537 27.6998537,51.5495366 C27.1970488,52.0472195 27.1936341,52.8573415 27.6913171,53.3601463 L27.7818049,53.4514878 C28.0319268,53.7041707 28.361439,53.8305122 28.6909512,53.8305122" id="Fill-3" fill="#FF5C3C"></path>
        <path d="M64.7638293,42.3427439 C64.4274878,42.6782317 63.8427317,42.6765244 63.5080976,42.3427439 L49.2306585,28.0644512 C48.8840732,27.7187195 48.8840732,27.1553049 49.2306585,26.8095732 L51.3989512,24.6421341 C57.8252927,18.2140854 63.642122,11.1278659 68.6880976,3.57896341 L69.5212683,2.12176829 L67.2957805,0.854085366 L66.5334634,2.19347561 C61.5856585,9.58957317 55.8849268,16.532378 49.5883415,22.8315244 L47.4200488,24.9989634 C46.0746829,26.3434756 46.0746829,28.5305488 47.4200488,29.8759146 L48.7235854,31.1785976 L48.6885854,31.3185976 C48.234439,33.1539634 44.3409024,33.787378 43.3361463,33.7925 C43.3028537,33.7925 43.269561,33.7942073 43.2362683,33.7967683 L37.2060244,34.2705488 C33.7265122,34.2825 31.1510244,35.4793293 28.3459024,38.3757927 L24.2005366,42.4955488 C23.387,43.3014024 22.9379756,44.3770122 22.9354146,45.522622 C22.932,46.6682317 23.3776098,47.7455488 24.186878,48.5548171 C24.994439,49.3632317 26.0674878,49.8071341 27.2096829,49.8071341 C28.351878,49.8071341 29.4257805,49.3632317 30.2316341,48.5548171 C31.2756585,47.5116463 33.6932195,45.2725 35.0129756,44.0551829 L47.0359024,56.0781098 C47.3935854,56.4357927 47.577122,56.9309146 47.537,57.4371341 C47.496878,57.9493293 47.2407805,58.402622 46.8148049,58.7133537 C46.107122,59.2281098 45.0716341,59.1103049 44.4023659,58.4418902 L36.4129756,50.4516463 C35.9127317,49.9514024 35.1026098,49.9514024 34.6023659,50.4516463 C34.102122,50.9518902 34.102122,51.7620122 34.6023659,52.2622561 L44.3784634,62.040061 C44.702,62.3635976 44.8684634,62.812622 44.8488293,63.3043293 C44.8266341,63.8361585 44.5841951,64.3329878 44.1863902,64.6684756 C43.5546829,65.2003049 42.4022439,65.112378 41.7705366,64.482378 L39.9616341,62.6717683 C39.9411463,62.6512805 39.9198049,62.629939 39.8993171,62.6085976 L32.0780976,54.787378 C31.5778537,54.2871341 30.7677317,54.2871341 30.2674878,54.787378 C29.7672439,55.287622 29.7672439,56.0977439 30.2674878,56.5979878 L38.1288293,64.4610366 C38.4515122,64.805061 38.6154146,65.252378 38.5932195,65.7278659 C38.5684634,66.2204268 38.3448049,66.6660366 37.9598049,66.9844512 C37.2828537,67.5435976 36.2234634,67.4505488 35.5524878,66.7812805 L31.3046829,62.4933537 C31.2107805,62.3781098 31.1109024,62.2671341 31.0050488,62.1612805 L27.8550488,59.0121341 C27.3556585,58.5127439 26.5463902,58.5110366 26.0461463,59.0104268 C25.5459024,59.5081098 25.5433415,60.3182317 26.0401707,60.8193293 L29.3805366,64.1912805 C29.6033415,64.4977439 29.7177317,64.8648171 29.7083415,65.2472561 C29.6963902,65.7142073 29.4966341,66.1461585 29.1457805,66.4637195 C28.5209024,67.0322561 27.3650488,66.9622561 26.7222439,66.3203049 L21.176878,60.774939 C17.4011463,56.9983537 14.3629756,52.5465244 12.1460244,47.5372561 C12.1033415,47.439939 12.0572439,47.342622 9.21882927,42.757622 L18.907,33.0703049 C20.7577317,35.3248171 24.7229756,35.8446951 25.901878,35.8446951 L29.2337073,35.8446951 L29.2337073,33.2837195 L25.9027317,33.2837195 C24.9799268,33.2777439 21.6378537,32.7433537 20.7380976,31.2392073 L22.1013902,29.8759146 C23.4467561,28.5305488 23.4467561,26.3434756 22.1013902,24.9989634 L19.9339512,22.8315244 C13.6390732,16.5357927 7.9374878,9.59213415 2.98797561,2.19347561 L2.22395122,0.853231707 L0.000170731707,2.12262195 L0.786390244,3.50128049 L0.833341463,3.57896341 C5.88187805,11.1304268 11.699561,18.2175 18.1233415,24.6421341 L20.2907805,26.8095732 C20.6373659,27.1553049 20.6373659,27.7187195 20.2907805,28.0644512 L6.02017073,42.3342073 L5.96468293,42.3683537 L5.9672439,42.3717683 C5.62834146,42.6696951 5.08029268,42.6645732 4.75760976,42.3427439 L1.95419512,39.5401829 L0.143585366,41.3507927 L2.947,44.1533537 C3.59834146,44.8055488 4.46395122,45.1640854 5.38504878,45.1640854 C6.08846341,45.1640854 6.75687805,44.952378 7.32456098,44.5639634 C8.38565854,46.2798171 9.62517073,48.2893293 9.83260976,48.6393293 C12.1741951,53.9089634 15.3805366,58.6006707 19.3662683,62.5855488 L24.9116341,68.1309146 C26.5113902,69.7306707 29.2379756,69.837378 30.8659024,68.3614024 C31.3541951,67.9192073 31.7255366,67.3856707 31.9628537,66.7966463 L33.7384634,68.5884756 C34.6100488,69.4583537 35.7684634,69.9022561 36.9149268,69.9022561 C37.8735854,69.9022561 38.8237073,69.5915244 39.5902927,68.9598171 C40.2126098,68.445061 40.6727317,67.7698171 40.9279756,67.0203049 C42.4790732,67.877378 44.4826098,67.7672561 45.8365122,66.6267683 C46.7823659,65.8303049 47.3543171,64.6582317 47.4072439,63.4118902 C47.4362683,62.7153049 47.2988293,62.0315244 47.0162683,61.4203049 C47.4780976,61.2871341 47.9211463,61.0754268 48.3215122,60.7843293 C49.3476098,60.0365244 49.9929756,58.8892073 50.0911463,57.6351829 C50.1884634,56.3820122 49.7351707,55.1535976 48.8465122,54.2666463 L39.0046829,44.4239634 C40.2928537,44.6288415 41.5904146,44.742378 42.887122,44.742378 C45.539439,44.742378 48.1874878,44.3164024 50.7339512,43.4661585 L49.9238293,41.0375 C45.9013902,42.3768902 41.5989512,42.5433537 37.4851707,41.5146951 L35.464561,41.0093293 L35.4466341,41.0793293 C35.0206585,40.9393293 34.5383415,41.0135976 34.1866341,41.3362805 C34.0133415,41.495061 29.9277317,45.2383537 28.4201707,46.745061 C27.7748049,47.3921341 26.6462683,47.3912805 25.9974878,46.7442073 C25.6730976,46.4198171 25.4946829,45.9887195 25.4955366,45.5277439 C25.4972439,45.0684756 25.6773659,44.637378 26.0051707,44.3138415 L30.1684634,40.1753049 C32.5288293,37.7372561 34.4504146,36.8315244 37.2572439,36.8315244 C37.2905366,36.8315244 37.3238293,36.8298171 37.3579756,36.8272561 L43.436878,36.3492073 C44.1880976,36.307378 48.9284634,35.9138415 50.6639512,33.1206707 L60.1976098,42.6543293 C59.819439,43.4277439 59.4284634,44.1866463 59.0391951,44.8806707 C57.5709024,47.2265244 57.234561,47.7822561 57.1346829,47.962378 L57.1338293,47.9615244 L53.7413902,54.2478659 C52.7776098,55.7357927 51.7156585,57.1759146 50.5837073,58.5281098 L52.547122,60.1722561 C53.7567561,58.7270122 54.892122,57.1878659 55.9199268,55.594939 L59.3883415,49.1788415 L59.396878,49.1617683 C59.5300488,48.9321341 60.4212683,47.4988415 61.2407805,46.187622 C61.5472439,45.6421341 61.8451707,45.0812805 62.134561,44.5135976 C62.7159024,44.9301829 63.4056585,45.1640854 64.1363902,45.1640854 C65.0574878,45.1640854 65.9230976,44.8055488 66.574439,44.1533537 L69.377,41.3507927 L67.5663902,39.5401829 L64.7638293,42.3427439 Z" id="Fill-5" fill="#FF5C3C"></path>
    </g>
</svg>