<?xml version="1.0" encoding="UTF-8"?>
<svg width="70px" height="70px" viewBox="0 0 70 70" version="1.1" xmlns="http://www.w3.org/2000/svg" xmlns:xlink="http://www.w3.org/1999/xlink">
    <!-- Generator: Sketch 49 (51002) - http://www.bohemiancoding.com/sketch -->
    <title>Phase-3</title>
    <desc>Created with Sketch.</desc>
    <defs></defs>
    <g id="Phase-3" stroke="none" stroke-width="1" fill="none" fill-rule="evenodd">
        <path d="M22.8835185,9.65982716 L25.0301852,11.1134074 C27.4775926,7.50019753 30.432284,5.30859259 33.4656173,4.81859259 L33.4656173,30.1136543 L36.0582099,30.1136543 L36.0582099,4.82118519 C39.6325309,5.37945679 42.3512963,8.1405679 44.0658642,10.5041481 L46.1632716,8.9814321 C45.3604321,7.87439506 44.5152469,6.89785185 43.6354938,6.05180247 C44.1341358,6.20476543 44.629321,6.36723457 45.119321,6.54698765 L46.0146296,4.11340741 C42.6088272,2.86291358 38.9990741,2.21130864 35.3798148,2.14390123 C35.175,2.13180247 34.9684568,2.1214321 34.7619136,2.1214321 C34.5933951,2.1214321 34.4257407,2.13266667 34.2580864,2.14130864 C30.5982099,2.19575309 26.9469753,2.84908642 23.5083333,4.1142716 L24.4027778,6.54785185 C24.9031481,6.36464198 25.4104321,6.19871605 25.9203086,6.0422963 C24.8452469,7.06377778 23.8254938,8.26933333 22.8835185,9.65982716" id="Fill-1" fill="#FF5C3C"></path>
        <path d="M46.6388395,59.8288272 L44.4921728,58.3752469 C42.0464938,61.989321 39.0926667,64.1809259 36.0584691,64.6709259 L36.0584691,39.9661111 L33.4658765,39.9661111 L33.4658765,64.6674691 C29.884642,64.1091975 27.163284,61.3411728 25.4478519,58.9715432 L23.348716,60.4925309 C24.153284,61.6056173 25.0019259,62.5873457 25.8851358,63.4368519 C25.387358,63.2830247 24.893037,63.1214198 24.4039012,62.9416667 L23.5085926,65.3752469 C27.1062469,66.6974691 30.8922963,67.3680864 34.7621728,67.3680864 C38.630321,67.3680864 42.4155062,66.6974691 46.0122963,65.3752469 L45.1178519,62.9416667 C44.6183457,63.1248765 44.1127901,63.2899383 43.6037778,63.4472222 C44.6779753,62.4248765 45.6977284,61.219321 46.6388395,59.8288272" id="Fill-3" fill="#FF5C3C"></path>
        <path d="M30.1304198,33.4488519 L18.9114074,33.4488519 C18.9857284,30.1363827 19.3331358,26.9025556 19.9778272,23.824284 L17.4405432,23.2928025 C16.7586914,26.5439136 16.394,29.9574938 16.3188148,33.4488519 L4.76276543,33.4488519 C4.914,29.8529259 5.69177778,26.3624321 7.08918519,23.0560123 L4.70054321,22.0466296 C2.99980247,26.0703333 2.13819753,30.3429259 2.13819753,34.7451481 C2.13819753,39.4498395 3.11906173,43.9911975 5.0522716,48.241321 L7.41239506,47.1679877 C5.81103704,43.6489753 4.92782716,39.911321 4.76449383,36.0414444 L16.319679,36.0414444 C16.3965926,39.6019383 16.7751111,43.0820617 17.4820247,46.3936667 L20.0175802,45.852679 C19.3478272,42.7182346 18.988321,39.4195926 18.9114074,36.0414444 L30.1304198,36.0414444 L30.1304198,33.4488519 Z" id="Fill-5" fill="#FF5C3C"></path>
        <path d="M39.3918519,36.0414444 L50.6125926,36.0414444 C50.5382716,39.272679 50.207284,42.4339136 49.5902469,45.4465062 L52.1301235,45.9658889 C52.7817284,42.7847778 53.1308642,39.4481111 53.2051852,36.0414444 L64.758642,36.0414444 C64.5918519,39.994284 63.6740741,43.8079877 62.007037,47.3909506 L64.3585185,48.4841605 C66.3669136,44.1657654 67.3858025,39.5431728 67.3858025,34.7451481 C67.3858025,30.0387284 66.4049383,25.4965062 64.4708642,21.2472469 L62.1107407,22.3205802 C63.712963,25.8395926 64.597037,29.5781111 64.7595062,33.4488519 L53.2034568,33.4488519 C53.1265432,29.8857654 52.7480247,26.4047778 52.0402469,23.094037 L49.5046914,23.6358889 C50.1761728,26.7694691 50.5348148,30.0681111 50.6108642,33.4488519 L39.3918519,33.4488519 L39.3918519,36.0414444 Z" id="Fill-7" fill="#FF5C3C"></path>
        <polygon id="Fill-9" fill="#FF5C3C" points="21.4099753 23.1898765 22.5826914 24.3625926 24.4165185 22.5296296 23.2429383 21.3569136"></polygon>
        <polygon id="Fill-11" fill="#FF5C3C" points="28.4492963 30.2291975 29.6228765 31.4027778 31.4558395 29.5698148 30.2822593 28.3962346"></polygon>
        <polygon id="Fill-13" fill="#FF5C3C" points="33.8024815 31.916284 32.6297654 30.7435679 30.7959383 32.5765309 31.9695185 33.7492469"></polygon>
        <polygon id="Fill-15" fill="#FF5C3C" points="34.7924198 35.620321 35.2668642 36.0956296 36.4395802 34.9220494 35.9651358 34.4476049 36.1492099 34.2635309 34.9756296 33.0890864 34.7906914 33.2740247 34.6066173 33.0890864 33.4339012 34.2626667 33.6179753 34.4476049 33.1426667 34.9220494 34.3162469 36.0964938"></polygon>
        <polygon id="Fill-17" fill="#FF5C3C" points="38.4955926 36.6093951 37.3228765 35.436679 35.4890494 37.269642 36.6626296 38.442358"></polygon>
        <polygon id="Fill-19" fill="#FF5C3C" points="26.1031728 27.8830741 27.2758889 29.0557901 29.109716 27.2228272 27.9361358 26.0501111"></polygon>
        <polygon id="Fill-21" fill="#FF5C3C" points="23.7561852 25.5360864 24.9297654 26.7096667 26.7627284 24.8767037 25.5891481 23.7031235"></polygon>
        <polygon id="Fill-23" fill="#FF5C3C" points="43.1887901 41.3025926 42.0160741 40.1298765 40.1822469 41.9628395 41.3558272 43.1355556"></polygon>
        <polygon id="Fill-25" fill="#FF5C3C" points="45.5349136 43.6488025 44.3621975 42.4760864 42.5283704 44.3090494 43.7019506 45.4817654"></polygon>
        <polygon id="Fill-27" fill="#FF5C3C" points="47.8819877 45.9957901 46.7092716 44.8230741 44.8754444 46.656037 46.0490247 47.8287531"></polygon>
        <polygon id="Fill-29" fill="#FF5C3C" points="40.8418025 38.9556049 39.6690864 37.7828889 37.8352593 39.6158519 39.0088395 40.7885679"></polygon>
        <polygon id="Fill-31" fill="#FF5C3C" points="27.0534444 44.3087037 25.2204815 42.4757407 24.0469012 43.6484568 25.8807284 45.4814198"></polygon>
        <polygon id="Fill-33" fill="#FF5C3C" points="24.7072346 46.6549136 22.8742716 44.8219506 21.7006914 45.9946667 23.5345185 47.8276296"></polygon>
        <polygon id="Fill-35" fill="#FF5C3C" points="45.1669383 22.5299753 46.9999012 24.3629383 48.1734815 23.1902222 46.3396543 21.3572593"></polygon>
        <polygon id="Fill-37" fill="#FF5C3C" points="35.7806296 31.916284 37.6135926 33.7492469 38.7871728 32.5765309 36.9533457 30.7435679"></polygon>
        <polygon id="Fill-39" fill="#FF5C3C" points="40.4738272 27.2230864 42.3067901 29.0560494 43.4803704 27.8833333 41.6465432 26.0503704"></polygon>
        <polygon id="Fill-41" fill="#FF5C3C" points="38.1268395 29.5692963 39.9598025 31.4022593 41.1333827 30.2295432 39.2995556 28.3965802"></polygon>
        <polygon id="Fill-43" fill="#FF5C3C" points="45.8269259 25.5360864 43.9922346 23.7031235 42.8195185 24.8767037 44.6542099 26.7096667"></polygon>
        <polygon id="Fill-45" fill="#FF5C3C" points="29.4004321 41.961716 27.5674691 40.1287531 26.3938889 41.3014691 28.227716 43.1344321"></polygon>
        <polygon id="Fill-47" fill="#FF5C3C" points="34.0944074 37.2685185 32.259716 35.4355556 31.087 36.6091358 32.9216914 38.4420988"></polygon>
        <polygon id="Fill-49" fill="#FF5C3C" points="31.746642 39.6155926 29.913679 37.7826296 28.7400988 38.9553457 30.5739259 40.7883086"></polygon>
        <path d="M2.59259259,62.6594198 L19.4444444,62.6594198 L19.4444444,52.2838642 L2.59259259,52.2838642 L2.59259259,62.6594198 Z M13.0182716,66.9804074 L9.12938272,66.9804074 L9.1345679,65.2520123 L13.0234568,65.2520123 L13.0182716,66.9804074 Z M19.6604938,49.6912716 L2.37654321,49.6912716 C1.06555556,49.6912716 0,50.7576914 0,52.0678148 L0,62.8754691 C0,64.1864568 1.06555556,65.2520123 2.37654321,65.2520123 L6.54197531,65.2520123 L6.53679012,66.9804074 L4.52753086,66.9804074 L4.52753086,69.573 L17.4904938,69.573 L17.4904938,66.9804074 L15.6108642,66.9804074 L15.6160494,65.2520123 L19.6604938,65.2520123 C20.9714815,65.2520123 22.037037,64.1864568 22.037037,62.8754691 L22.037037,52.0678148 C22.037037,50.7576914 20.9714815,49.6912716 19.6604938,49.6912716 Z" id="Fill-51" fill="#FF5C3C"></path>
        <path d="M50.1234568,62.6594198 L66.9753086,62.6594198 L66.9753086,52.2838642 L50.1234568,52.2838642 L50.1234568,62.6594198 Z M60.5491358,66.9804074 L56.6602469,66.9804074 L56.6654321,65.2520123 L60.554321,65.2520123 L60.5491358,66.9804074 Z M67.191358,49.6912716 L49.9074074,49.6912716 C48.5964198,49.6912716 47.5308642,50.7576914 47.5308642,52.0678148 L47.5308642,62.8754691 C47.5308642,64.1864568 48.5964198,65.2520123 49.9074074,65.2520123 L54.0728395,65.2520123 L54.0676543,66.9804074 L52.0583951,66.9804074 L52.0583951,69.573 L65.021358,69.573 L65.021358,66.9804074 L63.1417284,66.9804074 L63.1469136,65.2520123 L67.191358,65.2520123 C68.5023457,65.2520123 69.5679012,64.1864568 69.5679012,62.8754691 L69.5679012,52.0678148 C69.5679012,50.7576914 68.5023457,49.6912716 67.191358,49.6912716 Z" id="Fill-53" fill="#FF5C3C"></path>
        <path d="M50.1234568,12.9680617 L66.9753086,12.9680617 L66.9753086,2.59250617 L50.1234568,2.59250617 L50.1234568,12.9680617 Z M60.5491358,17.2890494 L56.6602469,17.2890494 L56.6654321,15.5606543 L60.554321,15.5606543 L60.5491358,17.2890494 Z M67.191358,-8.64197531e-05 L49.9074074,-8.64197531e-05 C48.5964198,-8.64197531e-05 47.5308642,1.06633333 47.5308642,2.37645679 L47.5308642,13.1841111 C47.5308642,14.4950988 48.5964198,15.5606543 49.9074074,15.5606543 L54.0728395,15.5606543 L54.0676543,17.2890494 L52.0583951,17.2890494 L52.0583951,19.881642 L65.021358,19.881642 L65.021358,17.2890494 L63.1417284,17.2890494 L63.1469136,15.5606543 L67.191358,15.5606543 C68.5023457,15.5606543 69.5679012,14.4950988 69.5679012,13.1841111 L69.5679012,2.37645679 C69.5679012,1.06633333 68.5023457,-8.64197531e-05 67.191358,-8.64197531e-05 Z" id="Fill-54" fill="#FF5C3C"></path>
        <path d="M2.59259259,12.9680617 L19.4444444,12.9680617 L19.4444444,2.59250617 L2.59259259,2.59250617 L2.59259259,12.9680617 Z M13.0182716,17.2890494 L9.12938272,17.2890494 L9.1345679,15.5606543 L13.0234568,15.5606543 L13.0182716,17.2890494 Z M2.37654321,15.5606543 L6.54197531,15.5606543 L6.53679012,17.2890494 L4.52753086,17.2890494 L4.52753086,19.881642 L17.4904938,19.881642 L17.4904938,17.2890494 L15.6108642,17.2890494 L15.6160494,15.5606543 L19.6604938,15.5606543 C20.9714815,15.5606543 22.037037,14.4950988 22.037037,13.1841111 L22.037037,2.37645679 C22.037037,1.06633333 20.9714815,-8.64197531e-05 19.6604938,-8.64197531e-05 L2.37654321,-8.64197531e-05 C1.06555556,-8.64197531e-05 0,1.06633333 0,2.37645679 L0,13.1841111 C0,14.4950988 1.06555556,15.5606543 2.37654321,15.5606543 Z" id="Fill-55" fill="#FF5C3C"></path>
    </g>
</svg>