<?xml version="1.0" encoding="UTF-8"?>
<svg width="70px" height="70px" viewBox="0 0 70 70" version="1.1" xmlns="http://www.w3.org/2000/svg" xmlns:xlink="http://www.w3.org/1999/xlink">
    <!-- Generator: Sketch 49 (51002) - http://www.bohemiancoding.com/sketch -->
    <title>Phase-1</title>
    <desc>Created with Sketch.</desc>
    <defs></defs>
    <g id="Phase-1" stroke="none" stroke-width="1" fill="none" fill-rule="evenodd">
        <path d="M11.2345679,21.6051111 L15.1234568,21.6051111 L15.1234568,19.876716 L11.2345679,19.876716 L11.2345679,21.6051111 Z M2.59259259,16.4199259 L2.59259259,3.45696296 C2.59259259,2.97992593 2.97975309,2.59276543 3.45679012,2.59276543 L22.9012346,2.59276543 C23.3782716,2.59276543 23.7654321,2.97992593 23.7654321,3.45696296 L23.7654321,16.4199259 C23.7654321,16.896963 23.3782716,17.2841235 22.9012346,17.2841235 L3.45679012,17.2841235 C2.97975309,17.2841235 2.59259259,16.896963 2.59259259,16.4199259 Z M17.7160494,19.876716 L22.9012346,19.876716 C24.8076543,19.876716 26.3580247,18.3263457 26.3580247,16.4199259 L26.3580247,3.45696296 C26.3580247,1.55054321 24.8076543,0.000172839506 22.9012346,0.000172839506 L3.45679012,0.000172839506 C1.55037037,0.000172839506 0,1.55054321 0,3.45696296 L0,16.4199259 C0,18.3263457 1.55037037,19.876716 3.45679012,19.876716 L8.64197531,19.876716 L8.64197531,21.6051111 L5.61728395,21.6051111 L5.61728395,24.1977037 L20.7407407,24.1977037 L20.7407407,21.6051111 L17.7160494,21.6051111 L17.7160494,19.876716 Z" id="Fill-1" fill="#FF5C3C"></path>
        <path d="M67.0014938,61.8170864 C67.0014938,62.2941235 66.6143333,62.681284 66.1372963,62.681284 L46.6928519,62.681284 C46.2158148,62.681284 45.8286543,62.2941235 45.8286543,61.8170864 L45.8286543,48.8541235 C45.8286543,48.3770864 46.2158148,47.9899259 46.6928519,47.9899259 L66.1372963,47.9899259 C66.6143333,47.9899259 67.0014938,48.3770864 67.0014938,48.8541235 L67.0014938,61.8170864 Z M54.4706296,67.0022716 L58.3595185,67.0022716 L58.3595185,65.2738765 L54.4706296,65.2738765 L54.4706296,67.0022716 Z M66.1372963,45.3973333 L46.6928519,45.3973333 C44.7864321,45.3973333 43.2360617,46.9477037 43.2360617,48.8541235 L43.2360617,61.8170864 C43.2360617,63.7235062 44.7864321,65.2738765 46.6928519,65.2738765 L51.878037,65.2738765 L51.878037,67.0022716 L48.8533457,67.0022716 L48.8533457,69.5948642 L63.9768025,69.5948642 L63.9768025,67.0022716 L60.9521111,67.0022716 L60.9521111,65.2738765 L66.1372963,65.2738765 C68.043716,65.2738765 69.5940864,63.7235062 69.5940864,61.8170864 L69.5940864,48.8541235 C69.5940864,46.9477037 68.043716,45.3973333 66.1372963,45.3973333 Z" id="Fill-3" fill="#FF5C3C"></path>
        <polygon id="Fill-4" fill="#FF5C3C" points="28.3603704 11.2373333 30.1674074 11.2373333 30.1674074 8.64474074 28.3603704 8.64474074"></polygon>
        <polygon id="Fill-5" fill="#FF5C3C" points="50.0448148 11.2373333 51.8518519 11.2373333 51.8518519 8.64474074 50.0448148 8.64474074"></polygon>
        <polygon id="Fill-6" fill="#FF5C3C" points="53.6588889 11.2373333 54.1428395 11.2373333 54.1428395 8.64474074 53.6588889 8.64474074"></polygon>
        <polygon id="Fill-7" fill="#FF5C3C" points="42.8166667 11.2373333 44.6245679 11.2373333 44.6245679 8.64474074 42.8166667 8.64474074"></polygon>
        <polygon id="Fill-8" fill="#FF5C3C" points="46.4307407 11.2373333 48.2377778 11.2373333 48.2377778 8.64474074 46.4307407 8.64474074"></polygon>
        <polygon id="Fill-9" fill="#FF5C3C" points="39.2025926 11.2373333 41.0096296 11.2373333 41.0096296 8.64474074 39.2025926 8.64474074"></polygon>
        <polygon id="Fill-10" fill="#FF5C3C" points="31.9744444 11.2373333 33.7823457 11.2373333 33.7823457 8.64474074 31.9744444 8.64474074"></polygon>
        <polygon id="Fill-11" fill="#FF5C3C" points="35.5885185 11.2373333 37.3955556 11.2373333 37.3955556 8.64474074 35.5885185 8.64474074"></polygon>
        <polygon id="Fill-12" fill="#FF5C3C" points="55.0554321 43.501284 57.6480247 43.501284 57.6480247 42.0805432 55.0554321 42.0805432"></polygon>
        <polygon id="Fill-13" fill="#FF5C3C" points="55.0554321 40.4670864 57.6480247 40.4670864 57.6480247 38.8536296 55.0554321 38.8536296"></polygon>
        <polygon id="Fill-14" fill="#FF5C3C" points="55.0554321 37.2393086 57.6480247 37.2393086 57.6480247 35.6258519 55.0554321 35.6258519"></polygon>
        <polygon id="Fill-15" fill="#FF5C3C" points="55.0554321 14.6517778 57.6480247 14.6517778 57.6480247 13.038321 55.0554321 13.038321"></polygon>
        <polygon id="Fill-16" fill="#FF5C3C" points="55.0554321 21.1047407 57.6480247 21.1047407 57.6480247 19.491284 55.0554321 19.491284"></polygon>
        <polygon id="Fill-17" fill="#FF5C3C" points="55.0554321 34.0132593 57.6480247 34.0132593 57.6480247 32.3998025 55.0554321 32.3998025"></polygon>
        <polygon id="Fill-18" fill="#FF5C3C" points="55.0554321 17.8778272 57.6480247 17.8778272 57.6480247 16.2652346 55.0554321 16.2652346"></polygon>
        <polygon id="Fill-19" fill="#FF5C3C" points="55.0554321 24.3325185 57.6480247 24.3325185 57.6480247 22.7190617 55.0554321 22.7190617"></polygon>
        <polygon id="Fill-20" fill="#FF5C3C" points="55.0554321 30.7863457 57.6480247 30.7863457 57.6480247 29.1728889 55.0554321 29.1728889"></polygon>
        <polygon id="Fill-21" fill="#FF5C3C" points="55.0554321 27.5585679 57.6480247 27.5585679 57.6480247 25.9451111 55.0554321 25.9451111"></polygon>
        <polygon id="Fill-22" fill="#FF5C3C" points="32.0971605 56.6059753 33.9041975 56.6059753 33.9041975 54.0133827 32.0971605 54.0133827"></polygon>
        <polygon id="Fill-23" fill="#FF5C3C" points="21.2549383 56.6059753 23.0619753 56.6059753 23.0619753 54.0133827 21.2549383 54.0133827"></polygon>
        <polygon id="Fill-24" fill="#FF5C3C" points="15.3498765 56.6059753 15.8338272 56.6059753 15.8338272 54.0133827 15.3498765 54.0133827"></polygon>
        <polygon id="Fill-25" fill="#FF5C3C" points="28.4830864 56.6059753 30.2901235 56.6059753 30.2901235 54.0133827 28.4830864 54.0133827"></polygon>
        <polygon id="Fill-26" fill="#FF5C3C" points="17.6408642 56.6059753 19.4479012 56.6059753 19.4479012 54.0133827 17.6408642 54.0133827"></polygon>
        <polygon id="Fill-27" fill="#FF5C3C" points="39.3253086 56.6059753 41.1323457 56.6059753 41.1323457 54.0133827 39.3253086 54.0133827"></polygon>
        <polygon id="Fill-28" fill="#FF5C3C" points="35.7103704 56.6059753 37.5182716 56.6059753 37.5182716 54.0133827 35.7103704 54.0133827"></polygon>
        <polygon id="Fill-29" fill="#FF5C3C" points="24.8681481 56.6059753 26.6760494 56.6059753 26.6760494 54.0133827 24.8681481 54.0133827"></polygon>
        <polygon id="Fill-30" fill="#FF5C3C" points="11.8446914 45.8536296 14.437284 45.8536296 14.437284 44.2574568 11.8446914 44.2574568"></polygon>
        <polygon id="Fill-31" fill="#FF5C3C" points="11.8446914 52.2348642 14.437284 52.2348642 14.437284 50.6395556 11.8446914 50.6395556"></polygon>
        <polygon id="Fill-32" fill="#FF5C3C" points="11.8446914 49.0442469 14.437284 49.0442469 14.437284 47.4489383 11.8446914 47.4489383"></polygon>
        <polygon id="Fill-33" fill="#FF5C3C" points="11.8446914 42.6630123 14.437284 42.6630123 14.437284 41.0677037 11.8446914 41.0677037"></polygon>
        <polygon id="Fill-34" fill="#FF5C3C" points="11.8446914 39.4732593 14.437284 39.4732593 14.437284 37.8770864 11.8446914 37.8770864"></polygon>
        <polygon id="Fill-35" fill="#FF5C3C" points="11.8446914 26.7099259 14.437284 26.7099259 14.437284 26.0617778 11.8446914 26.0617778"></polygon>
        <polygon id="Fill-36" fill="#FF5C3C" points="11.8446914 29.9005432 14.437284 29.9005432 14.437284 28.3043704 11.8446914 28.3043704"></polygon>
        <polygon id="Fill-37" fill="#FF5C3C" points="11.8446914 36.2817778 14.437284 36.2817778 14.437284 34.6864691 11.8446914 34.6864691"></polygon>
        <polygon id="Fill-38" fill="#FF5C3C" points="11.8446914 33.0911605 14.437284 33.0911605 14.437284 31.4958519 11.8446914 31.4958519"></polygon>
        <path d="M57.6480247,8.64474074 L61.5369136,8.64474074 L61.5369136,4.75585185 L57.6480247,4.75585185 L57.6480247,8.64474074 Z M56.3517284,11.2373333 L64.1295062,11.2373333 L64.1295062,2.16325926 L55.0554321,2.16325926 L55.0554321,9.94103704 L55.0554321,11.021284 L55.0554321,11.2373333 L55.2714815,11.2373333 L56.3517284,11.2373333 Z" id="Fill-39" fill="#FF5C3C"></path>
        <path d="M7.92728395,60.5285679 L11.8161728,60.5285679 L11.8161728,56.639679 L7.92728395,56.639679 L7.92728395,60.5285679 Z M14.4087654,54.0470864 L14.2212346,54.0470864 L14.2212346,54.0133827 L13.1409877,54.0133827 L13.1409877,54.0470864 L5.33469136,54.0470864 L5.33469136,63.1211605 L14.4087654,63.1211605 L14.4087654,55.309679 L14.437284,55.309679 L14.437284,54.2294321 L14.4087654,54.2294321 L14.4087654,54.0470864 Z" id="Fill-40" fill="#FF5C3C"></path>
    </g>
</svg>