<?xml version="1.0" encoding="UTF-8"?>
<svg width="88px" height="88px" viewBox="0 0 88 88" version="1.1" xmlns="http://www.w3.org/2000/svg" xmlns:xlink="http://www.w3.org/1999/xlink">
    <!-- Generator: Sketch 50 (54983) - http://www.bohemiancoding.com/sketch -->
    <title>Group 2</title>
    <desc>Created with Sketch.</desc>
    <defs>
        <linearGradient x1="50%" y1="0%" x2="50%" y2="100%" id="linearGradient-1">
            <stop stop-color="#3D25AA" stop-opacity="0.9" offset="0%"></stop>
            <stop stop-color="#2C1680" offset="100%"></stop>
        </linearGradient>
        <circle id="path-2" cx="44" cy="44" r="44"></circle>
    </defs>
    <g id="Page-1" stroke="none" stroke-width="1" fill="none" fill-rule="evenodd">
        <g id="new-m" transform="translate(-144.000000, -127.000000)">
            <g id="Group-3" transform="translate(20.000000, 107.000000)">
                <g id="Group-2" transform="translate(124.000000, 20.000000)">
                    <g id="Oval-2">
                        <use fill="#FFFFFF" xlink:href="#path-2"></use>
                        <use fill="url(#linearGradient-1)" xlink:href="#path-2"></use>
                    </g>
                    <path d="M57.0888373,61.8807345 L55.4898058,61.8807345 L55.4898058,60.002263 L51.1654603,61.5352326 C50.841165,61.6502027 50.6243215,61.9568927 50.6243215,62.3005215 L50.6243215,69.999594 L48.9998672,69.999594 L48.9998672,62.3005215 C48.9998672,61.2690827 49.6501005,60.349433 50.622519,60.0046882 L55.4390312,58.2972467 L53.8399288,56.5262823 L53.8399288,52.3360607 C53.8399288,51.2900208 54.3146318,50.300349 55.1308132,49.6467643 C55.7426784,49.1561545 56.5034599,48.8892602 57.2886452,48.8892602 L58.5240427,48.8892602 C59.3000066,48.8892602 60.0533084,49.1507972 60.6400561,49.6151135 C61.5049705,50.2974001 61.9873792,51.2936397 61.9873792,52.3482402 L61.9873792,56.5227252 L60.4093499,58.2974399 L65.185187,60.0038936 C66.1546481,60.3508885 66.8014495,61.2682312 66.8014495,62.2972737 L66.8014495,69.9492521 L65.1769952,69.9492521 L65.1769952,62.2972737 C65.1769952,61.9543722 64.961476,61.6487065 64.6380245,61.5329349 L60.352551,60.001693 L60.3270411,61.8807345 L58.7132916,61.8807345 L58.7132916,70 L57.0888373,70 L57.0888373,61.8807345 Z M58.7384707,59.2265346 L58.7384707,57.7322325 L60.362925,55.9053064 L60.362925,52.3482402 C60.362925,51.79017 60.1077499,51.2631987 59.6918637,50.9338388 C59.332797,50.6514853 58.9344796,50.5131945 58.5240427,50.5131945 L57.2886452,50.5131945 C56.8727463,50.5131945 56.4705546,50.6542897 56.1468082,50.913878 C55.7153699,51.2593668 55.4643831,51.78263 55.4643831,52.3360607 L55.4643831,55.9017493 L57.1140164,57.7286754 L57.1140164,58.852909 L57.1142601,58.852909 L57.1142601,60.2568002 L58.7244838,60.2568002 L58.7384707,59.2265346 Z M29.4731145,55.3849973 L27.8740017,55.3849973 L27.8740017,53.5065546 L23.5497374,55.0394954 C23.2254422,55.1544655 23.0085987,55.4611556 23.0085987,55.8047844 L23.0085987,69.999594 L21.3841444,69.999594 L21.3841444,55.8047844 C21.3841444,54.7733455 22.0343776,53.8536958 23.0067962,53.508951 L27.8233084,51.8015096 L26.2242059,50.0305452 L26.2242059,45.8403235 C26.2242059,44.7942836 26.698909,43.8046118 27.5150903,43.1510271 C28.1272418,42.6601878 28.8881051,42.392711 29.6729224,42.392711 L30.9083199,42.392711 C31.6839122,42.392711 32.4372936,42.6548293 33.0243332,43.1193763 C33.8892477,43.801663 34.3716564,44.7979026 34.3716564,45.852503 L34.3716564,50.026988 L32.7936271,51.8017027 L37.5694641,53.5081564 C38.5389252,53.8551513 39.1857267,54.7724941 39.1857267,55.8015365 L39.1857267,69.9492521 L37.5612724,69.9492521 L37.5612724,55.8015365 C37.5612724,55.458635 37.3457532,55.1529694 37.0223017,55.0371977 L32.7367473,53.505927 L32.711237,55.3849973 L31.0975688,55.3849973 L31.0975688,66.7521314 L29.4731145,66.7521314 L29.4731145,55.3849973 Z M31.1227478,52.7248146 L31.1227478,51.2364954 L32.7472021,49.4095693 L32.7472021,45.852503 C32.7472021,45.2944328 32.492027,44.7674615 32.0761408,44.4381016 C31.716488,44.1552849 31.3180097,44.0166453 30.9083199,44.0166453 L29.6729224,44.0166453 C29.2577624,44.0166453 28.855408,44.1580905 28.5310853,44.4181408 C28.099647,44.7636297 27.8486602,45.2868928 27.8486602,45.8403235 L27.8486602,49.4060121 L29.4982935,51.2329382 L29.4982935,52.3571719 L29.498456,52.3571719 L29.498456,53.7610631 L31.1086797,53.7610631 L31.1227478,52.7248146 Z M35.9027046,42.393117 L35.9027046,37.5213141 L37.5271588,37.5213141 L37.5271588,40.7691827 L51.9924256,40.7691827 L56.7030295,43.7316346 L56.7030295,40.7691827 L68.3755457,40.7691827 L68.3755457,26.1537741 L53.8732301,26.1537741 L53.8732301,24.5298398 L70,24.5298398 L70,42.393117 L58.3274837,42.393117 L58.3274837,46.6717881 L51.5239556,42.393117 L35.9027046,42.393117 Z M18,35.9818244 L18,18 L52.0972954,18 L52.0972954,35.9818244 L36.466119,35.9818244 L29.37118,40.2227815 L29.37118,35.9818244 L18,35.9818244 Z M50.4728412,19.6239343 L19.6244543,19.6239343 L19.6244543,34.3578901 L30.9956343,34.3578901 L30.9956343,37.35968 L36.0174998,34.3578901 L50.4728412,34.3578901 L50.4728412,19.6239343 Z M23.0300415,24.4957372 L23.0300415,22.8718029 L38.5971869,22.8718029 L38.5971869,24.4957372 L23.0300415,24.4957372 Z M23.0300415,27.7436058 L23.0300415,26.1196715 L38.5971869,26.1196715 L38.5971869,27.7436058 L23.0300415,27.7436058 Z M23.0300415,31.0422223 L23.0300415,29.418288 L38.5971869,29.418288 L38.5971869,31.0422223 L23.0300415,31.0422223 Z M44.2145498,27.7773024 L42.5900955,27.7773024 L42.5900955,26.0778552 C42.5900955,25.1992248 43.30285,24.4872115 44.1812485,24.4872115 L44.2015542,24.4872115 C44.6577313,24.4872115 45.0267769,24.1184104 45.0267769,23.6630649 C45.0267769,23.2069705 44.6577945,22.8381062 44.2015542,22.8381062 L43.4153183,22.8381062 C42.9590779,22.8381062 42.5900955,23.2069705 42.5900955,23.6630649 L42.5900955,23.8530652 L40.9656412,23.8530652 L40.9656412,23.6630649 C40.9656412,22.3100964 42.0619166,21.2141719 43.4153183,21.2141719 L44.2015542,21.2141719 C45.5549559,21.2141719 46.6512312,22.3100964 46.6512312,23.6630649 C46.6512312,25.0110774 45.561781,26.1041236 44.2145498,26.1111121 L44.2145498,27.7773024 Z M42.5900955,29.3675401 L44.2145498,29.3675401 L44.2145498,30.9914743 L42.5900955,30.9914743 L42.5900955,29.3675401 Z M63.4851261,29.4016427 L65.1095804,29.4016427 L65.1095804,34.2060523 L63.4851261,34.2060523 L63.4851261,29.4016427 Z M63.4851261,35.8632772 L65.1095804,35.8632772 L65.1095804,37.4872115 L63.4851261,37.4872115 L63.4851261,35.8632772 Z M60.2362175,29.418288 L60.2362175,31.0422223 L53.8058152,31.0422223 L53.8058152,29.418288 L60.2362175,29.418288 Z M60.2362175,32.581712 L60.2362175,34.2056463 L53.8058152,34.2056463 L53.8058152,32.581712 L60.2362175,32.581712 Z M60.2362175,35.8632772 L60.2362175,37.4872115 L53.8058152,37.4872115 L53.8058152,35.8632772 L60.2362175,35.8632772 Z" id="Combined-Shape" fill="#FFFFFF" fill-rule="nonzero"></path>
                </g>
            </g>
        </g>
    </g>
</svg>