<?xml version="1.0" encoding="UTF-8"?>
<svg width="288px" height="918px" viewBox="0 0 288 918" version="1.1" xmlns="http://www.w3.org/2000/svg" xmlns:xlink="http://www.w3.org/1999/xlink">
    <!-- Generator: Sketch 49 (51002) - http://www.bohemiancoding.com/sketch -->
    <title>roadmap-line-mobile</title>
    <desc>Created with Sketch.</desc>
    <defs>
        <circle id="path-1" cx="9.9" cy="221.1" r="9.9"></circle>
        <circle id="path-2" cx="9.9" cy="221.1" r="9.9"></circle>
        <circle id="path-3" cx="9.9" cy="221.1" r="9.9"></circle>
        <circle id="path-4" cx="9.9" cy="221.1" r="9.9"></circle>
    </defs>
    <g id="Page-1" stroke="none" stroke-width="1" fill="none" fill-rule="evenodd">
        <g id="phome-home" transform="translate(-30.000000, -7903.000000)">
            <g id="roadmap-line-mobile" transform="translate(0.000000, 7884.000000)">
                <g id="Phase-3" transform="translate(268.000000, 517.000000)" fill="#FF5C3C">
                    <path d="M16.3453704,6.89987654 L17.8787037,7.93814815 C19.6268519,5.35728395 21.7373457,3.79185185 23.9040123,3.44185185 L23.9040123,21.5097531 L25.7558642,21.5097531 L25.7558642,3.4437037 C28.3089506,3.84246914 30.2509259,5.81469136 31.4756173,7.50296296 L32.9737654,6.41530864 C32.4003086,5.6245679 31.7966049,4.92703704 31.1682099,4.32271605 C31.5243827,4.43197531 31.8780864,4.54802469 32.2280864,4.67641975 L32.8675926,2.93814815 C30.4348765,2.04493827 27.8564815,1.57950617 25.2712963,1.53135802 C25.125,1.52271605 24.9774691,1.51530864 24.8299383,1.51530864 C24.7095679,1.51530864 24.5898148,1.52333333 24.4700617,1.52950617 C21.8558642,1.56839506 19.2478395,2.03506173 16.7916667,2.93876543 L17.4305556,4.67703704 C17.787963,4.54617284 18.1503086,4.42765432 18.5145062,4.31592593 C17.7466049,5.04555556 17.0182099,5.90666667 16.3453704,6.89987654" id="Fill-1"></path>
                    <path d="M33.3134568,42.7348765 L31.7801235,41.6966049 C30.0332099,44.2780864 27.9233333,45.8435185 25.7560494,46.1935185 L25.7560494,28.5472222 L23.9041975,28.5472222 L23.9041975,46.1910494 C21.3461728,45.792284 19.4023457,43.8151235 18.177037,42.1225309 L16.6776543,43.2089506 C17.2523457,44.0040123 17.8585185,44.7052469 18.4893827,45.312037 C18.1338272,45.2021605 17.7807407,45.0867284 17.431358,44.9583333 L16.7918519,46.6966049 C19.3616049,47.6410494 22.0659259,48.1200617 24.8301235,48.1200617 C27.5930864,48.1200617 30.2967901,47.6410494 32.8659259,46.6966049 L32.227037,44.9583333 C31.8702469,45.0891975 31.5091358,45.2070988 31.1455556,45.3194444 C31.9128395,44.5891975 32.6412346,43.7280864 33.3134568,42.7348765" id="Fill-3"></path>
                    <path d="M21.5217284,23.892037 L13.5081481,23.892037 C13.5612346,21.5259877 13.8093827,19.2161111 14.2698765,17.0173457 L12.4575309,16.637716 C11.9704938,18.9599383 11.71,21.3982099 11.6562963,23.892037 L3.40197531,23.892037 C3.51,21.3235185 4.06555556,18.8303086 5.0637037,16.4685802 L3.35753086,15.7475926 C2.14271605,18.6216667 1.52728395,21.6735185 1.52728395,24.817963 C1.52728395,28.1784568 2.22790123,31.422284 3.60876543,34.4580864 L5.2945679,33.6914198 C4.15074074,31.1778395 3.51987654,28.5080864 3.40320988,25.7438889 L11.6569136,25.7438889 C11.7118519,28.2870988 11.9822222,30.7729012 12.4871605,33.1383333 L14.2982716,32.7519136 C13.8198765,30.5130247 13.5630864,28.1568519 13.5081481,25.7438889 L21.5217284,25.7438889 L21.5217284,23.892037 Z" id="Fill-5"></path>
                    <path d="M28.137037,25.7438889 L36.1518519,25.7438889 C36.0987654,28.0519136 35.8623457,30.3099383 35.4216049,32.4617901 L37.2358025,32.8327778 C37.7012346,30.5605556 37.9506173,28.1772222 38.0037037,25.7438889 L46.2561728,25.7438889 C46.137037,28.5673457 45.4814815,31.2914198 44.2907407,33.850679 L45.9703704,34.6315432 C47.4049383,31.5469753 48.132716,28.2451235 48.132716,24.817963 C48.132716,21.4562346 47.4320988,18.2117901 46.0506173,15.1766049 L44.3648148,15.9432716 C45.5092593,18.4568519 46.1407407,21.1272222 46.2567901,23.892037 L38.0024691,23.892037 C37.9475309,21.3469753 37.6771605,18.8605556 37.1716049,16.4957407 L35.3604938,16.8827778 C35.8401235,19.1210494 36.0962963,21.4772222 36.1506173,23.892037 L28.137037,23.892037 L28.137037,25.7438889 Z" id="Fill-7"></path>
                    <polygon id="Fill-9" points="15.2928395 16.5641975 16.1304938 17.4018519 17.4403704 16.0925926 16.6020988 15.2549383"></polygon>
                    <polygon id="Fill-11" points="20.3209259 21.592284 21.1591975 22.4305556 22.4684568 21.1212963 21.6301852 20.2830247"></polygon>
                    <polygon id="Fill-13" points="24.1446296 22.7973457 23.3069753 21.9596914 21.9970988 23.2689506 22.8353704 24.1066049"></polygon>
                    <polygon id="Fill-15" points="24.8517284 25.4430864 25.1906173 25.7825926 26.0282716 24.944321 25.6893827 24.6054321 25.8208642 24.4739506 24.9825926 23.6350617 24.8504938 23.7671605 24.7190123 23.6350617 23.881358 24.4733333 24.0128395 24.6054321 23.6733333 24.944321 24.5116049 25.7832099"></polygon>
                    <polygon id="Fill-17" points="27.4968519 26.1495679 26.6591975 25.3119136 25.349321 26.6211728 26.1875926 27.4588272"></polygon>
                    <polygon id="Fill-19" points="18.6451235 19.9164815 19.4827778 20.7541358 20.7926543 19.4448765 19.9543827 18.6072222"></polygon>
                    <polygon id="Fill-21" points="16.9687037 18.2400617 17.8069753 19.0783333 19.1162346 17.7690741 18.277963 16.9308025"></polygon>
                    <polygon id="Fill-23" points="30.8491358 29.5018519 30.0114815 28.6641975 28.7016049 29.9734568 29.5398765 30.8111111"></polygon>
                    <polygon id="Fill-25" points="32.5249383 31.177716 31.687284 30.3400617 30.3774074 31.649321 31.215679 32.4869753"></polygon>
                    <polygon id="Fill-27" points="34.2014198 32.8541358 33.3637654 32.0164815 32.0538889 33.3257407 32.8921605 34.1633951"></polygon>
                    <polygon id="Fill-29" points="29.172716 27.8254321 28.3350617 26.9877778 27.0251852 28.297037 27.8634568 29.1346914"></polygon>
                    <polygon id="Fill-31" points="19.3238889 31.6490741 18.0146296 30.3398148 17.176358 31.1774691 18.4862346 32.4867284"></polygon>
                    <polygon id="Fill-33" points="17.6480247 33.3249383 16.3387654 32.015679 15.5004938 32.8533333 16.8103704 34.1625926"></polygon>
                    <polygon id="Fill-35" points="32.2620988 16.0928395 33.571358 17.4020988 34.4096296 16.5644444 33.0997531 15.2551852"></polygon>
                    <polygon id="Fill-37" points="25.5575926 22.7973457 26.8668519 24.1066049 27.7051235 23.2689506 26.3952469 21.9596914"></polygon>
                    <polygon id="Fill-39" points="28.9098765 19.4450617 30.2191358 20.754321 31.0574074 19.9166667 29.7475309 18.6074074"></polygon>
                    <polygon id="Fill-41" points="27.2334568 21.1209259 28.542716 22.4301852 29.3809877 21.5925309 28.0711111 20.2832716"></polygon>
                    <polygon id="Fill-43" points="32.7335185 18.2400617 31.4230247 16.9308025 30.5853704 17.7690741 31.8958642 19.0783333"></polygon>
                    <polygon id="Fill-45" points="21.0003086 29.9726543 19.6910494 28.6633951 18.8527778 29.5010494 20.1626543 30.8103086"></polygon>
                    <polygon id="Fill-47" points="24.3531481 26.6203704 23.0426543 25.3111111 22.205 26.1493827 23.5154938 27.458642"></polygon>
                    <polygon id="Fill-49" points="22.6761728 28.2968519 21.3669136 26.9875926 20.528642 27.8252469 21.8385185 29.1345062"></polygon>
                    <path d="M1.85185185,44.7567284 L13.8888889,44.7567284 L13.8888889,37.3456173 L1.85185185,37.3456173 L1.85185185,44.7567284 Z M9.29876543,47.8431481 L6.52098765,47.8431481 L6.52469136,46.6085802 L9.30246914,46.6085802 L9.29876543,47.8431481 Z M14.0432099,35.4937654 L1.69753086,35.4937654 C0.761111111,35.4937654 0,36.2554938 0,37.1912963 L0,44.9110494 C0,45.8474691 0.761111111,46.6085802 1.69753086,46.6085802 L4.67283951,46.6085802 L4.6691358,47.8431481 L3.23395062,47.8431481 L3.23395062,49.695 L12.4932099,49.695 L12.4932099,47.8431481 L11.1506173,47.8431481 L11.154321,46.6085802 L14.0432099,46.6085802 C14.9796296,46.6085802 15.7407407,45.8474691 15.7407407,44.9110494 L15.7407407,37.1912963 C15.7407407,36.2554938 14.9796296,35.4937654 14.0432099,35.4937654 Z" id="Fill-51"></path>
                    <path d="M35.8024691,44.7567284 L47.8395062,44.7567284 L47.8395062,37.3456173 L35.8024691,37.3456173 L35.8024691,44.7567284 Z M43.2493827,47.8431481 L40.4716049,47.8431481 L40.4753086,46.6085802 L43.2530864,46.6085802 L43.2493827,47.8431481 Z M47.9938272,35.4937654 L35.6481481,35.4937654 C34.7117284,35.4937654 33.9506173,36.2554938 33.9506173,37.1912963 L33.9506173,44.9110494 C33.9506173,45.8474691 34.7117284,46.6085802 35.6481481,46.6085802 L38.6234568,46.6085802 L38.6197531,47.8431481 L37.1845679,47.8431481 L37.1845679,49.695 L46.4438272,49.695 L46.4438272,47.8431481 L45.1012346,47.8431481 L45.1049383,46.6085802 L47.9938272,46.6085802 C48.9302469,46.6085802 49.691358,45.8474691 49.691358,44.9110494 L49.691358,37.1912963 C49.691358,36.2554938 48.9302469,35.4937654 47.9938272,35.4937654 Z" id="Fill-53"></path>
                    <path d="M35.8024691,9.26290123 L47.8395062,9.26290123 L47.8395062,1.85179012 L35.8024691,1.85179012 L35.8024691,9.26290123 Z M43.2493827,12.349321 L40.4716049,12.349321 L40.4753086,11.1147531 L43.2530864,11.1147531 L43.2493827,12.349321 Z M47.9938272,-6.17283951e-05 L35.6481481,-6.17283951e-05 C34.7117284,-6.17283951e-05 33.9506173,0.761666667 33.9506173,1.69746914 L33.9506173,9.41722222 C33.9506173,10.353642 34.7117284,11.1147531 35.6481481,11.1147531 L38.6234568,11.1147531 L38.6197531,12.349321 L37.1845679,12.349321 L37.1845679,14.2011728 L46.4438272,14.2011728 L46.4438272,12.349321 L45.1012346,12.349321 L45.1049383,11.1147531 L47.9938272,11.1147531 C48.9302469,11.1147531 49.691358,10.353642 49.691358,9.41722222 L49.691358,1.69746914 C49.691358,0.761666667 48.9302469,-6.17283951e-05 47.9938272,-6.17283951e-05 Z" id="Fill-54"></path>
                    <path d="M1.85185185,9.26290123 L13.8888889,9.26290123 L13.8888889,1.85179012 L1.85185185,1.85179012 L1.85185185,9.26290123 Z M9.29876543,12.349321 L6.52098765,12.349321 L6.52469136,11.1147531 L9.30246914,11.1147531 L9.29876543,12.349321 Z M1.69753086,11.1147531 L4.67283951,11.1147531 L4.6691358,12.349321 L3.23395062,12.349321 L3.23395062,14.2011728 L12.4932099,14.2011728 L12.4932099,12.349321 L11.1506173,12.349321 L11.154321,11.1147531 L14.0432099,11.1147531 C14.9796296,11.1147531 15.7407407,10.353642 15.7407407,9.41722222 L15.7407407,1.69746914 C15.7407407,0.761666667 14.9796296,-6.17283951e-05 14.0432099,-6.17283951e-05 L1.69753086,-6.17283951e-05 C0.761111111,-6.17283951e-05 0,0.761666667 0,1.69746914 L0,9.41722222 C0,10.353642 0.761111111,11.1147531 1.69753086,11.1147531 Z" id="Fill-55"></path>
                </g>
                <g id="Phase-2" transform="translate(269.000000, 255.000000)">
                    <path d="M22.7051786,46.5297024 C22.7051786,47.3005357 22.0783929,47.9273214 21.3075595,47.9273214 L6.03970238,47.9273214 C5.26946429,47.9273214 4.64267857,47.3005357 4.64267857,46.5297024 L4.64267857,3.7785119 C4.64267857,3.00767857 5.26946429,2.38089286 6.03970238,2.38089286 L21.3075595,2.38089286 C22.0783929,2.38089286 22.7051786,3.00767857 22.7051786,3.7785119 L22.7051786,46.5297024 Z M21.3075595,0.595178571 L6.03970238,0.595178571 C4.28494048,0.595178571 2.85696429,2.02315476 2.85696429,3.7785119 L2.85696429,46.5297024 C2.85696429,48.2844643 4.28494048,49.7130357 6.03970238,49.7130357 L21.3075595,49.7130357 C23.0629167,49.7130357 24.4908929,48.2844643 24.4908929,46.5297024 L24.4908929,3.7785119 C24.4908929,2.02315476 23.0629167,0.595178571 21.3075595,0.595178571 Z" id="Fill-1" fill="#FF5C3C"></path>
                    <polygon id="Fill-4" fill="#EA5C3F" points="8.3297619 6.96166667 19.0178571 6.96166667 19.0178571 5.17595238 8.3297619 5.17595238"></polygon>
                    <polygon id="Fill-6" fill="#FF5C3C" points="8.3297619 10.0152381 19.0178571 10.0152381 19.0178571 8.22952381 8.3297619 8.22952381"></polygon>
                    <polygon id="Fill-7" fill="#FF5C3C" points="8.3297619 13.0688095 19.0178571 13.0688095 19.0178571 11.2830952 8.3297619 11.2830952"></polygon>
                    <polygon id="Fill-8" fill="#FF5C3C" points="8.3297619 39.0247619 19.0178571 39.0247619 19.0178571 37.2390476 8.3297619 37.2390476"></polygon>
                    <polygon id="Fill-9" fill="#FF5C3C" points="8.3297619 42.0783333 19.0178571 42.0783333 19.0178571 40.292619 8.3297619 40.292619"></polygon>
                    <polygon id="Fill-10" fill="#FF5C3C" points="8.3297619 45.1319048 19.0178571 45.1319048 19.0178571 43.3461905 8.3297619 43.3461905"></polygon>
                    <polygon id="Fill-11" fill="#FF5C3C" points="14.6190476 26.047381 15.8095238 26.047381 15.8095238 24.2616667 14.6190476 24.2616667"></polygon>
                    <polygon id="Fill-12" fill="#FF5C3C" points="17 26.047381 17.4910714 26.047381 17.4910714 24.2616667 17 24.2616667"></polygon>
                    <polygon id="Fill-13" fill="#FF5C3C" points="9.85714286 26.047381 11.047619 26.047381 11.047619 24.2616667 9.85714286 24.2616667"></polygon>
                    <polygon id="Fill-14" fill="#FF5C3C" points="12.2380952 26.047381 13.4285714 26.047381 13.4285714 24.2616667 12.2380952 24.2616667"></polygon>
                    <path d="M45.6213095,46.5297024 C45.6213095,47.3005357 44.9945238,47.9273214 44.2242857,47.9273214 L28.9564286,47.9273214 C28.1855952,47.9273214 27.5588095,47.3005357 27.5588095,46.5297024 L27.5588095,3.7785119 C27.5588095,3.00767857 28.1855952,2.38089286 28.9564286,2.38089286 L44.2242857,2.38089286 C44.9945238,2.38089286 45.6213095,3.00767857 45.6213095,3.7785119 L45.6213095,46.5297024 Z M44.2242857,0.595178571 L28.9564286,0.595178571 C27.2016667,0.595178571 25.7730952,2.02315476 25.7730952,3.7785119 L25.7730952,46.5297024 C25.7730952,48.2844643 27.2016667,49.7130357 28.9564286,49.7130357 L44.2242857,49.7130357 C45.9796429,49.7130357 47.4070238,48.2844643 47.4070238,46.5297024 L47.4070238,3.7785119 C47.4070238,2.02315476 45.9796429,0.595178571 44.2242857,0.595178571 Z" id="Fill-15" fill="#FF5C3C"></path>
                    <polygon id="Fill-16" fill="#EA5C3F" points="31.2464286 6.96166667 41.9339286 6.96166667 41.9339286 5.17595238 31.2464286 5.17595238"></polygon>
                    <polygon id="Fill-17" fill="#FF5C3C" points="31.2464286 10.0152381 41.9339286 10.0152381 41.9339286 8.22952381 31.2464286 8.22952381"></polygon>
                    <polygon id="Fill-18" fill="#FF5C3C" points="31.2464286 13.0688095 41.9339286 13.0688095 41.9339286 11.2830952 31.2464286 11.2830952"></polygon>
                    <polygon id="Fill-19" fill="#FF5C3C" points="31.2464286 39.0247619 41.9339286 39.0247619 41.9339286 37.2390476 31.2464286 37.2390476"></polygon>
                    <polygon id="Fill-20" fill="#FF5C3C" points="31.2464286 42.0783333 41.9339286 42.0783333 41.9339286 40.292619 31.2464286 40.292619"></polygon>
                    <polygon id="Fill-21" fill="#FF5C3C" points="31.2464286 45.1319048 41.9339286 45.1319048 41.9339286 43.3461905 31.2464286 43.3461905"></polygon>
                    <polygon id="Fill-22" fill="#FF5C3C" points="37.535119 26.047381 38.7255952 26.047381 38.7255952 24.2616667 37.535119 24.2616667"></polygon>
                    <polygon id="Fill-23" fill="#FF5C3C" points="35.1541667 26.047381 36.3446429 26.047381 36.3446429 24.2616667 35.1541667 24.2616667"></polygon>
                    <polygon id="Fill-24" fill="#FF5C3C" points="32.7732143 26.047381 33.9636905 26.047381 33.9636905 24.2616667 32.7732143 24.2616667"></polygon>
                    <polygon id="Fill-25" fill="#FF5C3C" points="39.9160714 26.047381 40.4071429 26.047381 40.4071429 24.2616667 39.9160714 24.2616667"></polygon>
                </g>
                <g id="Phase-1" transform="translate(268.000000, 19.000000)" fill="#FF5C3C">
                    <path d="M8.02469136,15.4322222 L10.8024691,15.4322222 L10.8024691,14.1976543 L8.02469136,14.1976543 L8.02469136,15.4322222 Z M1.85185185,11.7285185 L1.85185185,2.46925926 C1.85185185,2.12851852 2.12839506,1.85197531 2.4691358,1.85197531 L16.3580247,1.85197531 C16.6987654,1.85197531 16.9753086,2.12851852 16.9753086,2.46925926 L16.9753086,11.7285185 C16.9753086,12.0692593 16.6987654,12.3458025 16.3580247,12.3458025 L2.4691358,12.3458025 C2.12839506,12.3458025 1.85185185,12.0692593 1.85185185,11.7285185 Z M12.654321,14.1976543 L16.3580247,14.1976543 C17.7197531,14.1976543 18.8271605,13.0902469 18.8271605,11.7285185 L18.8271605,2.46925926 C18.8271605,1.10753086 17.7197531,0.00012345679 16.3580247,0.00012345679 L2.4691358,0.00012345679 C1.10740741,0.00012345679 0,1.10753086 0,2.46925926 L0,11.7285185 C0,13.0902469 1.10740741,14.1976543 2.4691358,14.1976543 L6.17283951,14.1976543 L6.17283951,15.4322222 L4.01234568,15.4322222 L4.01234568,17.2840741 L14.8148148,17.2840741 L14.8148148,15.4322222 L12.654321,15.4322222 L12.654321,14.1976543 Z" id="Fill-1"></path>
                    <path d="M47.8582099,44.1550617 C47.8582099,44.4958025 47.5816667,44.7723457 47.2409259,44.7723457 L33.352037,44.7723457 C33.0112963,44.7723457 32.7347531,44.4958025 32.7347531,44.1550617 L32.7347531,34.8958025 C32.7347531,34.5550617 33.0112963,34.2785185 33.352037,34.2785185 L47.2409259,34.2785185 C47.5816667,34.2785185 47.8582099,34.5550617 47.8582099,34.8958025 L47.8582099,44.1550617 Z M38.9075926,47.8587654 L41.6853704,47.8587654 L41.6853704,46.6241975 L38.9075926,46.6241975 L38.9075926,47.8587654 Z M47.2409259,32.4266667 L33.352037,32.4266667 C31.9903086,32.4266667 30.8829012,33.5340741 30.8829012,34.8958025 L30.8829012,44.1550617 C30.8829012,45.5167901 31.9903086,46.6241975 33.352037,46.6241975 L37.0557407,46.6241975 L37.0557407,47.8587654 L34.8952469,47.8587654 L34.8952469,49.7106173 L45.697716,49.7106173 L45.697716,47.8587654 L43.5372222,47.8587654 L43.5372222,46.6241975 L47.2409259,46.6241975 C48.6026543,46.6241975 49.7100617,45.5167901 49.7100617,44.1550617 L49.7100617,34.8958025 C49.7100617,33.5340741 48.6026543,32.4266667 47.2409259,32.4266667 Z" id="Fill-3"></path>
                    <polygon id="Fill-4" points="20.2574074 8.02666667 21.5481481 8.02666667 21.5481481 6.17481481 20.2574074 6.17481481"></polygon>
                    <polygon id="Fill-5" points="35.7462963 8.02666667 37.037037 8.02666667 37.037037 6.17481481 35.7462963 6.17481481"></polygon>
                    <polygon id="Fill-6" points="38.3277778 8.02666667 38.6734568 8.02666667 38.6734568 6.17481481 38.3277778 6.17481481"></polygon>
                    <polygon id="Fill-7" points="30.5833333 8.02666667 31.8746914 8.02666667 31.8746914 6.17481481 30.5833333 6.17481481"></polygon>
                    <polygon id="Fill-8" points="33.1648148 8.02666667 34.4555556 8.02666667 34.4555556 6.17481481 33.1648148 6.17481481"></polygon>
                    <polygon id="Fill-9" points="28.0018519 8.02666667 29.2925926 8.02666667 29.2925926 6.17481481 28.0018519 6.17481481"></polygon>
                    <polygon id="Fill-10" points="22.8388889 8.02666667 24.1302469 8.02666667 24.1302469 6.17481481 22.8388889 6.17481481"></polygon>
                    <polygon id="Fill-11" points="25.4203704 8.02666667 26.7111111 8.02666667 26.7111111 6.17481481 25.4203704 6.17481481"></polygon>
                    <polygon id="Fill-12" points="39.3253086 31.0723457 41.1771605 31.0723457 41.1771605 30.0575309 39.3253086 30.0575309"></polygon>
                    <polygon id="Fill-13" points="39.3253086 28.9050617 41.1771605 28.9050617 41.1771605 27.7525926 39.3253086 27.7525926"></polygon>
                    <polygon id="Fill-14" points="39.3253086 26.5995062 41.1771605 26.5995062 41.1771605 25.447037 39.3253086 25.447037"></polygon>
                    <polygon id="Fill-15" points="39.3253086 10.4655556 41.1771605 10.4655556 41.1771605 9.31308642 39.3253086 9.31308642"></polygon>
                    <polygon id="Fill-16" points="39.3253086 15.0748148 41.1771605 15.0748148 41.1771605 13.9223457 39.3253086 13.9223457"></polygon>
                    <polygon id="Fill-17" points="39.3253086 24.2951852 41.1771605 24.2951852 41.1771605 23.142716 39.3253086 23.142716"></polygon>
                    <polygon id="Fill-18" points="39.3253086 12.7698765 41.1771605 12.7698765 41.1771605 11.6180247 39.3253086 11.6180247"></polygon>
                    <polygon id="Fill-19" points="39.3253086 17.3803704 41.1771605 17.3803704 41.1771605 16.2279012 39.3253086 16.2279012"></polygon>
                    <polygon id="Fill-20" points="39.3253086 21.9902469 41.1771605 21.9902469 41.1771605 20.8377778 39.3253086 20.8377778"></polygon>
                    <polygon id="Fill-21" points="39.3253086 19.6846914 41.1771605 19.6846914 41.1771605 18.5322222 39.3253086 18.5322222"></polygon>
                    <polygon id="Fill-22" points="22.9265432 40.4328395 24.217284 40.4328395 24.217284 38.5809877 22.9265432 38.5809877"></polygon>
                    <polygon id="Fill-23" points="15.1820988 40.4328395 16.4728395 40.4328395 16.4728395 38.5809877 15.1820988 38.5809877"></polygon>
                    <polygon id="Fill-24" points="10.9641975 40.4328395 11.3098765 40.4328395 11.3098765 38.5809877 10.9641975 38.5809877"></polygon>
                    <polygon id="Fill-25" points="20.3450617 40.4328395 21.6358025 40.4328395 21.6358025 38.5809877 20.3450617 38.5809877"></polygon>
                    <polygon id="Fill-26" points="12.6006173 40.4328395 13.891358 40.4328395 13.891358 38.5809877 12.6006173 38.5809877"></polygon>
                    <polygon id="Fill-27" points="28.0895062 40.4328395 29.3802469 40.4328395 29.3802469 38.5809877 28.0895062 38.5809877"></polygon>
                    <polygon id="Fill-28" points="25.5074074 40.4328395 26.7987654 40.4328395 26.7987654 38.5809877 25.5074074 38.5809877"></polygon>
                    <polygon id="Fill-29" points="17.762963 40.4328395 19.054321 40.4328395 19.054321 38.5809877 17.762963 38.5809877"></polygon>
                    <polygon id="Fill-30" points="8.46049383 32.7525926 10.3123457 32.7525926 10.3123457 31.6124691 8.46049383 31.6124691"></polygon>
                    <polygon id="Fill-31" points="8.46049383 37.3106173 10.3123457 37.3106173 10.3123457 36.1711111 8.46049383 36.1711111"></polygon>
                    <polygon id="Fill-32" points="8.46049383 35.0316049 10.3123457 35.0316049 10.3123457 33.8920988 8.46049383 33.8920988"></polygon>
                    <polygon id="Fill-33" points="8.46049383 30.4735802 10.3123457 30.4735802 10.3123457 29.3340741 8.46049383 29.3340741"></polygon>
                    <polygon id="Fill-34" points="8.46049383 28.1951852 10.3123457 28.1951852 10.3123457 27.0550617 8.46049383 27.0550617"></polygon>
                    <polygon id="Fill-35" points="8.46049383 19.0785185 10.3123457 19.0785185 10.3123457 18.6155556 8.46049383 18.6155556"></polygon>
                    <polygon id="Fill-36" points="8.46049383 21.3575309 10.3123457 21.3575309 10.3123457 20.2174074 8.46049383 20.2174074"></polygon>
                    <polygon id="Fill-37" points="8.46049383 25.9155556 10.3123457 25.9155556 10.3123457 24.7760494 8.46049383 24.7760494"></polygon>
                    <polygon id="Fill-38" points="8.46049383 23.6365432 10.3123457 23.6365432 10.3123457 22.497037 8.46049383 22.497037"></polygon>
                    <path d="M41.1771605,6.17481481 L43.9549383,6.17481481 L43.9549383,3.39703704 L41.1771605,3.39703704 L41.1771605,6.17481481 Z M40.2512346,8.02666667 L45.8067901,8.02666667 L45.8067901,1.54518519 L39.3253086,1.54518519 L39.3253086,7.10074074 L39.3253086,7.87234568 L39.3253086,8.02666667 L39.4796296,8.02666667 L40.2512346,8.02666667 Z" id="Fill-39"></path>
                    <path d="M5.66234568,43.2346914 L8.44012346,43.2346914 L8.44012346,40.4569136 L5.66234568,40.4569136 L5.66234568,43.2346914 Z M10.2919753,38.6050617 L10.1580247,38.6050617 L10.1580247,38.5809877 L9.38641975,38.5809877 L9.38641975,38.6050617 L3.81049383,38.6050617 L3.81049383,45.0865432 L10.2919753,45.0865432 L10.2919753,39.5069136 L10.3123457,39.5069136 L10.3123457,38.7353086 L10.2919753,38.7353086 L10.2919753,38.6050617 Z" id="Fill-40"></path>
                </g>
                <g id="Phase-4" transform="translate(268.000000, 741.000000)" fill="#FF5C3C">
                    <path d="M17.7192683,42.1928049 C17.9534146,42.1928049 18.187561,42.1037805 18.3662195,41.925122 C18.7229268,41.5678049 18.7229268,40.9885366 18.3662195,40.6312195 L18.3015854,40.5671951 C17.9442683,40.209878 17.3656098,40.209878 17.0082927,40.5671951 C16.6509756,40.9245122 16.6509756,41.5031707 17.0082927,41.8604878 L17.0723171,41.925122 C17.2509756,42.1037805 17.485122,42.1928049 17.7192683,42.1928049" id="Fill-1"></path>
                    <path d="M20.4935366,38.4503659 C20.7264634,38.4503659 20.9593902,38.3619512 21.137439,38.185122 C21.4965854,37.8296341 21.4984146,37.2509756 21.1429268,36.8918293 L21.0789024,36.8271951 C20.7234146,36.4680488 20.1435366,36.4656098 19.7856098,36.8210976 C19.4264634,37.1765854 19.4240244,37.7552439 19.7795122,38.1143902 L19.8441463,38.1796341 C20.0228049,38.360122 20.2581707,38.4503659 20.4935366,38.4503659" id="Fill-3"></path>
                    <path d="M46.259878,30.2448171 C46.0196341,30.4844512 45.6019512,30.4832317 45.3629268,30.2448171 L35.1647561,20.0460366 C34.9171951,19.7990854 34.9171951,19.3966463 35.1647561,19.1496951 L36.7135366,17.6015244 C41.3037805,13.010061 45.4586585,7.94847561 49.0629268,2.55640244 L49.6580488,1.51554878 L48.0684146,0.610060976 L47.5239024,1.56676829 C43.9897561,6.84969512 39.9178049,11.8088415 35.4202439,16.3082317 L33.8714634,17.8564024 C32.9104878,18.8167683 32.9104878,20.3789634 33.8714634,21.339939 L34.802561,22.2704268 L34.777561,22.3704268 C34.4531707,23.6814024 31.6720732,24.1338415 30.9543902,24.1375 C30.9306098,24.1375 30.9068293,24.1387195 30.8830488,24.1405488 L26.5757317,24.4789634 C24.0903659,24.4875 22.2507317,25.342378 20.2470732,27.4112805 L17.2860976,30.3539634 C16.705,30.9295732 16.3842683,31.6978659 16.382439,32.5161585 C16.38,33.3344512 16.6982927,34.1039634 17.2763415,34.6820122 C17.8531707,35.2594512 18.6196341,35.5765244 19.4354878,35.5765244 C20.2513415,35.5765244 21.0184146,35.2594512 21.5940244,34.6820122 C22.3397561,33.9368902 24.0665854,32.3375 25.0092683,31.4679878 L33.5970732,40.0557927 C33.852561,40.3112805 33.9836585,40.664939 33.955,41.0265244 C33.9263415,41.392378 33.7434146,41.7161585 33.4391463,41.9381098 C32.9336585,42.3057927 32.1940244,42.2216463 31.7159756,41.7442073 L26.0092683,36.0368902 C25.6519512,35.6795732 25.0732927,35.6795732 24.7159756,36.0368902 C24.3586585,36.3942073 24.3586585,36.9728659 24.7159756,37.3301829 L31.6989024,44.3143293 C31.93,44.5454268 32.0489024,44.8661585 32.034878,45.217378 C32.0190244,45.5972561 31.8458537,45.9521341 31.5617073,46.1917683 C31.1104878,46.5716463 30.2873171,46.5088415 29.8360976,46.0588415 L28.5440244,44.7655488 C28.5293902,44.7509146 28.5141463,44.7356707 28.4995122,44.7204268 L22.9129268,39.1338415 C22.5556098,38.7765244 21.9769512,38.7765244 21.6196341,39.1338415 C21.2623171,39.4911585 21.2623171,40.0698171 21.6196341,40.4271341 L27.234878,46.0435976 C27.4653659,46.2893293 27.582439,46.6088415 27.5665854,46.9484756 C27.5489024,47.3003049 27.3891463,47.6185976 27.1141463,47.8460366 C26.6306098,48.2454268 25.8739024,48.1789634 25.3946341,47.7009146 L22.3604878,44.6381098 C22.2934146,44.5557927 22.2220732,44.4765244 22.1464634,44.4009146 L19.8964634,42.1515244 C19.5397561,41.7948171 18.9617073,41.7935976 18.6043902,42.1503049 C18.2470732,42.5057927 18.2452439,43.0844512 18.600122,43.442378 L20.9860976,45.8509146 C21.1452439,46.0698171 21.2269512,46.3320122 21.2202439,46.6051829 C21.2117073,46.9387195 21.0690244,47.2472561 20.8184146,47.4740854 C20.3720732,47.8801829 19.5464634,47.8301829 19.0873171,47.3716463 L15.1263415,43.4106707 C12.4293902,40.7131098 10.2592683,37.5332317 8.67573171,33.9551829 C8.6452439,33.8856707 8.61231707,33.8161585 6.58487805,30.5411585 L13.505,23.6216463 C14.8269512,25.2320122 17.6592683,25.6033537 18.5013415,25.6033537 L20.8812195,25.6033537 L20.8812195,23.7740854 L18.5019512,23.7740854 C17.8428049,23.7698171 15.4556098,23.3881098 14.8129268,22.3137195 L15.7867073,21.339939 C16.7476829,20.3789634 16.7476829,18.8167683 15.7867073,17.8564024 L14.2385366,16.3082317 C9.74219512,11.8112805 5.66963415,6.85152439 2.13426829,1.56676829 L1.58853659,0.60945122 L0.00012195122,1.51615854 L0.561707317,2.50091463 L0.595243902,2.55640244 C4.20134146,7.95030488 8.35682927,13.0125 12.9452439,17.6015244 L14.4934146,19.1496951 C14.7409756,19.3966463 14.7409756,19.7990854 14.4934146,20.0460366 L4.30012195,30.2387195 L4.2604878,30.2631098 L4.26231707,30.2655488 C4.0202439,30.4783537 3.62878049,30.4746951 3.39829268,30.2448171 L1.39585366,28.2429878 L0.102560976,29.5362805 L2.105,31.5381098 C2.5702439,32.0039634 3.18853659,32.260061 3.84646341,32.260061 C4.34890244,32.260061 4.82634146,32.1088415 5.23182927,31.8314024 C5.9897561,33.0570122 6.87512195,34.492378 7.02329268,34.742378 C8.69585366,38.5064024 10.9860976,41.857622 13.8330488,44.7039634 L17.7940244,48.664939 C18.9367073,49.807622 20.8842683,49.8838415 22.0470732,48.8295732 C22.3958537,48.5137195 22.6610976,48.132622 22.8306098,47.7118902 L24.0989024,48.9917683 C24.7214634,49.6131098 25.5489024,49.9301829 26.3678049,49.9301829 C27.052561,49.9301829 27.7312195,49.7082317 28.2787805,49.2570122 C28.7232927,48.8893293 29.0519512,48.4070122 29.2342683,47.8716463 C30.3421951,48.4838415 31.7732927,48.4051829 32.7403659,47.5905488 C33.4159756,47.0216463 33.8245122,46.1844512 33.8623171,45.2942073 C33.8830488,44.7966463 33.784878,44.3082317 33.5830488,43.8716463 C33.9129268,43.7765244 34.2293902,43.6253049 34.5153659,43.417378 C35.2482927,42.8832317 35.7092683,42.0637195 35.7793902,41.1679878 C35.8489024,40.2728659 35.525122,39.3954268 34.8903659,38.7618902 L27.8604878,31.7314024 C28.7806098,31.8777439 29.707439,31.9588415 30.6336585,31.9588415 C32.5281707,31.9588415 34.4196341,31.6545732 36.2385366,31.0472561 L35.659878,29.3125 C32.7867073,30.2692073 29.7135366,30.3881098 26.775122,29.6533537 L25.3318293,29.292378 L25.3190244,29.342378 C25.0147561,29.242378 24.6702439,29.2954268 24.4190244,29.5259146 C24.2952439,29.6393293 21.3769512,32.3131098 20.300122,33.3893293 C19.8391463,33.8515244 19.0330488,33.8509146 18.5696341,33.3887195 C18.3379268,33.1570122 18.2104878,32.8490854 18.2110976,32.5198171 C18.2123171,32.1917683 18.3409756,31.8838415 18.575122,31.6527439 L21.5489024,28.6966463 C23.234878,26.9551829 24.607439,26.3082317 26.6123171,26.3082317 C26.6360976,26.3082317 26.659878,26.3070122 26.6842683,26.3051829 L31.0263415,25.9637195 C31.5629268,25.9338415 34.9489024,25.6527439 36.1885366,23.657622 L42.9982927,30.467378 C42.7281707,31.0198171 42.4489024,31.5618902 42.1708537,32.057622 C41.1220732,33.7332317 40.8818293,34.1301829 40.8104878,34.2588415 L40.809878,34.2582317 L38.3867073,38.7484756 C37.6982927,39.8112805 36.9397561,40.839939 36.1312195,41.8057927 L37.5336585,42.9801829 C38.3976829,41.9478659 39.2086585,40.8484756 39.9428049,39.7106707 L42.4202439,35.1277439 L42.4263415,35.1155488 C42.5214634,34.9515244 43.1580488,33.9277439 43.7434146,32.9911585 C43.9623171,32.6015244 44.175122,32.2009146 44.3818293,31.7954268 C44.7970732,32.0929878 45.2897561,32.260061 45.8117073,32.260061 C46.4696341,32.260061 47.0879268,32.0039634 47.5531707,31.5381098 L49.555,29.5362805 L48.2617073,28.2429878 L46.259878,30.2448171 Z" id="Fill-5"></path>
                </g>
                <rect id="Rectangle-15-Copy-2" fill="#0A283E" transform="translate(39.300000, 476.000000) scale(1, -1) rotate(-90.000000) translate(-39.300000, -476.000000) " x="-403.7" y="474.5" width="886" height="3"></rect>
                <g id="Group-3" transform="translate(145.500000, 280.800000) rotate(90.000000) translate(-145.500000, -280.800000) translate(135.500000, 165.300000)">
                    <rect id="Rectangle-16" fill="#0A283E" x="9" y="7.8" width="2" height="210"></rect>
                    <g id="Oval">
                        <use fill="#4324BA" fill-rule="evenodd" xlink:href="#path-1"></use>
                        <circle stroke="#FFFFFF" stroke-width="3.59999979" cx="9.9" cy="221.1" r="8.10000011"></circle>
                        <circle stroke="#0A283E" stroke-width="1.79999989" cx="9.9" cy="221.1" r="9.00000005"></circle>
                    </g>
                    <circle id="Oval-3" fill="#0A283E" cx="9.9" cy="4.5" r="4.5"></circle>
                </g>
                <g id="Group-3" transform="translate(145.500000, 540.800000) rotate(90.000000) translate(-145.500000, -540.800000) translate(135.500000, 425.300000)">
                    <rect id="Rectangle-16" fill="#0A283E" x="9" y="7.8" width="2" height="210"></rect>
                    <g id="Oval">
                        <use fill="#4324BA" fill-rule="evenodd" xlink:href="#path-2"></use>
                        <circle stroke="#FFFFFF" stroke-width="3.59999979" cx="9.9" cy="221.1" r="8.10000011"></circle>
                        <circle stroke="#0A283E" stroke-width="1.79999989" cx="9.9" cy="221.1" r="9.00000005"></circle>
                    </g>
                    <circle id="Oval-3" fill="#0A283E" cx="9.9" cy="4.5" r="4.5"></circle>
                </g>
                <g id="Group-3" transform="translate(145.500000, 40.800000) rotate(90.000000) translate(-145.500000, -40.800000) translate(135.500000, -74.700000)">
                    <rect id="Rectangle-16" fill="#0A283E" x="9" y="7.8" width="2" height="210"></rect>
                    <g id="Oval">
                        <use fill="#4324BA" fill-rule="evenodd" xlink:href="#path-3"></use>
                        <circle stroke="#FFFFFF" stroke-width="3.59999979" cx="9.9" cy="221.1" r="8.10000011"></circle>
                        <circle stroke="#0A283E" stroke-width="1.79999989" cx="9.9" cy="221.1" r="9.00000005"></circle>
                    </g>
                    <circle id="Oval-3" fill="#0A283E" cx="9.9" cy="4.5" r="4.5"></circle>
                </g>
                <g id="Group-3" transform="translate(145.500000, 760.800000) rotate(90.000000) translate(-145.500000, -760.800000) translate(135.500000, 645.300000)">
                    <rect id="Rectangle-16" fill="#0A283E" x="9" y="7.8" width="2" height="210"></rect>
                    <g id="Oval">
                        <use fill="#4324BA" fill-rule="evenodd" xlink:href="#path-4"></use>
                        <circle stroke="#FFFFFF" stroke-width="3.59999979" cx="9.9" cy="221.1" r="8.10000011"></circle>
                        <circle stroke="#0A283E" stroke-width="1.79999989" cx="9.9" cy="221.1" r="9.00000005"></circle>
                    </g>
                    <circle id="Oval-3" fill="#0A283E" cx="9.9" cy="4.5" r="4.5"></circle>
                </g>
                <rect id="Rectangle-15-Copy" fill="#0A283E" transform="translate(39.000000, 928.000000) scale(1, -1) rotate(-90.000000) translate(-39.000000, -928.000000) " x="30" y="919" width="18" height="18"></rect>
                <text id="Minimum-Viable-Produ" font-family="Ubuntu" font-size="16" font-weight="normal" fill="#333333">
                    <tspan x="73" y="160">Minimum Viable Product on </tspan>
                    <tspan x="73" y="178">Testnet</tspan>
                    <tspan x="73" y="196">Life-Cycle Of Fund Creation And </tspan>
                    <tspan x="73" y="214">Management On The Blockchain</tspan>
                </text>
                <text id="Phase-1-Testnet-Depl" font-family="Ubuntu" font-size="16" font-weight="normal" fill="#FF5C3C">
                    <tspan x="73" y="114">Phase 1</tspan>
                    <tspan x="73" y="132">Testnet Deployment</tspan>
                </text>
                <text id="Production-Version-O" font-family="Ubuntu" font-size="16" font-weight="normal" fill="#333333">
                    <tspan x="73" y="420">Production Version On MainNet</tspan>
                    <tspan x="73" y="438">Singapore Customers Ready</tspan>
                    <tspan x="73" y="456">Onboarding Of Investors</tspan>
                    <tspan x="73" y="474">Fundraising For Pilot Customers</tspan>
                </text>
                <text id="Phase-2-Customers-Re" font-family="Ubuntu-Medium, Ubuntu" font-size="16" font-weight="400" fill="#FF5C3C">
                    <tspan x="73" y="370">Phase 2 </tspan>
                    <tspan x="73" y="392">Customers Ready On MainNet</tspan>
                </text>
                <text id="Minimum-Viable-Produ" font-family="Ubuntu" font-size="16" font-weight="normal" fill="#333333">
                    <tspan x="73" y="658">Minimum Viable Product on </tspan>
                    <tspan x="73" y="676">Testnet</tspan>
                    <tspan x="73" y="694">Life-Cycle Of Fund Creation And </tspan>
                    <tspan x="73" y="712">Management On The Blockchain</tspan>
                </text>
                <text id="Phase-3-Internationa" font-family="Ubuntu-Medium, Ubuntu" font-size="16" font-weight="400" fill="#FF5C3C">
                    <tspan x="73" y="608">Phase 3</tspan>
                    <tspan x="73" y="630">International Deployment</tspan>
                </text>
                <text id="All-regulatory-compl" font-family="Ubuntu" font-size="16" font-weight="normal" fill="#333333">
                    <tspan x="73" y="880">All regulatory compliance met</tspan>
                    <tspan x="73" y="898">International customers ready</tspan>
                </text>
                <text id="Phase-4-Internationa" font-family="Ubuntu-Medium, Ubuntu" font-size="16" font-weight="400" fill="#FF5C3C">
                    <tspan x="73" y="830">Phase 4</tspan>
                    <tspan x="73" y="852">International Customer Ready</tspan>
                </text>
                <rect id="Rectangle-24" x="0" y="0" width="375" height="959"></rect>
            </g>
        </g>
    </g>
</svg>