<?xml version="1.0" encoding="UTF-8"?>
<svg width="1163px" height="228px" viewBox="0 0 1163 228" version="1.1" xmlns="http://www.w3.org/2000/svg" xmlns:xlink="http://www.w3.org/1999/xlink">
    <!-- Generator: Sketch 49 (51002) - http://www.bohemiancoding.com/sketch -->
    <title>roadmap-line</title>
    <desc>Created with Sketch.</desc>
    <defs>
        <circle id="path-1" cx="16.5" cy="68.5" r="16.5"></circle>
        <circle id="path-2" cx="16.5" cy="68.5" r="16.5"></circle>
        <circle id="path-3" cx="16.5" cy="68.5" r="16.5"></circle>
        <circle id="path-4" cx="16.5" cy="68.5" r="16.5"></circle>
    </defs>
    <g id="Page-1" stroke="none" stroke-width="1" fill="none" fill-rule="evenodd">
        <g id="Home" transform="translate(-217.000000, -10769.000000)">
            <g id="Roadmap" transform="translate(0.000000, 10499.000000)">
                <g id="roadmap-line" transform="translate(219.000000, 271.000000)">
                    <g id="Line" transform="translate(1.000000, 142.000000)">
                        <rect id="Rectangle-15-Copy-2" fill="#0A283E" x="0" y="13" width="1160" height="5"></rect>
                        <g id="Group-3" transform="translate(335.500000, 42.500000) scale(1, -1) translate(-335.500000, -42.500000) translate(319.000000, 0.000000)">
                            <rect id="Rectangle-16" fill="#0A283E" x="15" y="8" width="3" height="46"></rect>
                            <g id="Oval">
                                <use fill="#4324BA" fill-rule="evenodd" xlink:href="#path-1"></use>
                                <circle stroke="#FFFFFF" stroke-width="6" cx="16.5" cy="68.5" r="13.5"></circle>
                                <circle stroke="#0A283E" stroke-width="3" cx="16.5" cy="68.5" r="15"></circle>
                            </g>
                            <circle id="Oval-3" fill="#0A283E" cx="16.5" cy="7.5" r="7.5"></circle>
                        </g>
                        <g id="Group-3" transform="translate(635.500000, 42.500000) scale(1, -1) translate(-635.500000, -42.500000) translate(619.000000, 0.000000)">
                            <rect id="Rectangle-16" fill="#0A283E" x="15" y="8" width="3" height="46"></rect>
                            <g id="Oval">
                                <use fill="#4324BA" fill-rule="evenodd" xlink:href="#path-2"></use>
                                <circle stroke="#FFFFFF" stroke-width="6" cx="16.5" cy="68.5" r="13.5"></circle>
                                <circle stroke="#0A283E" stroke-width="3" cx="16.5" cy="68.5" r="15"></circle>
                            </g>
                            <circle id="Oval-3" fill="#0A283E" cx="16.5" cy="7.5" r="7.5"></circle>
                        </g>
                        <g id="Group-3" transform="translate(35.500000, 42.500000) scale(1, -1) translate(-35.500000, -42.500000) translate(19.000000, 0.000000)">
                            <rect id="Rectangle-16" fill="#0A283E" x="15" y="8" width="3" height="46"></rect>
                            <g id="Oval">
                                <use fill="#4324BA" fill-rule="evenodd" xlink:href="#path-3"></use>
                                <circle stroke="#FFFFFF" stroke-width="6" cx="16.5" cy="68.5" r="13.5"></circle>
                                <circle stroke="#0A283E" stroke-width="3" cx="16.5" cy="68.5" r="15"></circle>
                            </g>
                            <circle id="Oval-3" fill="#0A283E" cx="16.5" cy="7.5" r="7.5"></circle>
                        </g>
                        <g id="Group-3" transform="translate(935.500000, 42.500000) scale(1, -1) translate(-935.500000, -42.500000) translate(919.000000, 0.000000)">
                            <rect id="Rectangle-16" fill="#0A283E" x="15" y="8" width="3" height="46"></rect>
                            <g id="Oval">
                                <use fill="#4324BA" fill-rule="evenodd" xlink:href="#path-4"></use>
                                <circle stroke="#FFFFFF" stroke-width="6" cx="16.5" cy="68.5" r="13.5"></circle>
                                <circle stroke="#0A283E" stroke-width="3" cx="16.5" cy="68.5" r="15"></circle>
                            </g>
                            <circle id="Oval-3" fill="#0A283E" cx="16.5" cy="7.5" r="7.5"></circle>
                        </g>
                    </g>
                    <g id="Phase-3" transform="translate(600.000000, 0.000000)">
                        <path d="M26.219625,5.668625 C30.117125,4.236125 34.329625,3.454875 38.724625,3.454875 C43.118375,3.454875 47.329625,4.236125 51.227125,5.667375" id="Stroke-1" stroke="#FF5C3C" stroke-width="3"></path>
                        <path d="M5.71175,54.700625 C3.633,50.130625 2.47425,45.051875 2.47425,39.704375 C2.47425,34.699375 3.48925,29.930625 5.32175,25.594375" id="Stroke-3" stroke="#FF5C3C" stroke-width="3"></path>
                        <path d="M51.22575,73.74 C47.3295,75.1725 43.11825,75.95375 38.7245,75.95375 C34.3295,75.95375 30.11825,75.1725 26.22075,73.74" id="Stroke-5" stroke="#FF5C3C" stroke-width="3"></path>
                        <path d="M71.736,24.70675 C73.816,29.27675 74.97475,34.3555 74.97475,39.70425 C74.97475,45.158 73.76975,50.3305 71.611,54.9705" id="Stroke-7" stroke="#FF5C3C" stroke-width="3"></path>
                        <path d="M26.222,11.51825 C29.637,6.47575 33.987,3.4545 38.7245,3.4545 C43.22325,3.4545 47.372,6.1795 50.7045,10.77325" id="Stroke-9" stroke="#FF5C3C" stroke-width="3"></path>
                        <path d="M20.196625,52.870875 C19.324125,48.788375 18.845375,44.349625 18.845375,39.704625 C18.845375,35.143375 19.306625,30.780875 20.149125,26.760875" id="Stroke-11" stroke="#FF5C3C" stroke-width="3"></path>
                        <path d="M51.22575,67.889125 C47.812,72.932875 43.46075,75.954125 38.7245,75.954125 C34.22075,75.954125 30.06575,73.222875 26.732,68.617875" id="Stroke-13" stroke="#FF5C3C" stroke-width="3"></path>
                        <path d="M57.251125,26.535375 C58.123625,30.617875 58.602375,35.057875 58.602375,39.704125 C58.602375,44.165375 58.161125,48.439125 57.352375,52.387875" id="Stroke-15" stroke="#FF5C3C" stroke-width="3"></path>
                        <path d="M38.7245,45.745625 L38.7245,75.954375" id="Stroke-17" stroke="#FF5C3C" stroke-width="3"></path>
                        <path d="M38.7245,3.454375 L38.7245,34.345625" id="Stroke-19" stroke="#FF5C3C" stroke-width="3"></path>
                        <path d="M33.365625,39.704375 L2.474375,39.704375" id="Stroke-21" stroke="#FF5C3C" stroke-width="3"></path>
                        <path d="M74.9745,39.704375 L44.082,39.704375" id="Stroke-23" stroke="#FF5C3C" stroke-width="3"></path>
                        <path d="M24.334875,25.273125 L54.031125,54.969375" id="Stroke-25" stroke="#FF5C3C" stroke-width="3" stroke-dasharray="1.92,1.92"></path>
                        <path d="M53.1825,25.273125 L23.485,54.969375" id="Stroke-27" stroke="#FF5C3C" stroke-width="3" stroke-dasharray="1.92,1.92"></path>
                        <path d="M22.500125,69.90575 L22.500125,72.25575 C22.500125,72.947 21.940125,73.50575 21.250125,73.50575 L1.250125,73.50575 C0.558875,73.50575 0.000125,72.947 0.000125,72.25575 L0.000125,59.7495 C0.000125,59.0595 0.558875,58.4995 1.250125,58.4995 L1.366375,58.4995 L21.250125,58.4995 C21.940125,58.4995 22.500125,59.0595 22.500125,59.7495 L22.500125,63.422 L22.500125,69.90575 Z" id="Stroke-29" stroke="#FF5C3C" stroke-width="3"></path>
                        <path d="M7.561125,78.158875 L7.573625,73.860125" id="Fill-31" fill="#FFFFFF"></path>
                        <path d="M7.561125,78.158875 L7.573625,73.860125" id="Stroke-33" stroke="#FF5C3C" stroke-width="3"></path>
                        <path d="M15.061125,78.158875 L15.073625,73.860125" id="Fill-35" fill="#FFFFFF"></path>
                        <path d="M15.061125,78.158875 L15.073625,73.860125" id="Stroke-37" stroke="#FF5C3C" stroke-width="3"></path>
                        <path d="M3.739125,78.505625 L18.739125,78.505625" id="Fill-39" fill="#FFFFFF"></path>
                        <path d="M3.739125,78.505625 L18.739125,78.505625" id="Stroke-41" stroke="#FF5C3C" stroke-width="3"></path>
                        <path d="M77.500125,69.90575 L77.500125,72.25575 C77.500125,72.947 76.940125,73.50575 76.250125,73.50575 L56.250125,73.50575 C55.558875,73.50575 55.000125,72.947 55.000125,72.25575 L55.000125,59.7495 C55.000125,59.0595 55.558875,58.4995 56.250125,58.4995 L56.366375,58.4995 L76.250125,58.4995 C76.940125,58.4995 77.500125,59.0595 77.500125,59.7495 L77.500125,63.422 L77.500125,69.90575 Z" id="Stroke-43" stroke="#FF5C3C" stroke-width="3"></path>
                        <path d="M62.561125,78.158875 L62.573625,73.860125" id="Fill-45" fill="#FFFFFF"></path>
                        <path d="M62.561125,78.158875 L62.573625,73.860125" id="Stroke-47" stroke="#FF5C3C" stroke-width="3"></path>
                        <path d="M70.061125,78.158875 L70.073625,73.860125" id="Fill-49" fill="#FFFFFF"></path>
                        <path d="M70.061125,78.158875 L70.073625,73.860125" id="Stroke-51" stroke="#FF5C3C" stroke-width="3"></path>
                        <path d="M58.739125,78.505625 L73.739125,78.505625" id="Fill-53" fill="#FFFFFF"></path>
                        <path d="M58.739125,78.505625 L73.739125,78.505625" id="Stroke-55" stroke="#FF5C3C" stroke-width="3"></path>
                        <path d="M77.500125,12.40575 L77.500125,14.75575 C77.500125,15.447 76.940125,16.00575 76.250125,16.00575 L56.250125,16.00575 C55.558875,16.00575 55.000125,15.447 55.000125,14.75575 L55.000125,2.2495 C55.000125,1.5595 55.558875,0.9995 56.250125,0.9995 L56.366375,0.9995 L76.250125,0.9995 C76.940125,0.9995 77.500125,1.5595 77.500125,2.2495 L77.500125,5.922 L77.500125,12.40575 Z" id="Stroke-57" stroke="#FF5C3C" stroke-width="3"></path>
                        <path d="M62.561125,20.658875 L62.573625,16.360125" id="Fill-59" fill="#FFFFFF"></path>
                        <path d="M62.561125,20.658875 L62.573625,16.360125" id="Stroke-61" stroke="#FF5C3C" stroke-width="3"></path>
                        <path d="M70.061125,20.658875 L70.073625,16.360125" id="Fill-63" fill="#FFFFFF"></path>
                        <path d="M70.061125,20.658875 L70.073625,16.360125" id="Stroke-65" stroke="#FF5C3C" stroke-width="3"></path>
                        <path d="M58.739125,21.005625 L73.739125,21.005625" id="Fill-67" fill="#FFFFFF"></path>
                        <path d="M58.739125,21.005625 L73.739125,21.005625" id="Stroke-69" stroke="#FF5C3C" stroke-width="3"></path>
                        <path d="M22.500125,12.40575 L22.500125,14.75575 C22.500125,15.447 21.940125,16.00575 21.250125,16.00575 L1.250125,16.00575 C0.558875,16.00575 0.000125,15.447 0.000125,14.75575 L0.000125,2.2495 C0.000125,1.5595 0.558875,0.9995 1.250125,0.9995 L1.366375,0.9995 L21.250125,0.9995 C21.940125,0.9995 22.500125,1.5595 22.500125,2.2495 L22.500125,5.922 L22.500125,12.40575 Z" id="Stroke-71" stroke="#FF5C3C" stroke-width="3"></path>
                        <path d="M7.561125,20.658875 L7.573625,16.360125" id="Fill-73" fill="#FFFFFF"></path>
                        <path d="M7.561125,20.658875 L7.573625,16.360125" id="Stroke-75" stroke="#FF5C3C" stroke-width="3"></path>
                        <path d="M15.061125,20.658875 L15.073625,16.360125" id="Fill-77" fill="#FFFFFF"></path>
                        <path d="M15.061125,20.658875 L15.073625,16.360125" id="Stroke-79" stroke="#FF5C3C" stroke-width="3"></path>
                        <path d="M3.739125,21.005625 L18.739125,21.005625" id="Fill-81" fill="#FFFFFF"></path>
                        <path d="M3.739125,21.005625 L18.739125,21.005625" id="Stroke-83" stroke="#FF5C3C" stroke-width="3"></path>
                    </g>
                    <g id="Phase-1" transform="translate(0.000000, 2.000000)" stroke="#FF5C3C" stroke-width="3">
                        <path d="M10.00025,20.00025 L10.00025,25.00025" id="Stroke-1"></path>
                        <path d="M17.50025,20.00025 L17.50025,25.00025" id="Stroke-2"></path>
                        <path d="M25.00025,20.00025 L2.50025,20.00025 C1.119,20.00025 0.000250000001,18.88025 0.000250000001,17.50025 L0.000250000001,2.50025 C0.000250000001,1.12025 1.119,0.000250000001 2.50025,0.000250000001 L25.00025,0.000250000001 C26.38025,0.000250000001 27.50025,1.12025 27.50025,2.50025 L27.50025,17.50025 C27.50025,18.88025 26.38025,20.00025 25.00025,20.00025 Z" id="Stroke-3"></path>
                        <path d="M5.00025,25.00025 L22.50025,25.00025" id="Stroke-5"></path>
                        <path d="M60.030125,72.532 L60.030125,77.532" id="Stroke-7"></path>
                        <path d="M67.530125,72.532 L67.530125,77.532" id="Stroke-9"></path>
                        <path d="M75.030125,72.532 L52.530125,72.532 C51.150125,72.532 50.030125,71.412 50.030125,70.032 L50.030125,55.032 C50.030125,53.65075 51.150125,52.532 52.530125,52.532 L75.030125,52.532 C76.410125,52.532 77.530125,53.65075 77.530125,55.032 L77.530125,70.032 C77.530125,71.412 76.410125,72.532 75.030125,72.532 Z" id="Stroke-11"></path>
                        <path d="M55.030125,77.532 L72.530125,77.532" id="Stroke-13"></path>
                        <path d="M31.317375,10.004 L61.151125,10.004" id="Stroke-16" stroke-dasharray="2.091,2.091"></path>
                        <polyline id="Stroke-18" points="62.456875 10.004 63.706875 10.004 63.706875 11.254"></polyline>
                        <path d="M63.706875,13.588 L63.706875,48.838" id="Stroke-20" stroke-dasharray="1.867,1.867"></path>
                        <path d="M46.095875,62.5015 L16.262125,62.5015" id="Stroke-22" stroke-dasharray="2.091,2.091"></path>
                        <polyline id="Stroke-24" points="14.95575 62.5015 13.70575 62.5015 13.70575 61.2515"></polyline>
                        <path d="M13.70575,58.944375 L13.70575,28.658125" id="Stroke-26" stroke-dasharray="1.846,1.846"></path>
                        <polygon id="Stroke-28" points="63.7075 10.004 71.2075 10.004 71.2075 2.504 63.7075 2.504"></polygon>
                        <polygon id="Stroke-30" points="6.1725 70.04025 13.6725 70.04025 13.6725 62.54025 6.1725 62.54025"></polygon>
                    </g>
                    <g id="Phase-4" transform="translate(900.000000, 2.000000)" stroke="#FF5C3C" stroke-width="3">
                        <path d="M21.4168889,35.3365079 C22.288,38.8577778 28.4784762,39.3746032 29.1426032,39.3746032 L33.0460952,39.3746032" id="Stroke-1"></path>
                        <path d="M59.2058413,68.4093968 C60.5925079,66.7535238 61.8750476,65.0125714 63.0471111,63.1979683 L67.0496508,55.7820952 C67.1080635,55.6487619 69.2325079,52.255746 69.2325079,52.255746 C69.8661587,51.1293968 70.4604444,49.9776508 71.0140952,48.8043175" id="Stroke-3"></path>
                        <path d="M57.2918095,35.9329524 C56.4206984,39.4542222 50.2302222,39.9710476 49.5660952,39.9710476 L42.4448254,40.5310476 C38.9083175,40.5310476 36.2124444,41.6523175 33.0632381,44.904381 L28.2060952,49.7310476 C26.8257778,51.0986667 26.8206984,53.3297778 28.1946667,54.703746 C29.5648254,56.0739048 31.7857778,56.0739048 33.1546667,54.703746 C34.9172063,52.9424762 39.8606984,48.4142222 39.8606984,48.4142222 L54.960381,63.5151746 C56.4714921,65.0250159 56.3254603,67.5646984 54.5235556,68.8764444 C53.0670476,69.9367619 51.0289524,69.6815238 49.7553016,68.4066032 L40.3953016,59.0466032 L51.8467302,70.4993016 C53.2968889,71.9481905 53.1305397,74.4358095 51.528,75.7881905 C50.1641905,76.9373968 47.9330794,76.7431111 46.672127,75.4821587 L35.3172063,64.1259683 L44.4791111,73.287873 C45.9368889,74.7456508 45.8518095,77.1646984 44.2226032,78.5094603 C42.8016508,79.6827937 40.6860952,79.472 39.3832381,78.1704127 L30.3699048,69.0745397 L34.0600635,72.7634286 C35.4784762,74.1831111 35.455619,76.4904127 33.9508571,77.8542222 C32.5946667,79.0834286 30.3381587,78.9297778 29.0441905,77.6358095 L22.5476825,71.1393016 C17.9584762,66.5500952 14.2860952,61.120254 11.6600635,55.1850159 C11.6016508,55.0542222 7.85307937,49.0021587 7.85307937,49.0021587" id="Stroke-5" stroke-linecap="square" stroke-linejoin="round"></path>
                        <path d="M57.7580952,48.3809524 C52.7815873,50.0393651 47.4368254,50.2450794 42.3473016,48.9726984 L39.9803175,48.3809524" id="Stroke-7"></path>
                        <path d="M0.0298412698,46.264127 L3.31365079,49.5479365 C4.30539683,50.5396825 5.91301587,50.5396825 6.9047619,49.5479365 L23.6311111,32.8215873 C24.6228571,31.8298413 24.6228571,30.2222222 23.6311111,29.2304762 L21.0914286,26.6907937 C13.6184127,19.2177778 6.89714286,11.0298413 1.02412698,2.24380952 L0.103492063,0.628571429" id="Stroke-9"></path>
                        <path d="M27.7549206,66.4761905 L27.8603175,66.5815873" id="Stroke-15" stroke-linecap="round" stroke-linejoin="round"></path>
                        <path d="M32.3047619,60.3377778 L32.4101587,60.4444444" id="Stroke-17" stroke-linecap="round" stroke-linejoin="round"></path>
                        <path d="M79.0105397,46.264127 L75.728,49.5479365 C74.7349841,50.5396825 73.1273651,50.5396825 72.135619,49.5479365 L55.4105397,32.8215873 C54.4175238,31.8298413 54.4175238,30.2222222 55.4105397,29.2304762 L57.9502222,26.6907937 C65.4219683,19.2177778 72.1432381,11.0298413 78.016254,2.24380952 L78.9368889,0.628571429" id="Stroke-19"></path>
                    </g>
                    <g id="Phase-2" transform="translate(305.000000, 4.000000)" stroke="#FF5C3C" stroke-width="3">
                        <path d="M29.4974979,79.5171857 L3.84716515,79.5171857 C1.7233176,79.5171857 -0.000384754991,77.7947659 -0.000384754991,75.6696358 L-0.000384754991,3.84742166 C-0.000384754991,1.72229159 1.7233176,-0.000128251664 3.84716515,-0.000128251664 L29.4974979,-0.000128251664 C31.6226279,-0.000128251664 33.3450478,1.72229159 33.3450478,3.84742166 L33.3450478,75.6696358 C33.3450478,77.7947659 31.6226279,79.5171857 29.4974979,79.5171857 Z" id="Stroke-1"></path>
                        <path d="M7.69471506,7.69509982 L25.649948,7.69509982" id="Stroke-3"></path>
                        <path d="M7.69471506,12.8251664 L25.649948,12.8251664" id="Stroke-5"></path>
                        <path d="M7.69471506,17.9552329 L25.649948,17.9552329" id="Stroke-7"></path>
                        <path d="M7.69471506,61.5607985 L25.649948,61.5607985" id="Stroke-9"></path>
                        <path d="M7.69471506,66.6908651 L25.649948,66.6908651" id="Stroke-11"></path>
                        <path d="M7.69471506,71.8209316 L25.649948,71.8209316" id="Stroke-13"></path>
                        <path d="M10.2597483,39.75917 L23.0849147,39.75917" id="Stroke-15" stroke-dasharray="2"></path>
                        <path d="M67.9967235,79.5171857 L42.3463908,79.5171857 C40.2212607,79.5171857 38.4988409,77.7947659 38.4988409,75.6696358 L38.4988409,3.84742166 C38.4988409,1.72229159 40.2212607,-0.000128251664 42.3463908,-0.000128251664 L67.9967235,-0.000128251664 C70.1205711,-0.000128251664 71.8442734,1.72229159 71.8442734,3.84742166 L71.8442734,75.6696358 C71.8442734,77.7947659 70.1205711,79.5171857 67.9967235,79.5171857 Z" id="Stroke-17"></path>
                        <path d="M46.1939407,7.69509982 L64.1491736,7.69509982" id="Stroke-19"></path>
                        <path d="M46.1939407,12.8251664 L64.1491736,12.8251664" id="Stroke-21"></path>
                        <path d="M46.1939407,17.9552329 L64.1491736,17.9552329" id="Stroke-23"></path>
                        <path d="M46.1939407,61.5607985 L64.1491736,61.5607985" id="Stroke-25"></path>
                        <path d="M46.1939407,66.6908651 L64.1491736,66.6908651" id="Stroke-27"></path>
                        <path d="M46.1939407,71.8209316 L64.1491736,71.8209316" id="Stroke-29"></path>
                        <path d="M48.758974,39.75917 L61.5841404,39.75917" id="Stroke-31" stroke-dasharray="2"></path>
                    </g>
                </g>
            </g>
        </g>
    </g>
</svg>