<?xml version="1.0" encoding="UTF-8"?>
<svg width="43px" height="43px" viewBox="0 0 43 43" version="1.1" xmlns="http://www.w3.org/2000/svg" xmlns:xlink="http://www.w3.org/1999/xlink">
    <!-- Generator: Sketch 49 (51002) - http://www.bohemiancoding.com/sketch -->
    <title>twitter</title>
    <desc>Created with Sketch.</desc>
    <defs></defs>
    <g id="Symbols" stroke="none" stroke-width="1" fill="none" fill-rule="evenodd">
        <g id="底栏" transform="translate(-1107.000000, -205.000000)" fill="#FBFBFB">
            <path d="M1112,205 L1145,205 C1147.76142,205 1150,207.238576 1150,210 L1150,243 C1150,245.761424 1147.76142,248 1145,248 L1112,248 C1109.23858,248 1107,245.761424 1107,243 L1107,210 C1107,207.238576 1109.23858,205 1112,205 Z M1139.06507,223.142662 C1139.06507,222.94711 1139.06221,222.742246 1139.0536,222.537381 C1139.97727,221.868868 1140.77173,221.045953 1141.4,220.106947 C1140.54299,220.485534 1139.63134,220.733644 1138.69696,220.842595 C1139.68778,220.249636 1140.42375,219.326382 1140.76798,218.244544 C1139.8483,218.792688 1138.83594,219.177353 1137.77809,219.38061 C1136.89913,218.438202 1135.65277,217.900597 1134.3455,217.9 C1131.71283,217.933214 1129.60626,220.038599 1129.64027,222.602565 C1129.6399,222.962804 1129.68063,223.321967 1129.7617,223.673447 C1125.95268,223.472451 1122.41803,221.680307 1120.0644,218.756705 C1118.81598,220.90459 1119.44614,223.624608 1121.52062,225.042312 C1120.77197,225.013576 1120.04095,224.812535 1119.38744,224.511528 C1119.36508,226.725736 1120.94243,228.650842 1123.16425,229.120973 C1122.76009,229.23361 1122.34162,229.290041 1121.92125,229.288589 C1121.62337,229.289113 1121.32616,229.261042 1121.03394,229.204781 C1121.62478,231.101362 1123.3978,232.415191 1125.43224,232.463985 C1123.78032,233.771185 1121.71671,234.484729 1119.58823,234.484691 C1119.21347,234.481868 1118.83911,234.460111 1118.46667,234.419507 C1120.60624,235.796947 1123.11414,236.53198 1125.67893,236.533333 C1134.33307,236.533333 1139.06507,229.363085 1139.06507,223.142662 Z" id="twitter"></path>
        </g>
    </g>
</svg>