<?xml version="1.0" encoding="UTF-8"?>
<svg width="70px" height="70px" viewBox="0 0 70 70" version="1.1" xmlns="http://www.w3.org/2000/svg" xmlns:xlink="http://www.w3.org/1999/xlink">
    <!-- Generator: Sketch 49 (51002) - http://www.bohemiancoding.com/sketch -->
    <title>why-now-1</title>
    <desc>Created with Sketch.</desc>
    <defs></defs>
    <g id="why-now-1" stroke="none" stroke-width="1" fill="none" fill-rule="evenodd">
        <g id="copywriting" transform="translate(1.000000, 0.000000)" fill-rule="nonzero">
            <path d="M2.54545455,29.27219 C2.54545455,29.9750884 1.9747816,30.5454545 1.27177177,30.5454545 C0.568761944,30.5454545 0,29.9750884 0,29.27219 C0,28.569411 0.568761944,28 1.27177177,28 C1.9747816,28 2.54545455,28.569411 2.54545455,29.27219 Z" id="Shape" fill="#CCD1D9"></path>
            <path d="M67.4545455,29.27219 C67.4545455,29.9750884 66.8856374,30.5454545 66.1828334,30.5454545 C65.4796712,30.5454545 64.9090909,29.9750884 64.9090909,29.27219 C64.9090909,28.569411 65.4796712,28 66.1828334,28 C66.8856374,28 67.4545455,28.569411 67.4545455,29.27219 Z" id="Shape" fill="#CCD1D9"></path>
            <path d="M66.1818182,32.9312305 C66.1818182,33.7219217 65.5205171,34.3636364 64.7058629,34.3636364 L2.74868253,34.3636364 C1.93402831,34.3636364 1.27272727,33.7219217 1.27272727,32.9312305 L1.27272727,24.3405565 C1.27272727,23.5497309 1.9338899,22.9090909 2.74868253,22.9090909 L64.7058629,22.9090909 C65.5205171,22.9090909 66.1818182,23.5498652 66.1818182,24.3405565 L66.1818182,32.9312305 Z" id="Shape" fill="#FF5C3C"></path>
            <polygon id="Shape" fill="#FF9E73" points="49.7860963 0 8.90909091 0 8.90909091 63.6363636 58.5454545 63.6363636 58.5454545 8.67749475"></polygon>
            <path d="M67.437918,67.1065254 C67.6095644,68.7003793 66.4324824,70 64.8224396,70 L2.63208245,70 C1.02203967,70 -0.154905042,68.7003793 0.0166039937,67.1065254 L3.78348618,32.1651101 C3.95499522,30.574668 5.41289068,29.2727273 7.02293346,29.2727273 L60.4320005,29.2727273 C62.0420433,29.2727273 63.4999388,30.574668 63.6713105,32.1651101 L67.437918,67.1065254 Z" id="Shape" fill="#FF4F02"></path>
            <path d="M15.3482535,34.5108692 C15.9018588,34.6609285 16.578548,34.8643515 17.3632412,35.0994026 C21.1939187,36.2479065 27.5910156,38.1666311 33.7272727,38.1818182 C39.863394,38.1666311 46.2606268,36.2479065 50.0911684,35.0994026 C50.8759974,34.8643515 51.5526866,34.6610678 52.1061561,34.5108692 C54.8126411,33.7765958 59.4600734,33.0414865 63.6363636,34.9416801 L63.352021,32.2257045 C63.1824752,30.6019432 61.7401124,29.2727273 60.1472233,29.2727273 L7.30732216,29.2727273 C5.71443307,29.2727273 4.2720703,30.6019432 4.10238855,32.2257045 L3.81818182,34.9416801 C7.9944721,33.0414865 12.6417685,33.7765958 15.3482535,34.5108692 Z" id="Shape" fill="#FF7B40"></path>
            <g id="Group" transform="translate(8.909091, 44.545455)" fill="#CCD1D9">
                <path d="M4.47109091,3.02840028 C5.27372727,3.02840028 5.92527273,2.37064693 5.92527273,1.55777872 C5.92527273,0.7449105 5.27386364,0.0870190275 4.47109091,0.0870190275 C3.66845455,0.0870190275 3.01922727,0.7449105 3.01922727,1.55777872 C3.01922727,2.37064693 3.66845455,3.02840028 4.47109091,3.02840028 Z" id="Shape"></path>
                <path d="M10.2855,3.02840028 C11.0881364,3.02840028 11.7396818,2.37064693 11.7396818,1.55777872 C11.7396818,0.7449105 11.0882727,0.0870190275 10.2855,0.0870190275 C9.48286364,0.0870190275 8.83131818,0.7449105 8.83131818,1.55777872 C8.83131818,2.37064693 9.48286364,3.02840028 10.2855,3.02840028 Z" id="Shape"></path>
                <path d="M16.0997727,3.02840028 C16.9024091,3.02840028 17.5517727,2.37064693 17.5517727,1.55777872 C17.5517727,0.7449105 16.9024091,0.0870190275 16.0997727,0.0870190275 C15.2971364,0.0870190275 14.6455909,0.7449105 14.6455909,1.55777872 C14.6455909,2.37064693 15.2971364,3.02840028 16.0997727,3.02840028 Z" id="Shape"></path>
                <path d="M21.912,3.02840028 C22.7146364,3.02840028 23.3661818,2.37064693 23.3661818,1.55777872 C23.3661818,0.7449105 22.7146364,0.0870190275 21.912,0.0870190275 C21.1093636,0.0870190275 20.46,0.7449105 20.46,1.55777872 C20.46,2.37064693 21.1093636,3.02840028 21.912,3.02840028 Z" id="Shape"></path>
                <path d="M27.7264091,3.02840028 C28.5290455,3.02840028 29.1805909,2.37064693 29.1805909,1.55777872 C29.1805909,0.7449105 28.5290455,0.0870190275 27.7264091,0.0870190275 C26.9236364,0.0870190275 26.2722273,0.7449105 26.2722273,1.55777872 C26.2722273,2.37064693 26.9236364,3.02840028 27.7264091,3.02840028 Z" id="Shape"></path>
                <path d="M33.5408182,3.02840028 C34.3434545,3.02840028 34.9926818,2.37064693 34.9926818,1.55777872 C34.9926818,0.7449105 34.3433182,0.0870190275 33.5408182,0.0870190275 C32.7380455,0.0870190275 32.0866364,0.7449105 32.0866364,1.55777872 C32.0866364,2.37064693 32.7380455,3.02840028 33.5408182,3.02840028 Z" id="Shape"></path>
                <path d="M39.3530455,3.02840028 C40.1556818,3.02840028 40.8070909,2.37064693 40.8070909,1.55777872 C40.8070909,0.7449105 40.1556818,0.0870190275 39.3530455,0.0870190275 C38.5502727,0.0870190275 37.9010455,0.7449105 37.9010455,1.55777872 C37.9010455,2.37064693 38.5502727,3.02840028 39.3530455,3.02840028 Z" id="Shape"></path>
                <path d="M45.1674545,3.02840028 C45.9700909,3.02840028 46.6215,2.37064693 46.6215,1.55777872 C46.6215,0.7449105 45.9700909,0.0870190275 45.1674545,0.0870190275 C44.3646818,0.0870190275 43.7132727,0.7449105 43.7132727,1.55777872 C43.7132727,2.37064693 44.3646818,3.02840028 45.1674545,3.02840028 Z" id="Shape"></path>
                <path d="M4.47109091,8.91572093 C3.66845455,8.91572093 3.01704545,9.57554616 3.01704545,10.3909006 C3.01704545,11.201697 3.66845455,11.8615222 4.47109091,11.8615222 C5.27372727,11.8615222 5.92309091,11.201697 5.92309091,10.3909006 C5.92309091,9.57554616 5.27372727,8.91572093 4.47109091,8.91572093 Z" id="Shape"></path>
                <path d="M10.2833182,11.8615222 C11.0859545,11.8615222 11.7375,11.201697 11.7375,10.3909006 C11.7375,9.57568428 11.0860909,8.91572093 10.2833182,8.91572093 C9.48068182,8.91572093 8.83131818,9.57554616 8.83131818,10.3909006 C8.83131818,11.201697 9.48068182,11.8615222 10.2833182,11.8615222 Z" id="Shape"></path>
                <path d="M16.0977273,8.91572093 C15.2950909,8.91572093 14.6435455,9.57554616 14.6435455,10.3909006 C14.6435455,11.201697 15.2949545,11.8615222 16.0977273,11.8615222 C16.9005,11.8615222 17.5519091,11.201697 17.5519091,10.3909006 C17.5517727,9.57554616 16.9003636,8.91572093 16.0977273,8.91572093 Z" id="Shape"></path>
                <path d="M39.3530455,14.8052516 L10.2833182,14.8052516 C9.48286364,14.8074616 8.83131818,15.4650768 8.83131818,16.2782213 C8.83131818,17.0890176 9.48286364,17.7488428 10.2833182,17.7488428 L39.3530455,17.7488428 C40.1556818,17.7488428 40.8049091,17.0890176 40.8049091,16.2782213 C40.8049091,15.4628668 40.1556818,14.8052516 39.3530455,14.8052516 Z" id="Shape"></path>
                <path d="M21.912,8.91572093 C21.1093636,8.91572093 20.4578182,9.57554616 20.4578182,10.3909006 C20.4578182,11.201697 21.1092273,11.8615222 21.912,11.8615222 C22.7146364,11.8615222 23.364,11.201697 23.364,10.3909006 C23.364,9.57554616 22.7146364,8.91572093 21.912,8.91572093 Z" id="Shape"></path>
                <path d="M27.7243636,8.91572093 C26.9215909,8.91572093 26.2723636,9.57554616 26.2723636,10.3909006 C26.2723636,11.201697 26.9217273,11.8615222 27.7243636,11.8615222 C28.527,11.8615222 29.1785455,11.201697 29.1785455,10.3909006 C29.1785455,9.57554616 28.5268636,8.91572093 27.7243636,8.91572093 Z" id="Shape"></path>
                <path d="M33.5386364,8.91572093 C32.7358636,8.91572093 32.0844545,9.57554616 32.0844545,10.3909006 C32.0844545,11.201697 32.7358636,11.8615222 33.5386364,11.8615222 C34.3412727,11.8615222 34.9926818,11.201697 34.9926818,10.3909006 C34.9926818,9.57554616 34.3412727,8.91572093 33.5386364,8.91572093 Z" id="Shape"></path>
                <path d="M39.3530455,8.91572093 C38.5502727,8.91572093 37.8988636,9.57554616 37.8988636,10.3909006 C37.8988636,11.201697 38.5502727,11.8615222 39.3530455,11.8615222 C40.1556818,11.8615222 40.8049091,11.201697 40.8049091,10.3909006 C40.8049091,9.57554616 40.1556818,8.91572093 39.3530455,8.91572093 Z" id="Shape"></path>
                <path d="M45.1652727,8.91572093 C44.3625,8.91572093 43.7132727,9.57554616 43.7132727,10.3909006 C43.7132727,11.201697 44.3626364,11.8615222 45.1652727,11.8615222 C45.9679091,11.8615222 46.6193182,11.201697 46.6193182,10.3909006 C46.6193182,9.57554616 45.9679091,8.91572093 45.1652727,8.91572093 Z" id="Shape"></path>
                <path d="M1.56286364,4.49915997 C0.760227273,4.49915997 0.110863636,5.1589852 0.110863636,5.97420155 C0.110863636,6.78499789 0.760227273,7.44496124 1.56286364,7.44496124 C2.3655,7.44496124 3.01704545,6.78499789 3.01704545,5.97420155 C3.01704545,5.15912333 2.3655,4.49915997 1.56286364,4.49915997 Z" id="Shape"></path>
                <path d="M7.37727273,4.49915997 C6.57463636,4.49915997 5.92309091,5.1589852 5.92309091,5.97420155 C5.92309091,6.78499789 6.57463636,7.44496124 7.37727273,7.44496124 C8.17990909,7.44496124 8.83145455,6.78499789 8.83145455,5.97420155 C8.83131818,5.15912333 8.17990909,4.49915997 7.37727273,4.49915997 Z" id="Shape"></path>
                <path d="M13.1915455,7.44496124 C13.9941818,7.44496124 14.6435455,6.78499789 14.6435455,5.97420155 C14.6435455,5.15912333 13.9941818,4.49915997 13.1915455,4.49915997 C12.3889091,4.49915997 11.7373636,5.1589852 11.7373636,5.97420155 C11.7375,6.78499789 12.3890455,7.44496124 13.1915455,7.44496124 Z" id="Shape"></path>
                <path d="M19.0037727,7.44496124 C19.8064091,7.44496124 20.4579545,6.78499789 20.4579545,5.97420155 C20.4579545,5.15912333 19.8065455,4.49915997 19.0037727,4.49915997 C18.201,4.49915997 17.5517727,5.1589852 17.5517727,5.97420155 C17.5517727,6.78499789 18.2011364,7.44496124 19.0037727,7.44496124 Z" id="Shape"></path>
                <path d="M24.8181818,7.44496124 C25.6208182,7.44496124 26.2722273,6.78499789 26.2722273,5.97420155 C26.2722273,5.15912333 25.6208182,4.49915997 24.8181818,4.49915997 C24.0155455,4.49915997 23.364,5.1589852 23.364,5.97420155 C23.364,6.78499789 24.0155455,7.44496124 24.8181818,7.44496124 Z" id="Shape"></path>
                <path d="M30.6325909,7.44496124 C31.4352273,7.44496124 32.0844545,6.78499789 32.0844545,5.97420155 C32.0844545,5.15912333 31.4350909,4.49915997 30.6325909,4.49915997 C29.8300909,4.49915997 29.1785455,5.1589852 29.1785455,5.97420155 C29.1785455,6.78499789 29.8299545,7.44496124 30.6325909,7.44496124 Z" id="Shape"></path>
                <path d="M36.4446818,7.44496124 C37.2474545,7.44496124 37.8988636,6.78499789 37.8988636,5.97420155 C37.8988636,5.15912333 37.2474545,4.49915997 36.4446818,4.49915997 C35.6421818,4.49915997 34.9928182,5.1589852 34.9928182,5.97420155 C34.9926818,6.78499789 35.6421818,7.44496124 36.4446818,7.44496124 Z" id="Shape"></path>
                <path d="M42.2589545,4.49915997 C41.4564545,4.49915997 40.8049091,5.1589852 40.8049091,5.97420155 C40.8049091,6.78499789 41.4564545,7.44496124 42.2589545,7.44496124 C43.0617273,7.44496124 43.7131364,6.78499789 43.7131364,5.97420155 C43.7131364,5.15912333 43.0617273,4.49915997 42.2589545,4.49915997 Z" id="Shape"></path>
                <path d="M48.0733636,4.49915997 C47.2707273,4.49915997 46.6193182,5.1589852 46.6193182,5.97420155 C46.6193182,6.78499789 47.2707273,7.44496124 48.0733636,7.44496124 C48.8761364,7.44496124 49.5253636,6.78499789 49.5253636,5.97420155 C49.5255,5.15912333 48.8761364,4.49915997 48.0733636,4.49915997 Z" id="Shape"></path>
            </g>
            <path d="M38.0241715,29.2727273 L29.4326578,29.2727273 L28,29.2727273 L28,30.5459918 C28,31.2487708 28.6417673,31.8181818 29.4326578,31.8181818 L38.0241715,31.8181818 C38.8147933,31.8181818 39.4545455,31.2486514 39.4545455,30.5459918 L39.4545455,29.2727273 L38.0241715,29.2727273 Z" id="Shape" fill="#FF5C3C"></path>
            <rect id="Rectangle-path" fill="#CCD1D9" x="11.4545455" y="53.4545455" width="2.54545455" height="1.27272727"></rect>
            <rect id="Rectangle-path" fill="#CCD1D9" x="11.4545455" y="45.8181818" width="2.54545455" height="1.27272727"></rect>
            <rect id="Rectangle-path" fill="#CCD1D9" x="17.8181818" y="45.8181818" width="2.54545455" height="1.27272727"></rect>
            <rect id="Rectangle-path" fill="#CCD1D9" x="22.9090909" y="45.8181818" width="2.54545455" height="1.27272727"></rect>
            <rect id="Rectangle-path" fill="#CCD1D9" x="29.2727273" y="45.8181818" width="2.54545455" height="1.27272727"></rect>
            <rect id="Rectangle-path" fill="#CCD1D9" x="35.6363636" y="45.8181818" width="2.54545455" height="1.27272727"></rect>
            <rect id="Rectangle-path" fill="#CCD1D9" x="40.7272727" y="45.8181818" width="2.54545455" height="1.27272727"></rect>
            <rect id="Rectangle-path" fill="#CCD1D9" x="47.0909091" y="45.8181818" width="2.54545455" height="1.27272727"></rect>
            <rect id="Rectangle-path" fill="#CCD1D9" x="52.1818182" y="45.8181818" width="2.54545455" height="1.27272727"></rect>
            <rect id="Rectangle-path" fill="#CCD1D9" x="17.8181818" y="53.4545455" width="2.54545455" height="1.27272727"></rect>
            <rect id="Rectangle-path" fill="#CCD1D9" x="22.9090909" y="53.4545455" width="2.54545455" height="1.27272727"></rect>
            <rect id="Rectangle-path" fill="#CCD1D9" x="29.2727273" y="53.4545455" width="2.54545455" height="1.27272727"></rect>
            <rect id="Rectangle-path" fill="#CCD1D9" x="35.6363636" y="53.4545455" width="2.54545455" height="1.27272727"></rect>
            <rect id="Rectangle-path" fill="#CCD1D9" x="40.7272727" y="53.4545455" width="2.54545455" height="1.27272727"></rect>
            <rect id="Rectangle-path" fill="#CCD1D9" x="47.0909091" y="53.4545455" width="2.54545455" height="1.27272727"></rect>
            <rect id="Rectangle-path" fill="#CCD1D9" x="52.1818182" y="53.4545455" width="2.54545455" height="1.27272727"></rect>
            <rect id="Rectangle-path" fill="#CCD1D9" x="56" y="49.6363636" width="2.54545455" height="1.27272727"></rect>
            <rect id="Rectangle-path" fill="#CCD1D9" x="49.6363636" y="49.6363636" width="2.54545455" height="1.27272727"></rect>
            <rect id="Rectangle-path" fill="#CCD1D9" x="44.5454545" y="49.6363636" width="2.54545455" height="1.27272727"></rect>
            <rect id="Rectangle-path" fill="#CCD1D9" x="38.1818182" y="49.6363636" width="2.54545455" height="1.27272727"></rect>
            <rect id="Rectangle-path" fill="#CCD1D9" x="31.8181818" y="49.6363636" width="2.54545455" height="1.27272727"></rect>
            <rect id="Rectangle-path" fill="#CCD1D9" x="26.7272727" y="49.6363636" width="2.54545455" height="1.27272727"></rect>
            <rect id="Rectangle-path" fill="#CCD1D9" x="20.3636364" y="49.6363636" width="2.54545455" height="1.27272727"></rect>
            <rect id="Rectangle-path" fill="#CCD1D9" x="15.2727273" y="49.6363636" width="2.54545455" height="1.27272727"></rect>
            <rect id="Rectangle-path" fill="#CCD1D9" x="8.90909091" y="49.6363636" width="2.54545455" height="1.27272727"></rect>
            <rect id="Rectangle-path" fill="#CCD1D9" x="17.8181818" y="59.8181818" width="31.8181818" height="1.27272727"></rect>
            <g id="Group" transform="translate(8.909091, 43.272727)" fill="#F5F7FA">
                <path d="M4.47109091,3.07702044 C5.27372727,3.07702044 5.92527273,2.41705708 5.92527273,1.60626075 C5.92527273,0.791182523 5.27386364,0.131219168 4.47109091,0.131219168 C3.66845455,0.131219168 3.01922727,0.791044397 3.01922727,1.60626075 C3.01922727,2.41705708 3.66845455,3.07702044 4.47109091,3.07702044 Z" id="Shape"></path>
                <path d="M10.2855,3.07702044 C11.0881364,3.07702044 11.7396818,2.41705708 11.7396818,1.60626075 C11.7396818,0.791182523 11.0882727,0.131219168 10.2855,0.131219168 C9.48286364,0.131219168 8.83131818,0.791044397 8.83131818,1.60626075 C8.83131818,2.41705708 9.48286364,3.07702044 10.2855,3.07702044 Z" id="Shape"></path>
                <path d="M16.0997727,3.07702044 C16.9024091,3.07702044 17.5517727,2.41705708 17.5517727,1.60626075 C17.5517727,0.791182523 16.9024091,0.131219168 16.0997727,0.131219168 C15.2971364,0.131219168 14.6455909,0.791044397 14.6455909,1.60626075 C14.6457273,2.41705708 15.2971364,3.07702044 16.0997727,3.07702044 Z" id="Shape"></path>
                <path d="M21.912,3.07702044 C22.7146364,3.07702044 23.3661818,2.41705708 23.3661818,1.60626075 C23.3661818,0.791182523 22.7146364,0.131219168 21.912,0.131219168 C21.1093636,0.131219168 20.46,0.791044397 20.46,1.60626075 C20.4601364,2.41705708 21.1093636,3.07702044 21.912,3.07702044 Z" id="Shape"></path>
                <path d="M27.7264091,3.07702044 C28.5290455,3.07702044 29.1805909,2.41705708 29.1805909,1.60626075 C29.1805909,0.791182523 28.5290455,0.131219168 27.7264091,0.131219168 C26.9236364,0.131219168 26.2722273,0.791044397 26.2722273,1.60626075 C26.2722273,2.41705708 26.9236364,3.07702044 27.7264091,3.07702044 Z" id="Shape"></path>
                <path d="M33.5408182,3.07702044 C34.3434545,3.07702044 34.9926818,2.41705708 34.9926818,1.60626075 C34.9926818,0.791182523 34.3433182,0.131219168 33.5408182,0.131219168 C32.7380455,0.131219168 32.0866364,0.791044397 32.0866364,1.60626075 C32.0866364,2.41705708 32.7380455,3.07702044 33.5408182,3.07702044 Z" id="Shape"></path>
                <path d="M39.3530455,3.07702044 C40.1556818,3.07702044 40.8070909,2.41705708 40.8070909,1.60626075 C40.8070909,0.791182523 40.1556818,0.131219168 39.3530455,0.131219168 C38.5502727,0.131219168 37.9010455,0.791044397 37.9010455,1.60626075 C37.9009091,2.41705708 38.5502727,3.07702044 39.3530455,3.07702044 Z" id="Shape"></path>
                <path d="M45.1674545,3.07702044 C45.9700909,3.07702044 46.6215,2.41705708 46.6215,1.60626075 C46.6215,0.791182523 45.9700909,0.131219168 45.1674545,0.131219168 C44.3646818,0.131219168 43.7132727,0.791044397 43.7132727,1.60626075 C43.7131364,2.41705708 44.3646818,3.07702044 45.1674545,3.07702044 Z" id="Shape"></path>
                <path d="M4.47109091,8.96434109 C3.66845455,8.96434109 3.01704545,9.62416631 3.01704545,10.4349626 C3.01704545,11.2500409 3.66845455,11.9101424 4.47109091,11.9101424 C5.27372727,11.9101424 5.92309091,11.250179 5.92309091,10.4349626 C5.92309091,9.62430444 5.27372727,8.96434109 4.47109091,8.96434109 Z" id="Shape"></path>
                <path d="M10.2833182,11.9102805 C11.0859545,11.9102805 11.7375,11.2503171 11.7375,10.4351008 C11.7375,9.62430444 11.0860909,8.96447921 10.2833182,8.96447921 C9.48068182,8.96447921 8.83131818,9.62430444 8.83131818,10.4351008 C8.83131818,11.250179 9.48068182,11.9102805 10.2833182,11.9102805 Z" id="Shape"></path>
                <path d="M16.0977273,8.96434109 C15.2950909,8.96434109 14.6435455,9.62416631 14.6435455,10.4349626 C14.6435455,11.2500409 15.2949545,11.9101424 16.0977273,11.9101424 C16.9005,11.9101424 17.5519091,11.250179 17.5519091,10.4349626 C17.5517727,9.62430444 16.9003636,8.96434109 16.0977273,8.96434109 Z" id="Shape"></path>
                <path d="M39.3530455,14.8516617 L10.2833182,14.8516617 C9.48286364,14.8538717 8.83131818,15.511487 8.83131818,16.3244933 C8.83131818,17.1374996 9.48286364,17.795253 10.2833182,17.797463 L39.3530455,17.797463 C40.1556818,17.797463 40.8049091,17.1374996 40.8049091,16.3244933 C40.8049091,15.511487 40.1556818,14.8516617 39.3530455,14.8516617 Z" id="Shape"></path>
                <path d="M21.912,8.96434109 C21.1093636,8.96434109 20.4578182,9.62416631 20.4578182,10.4349626 C20.4578182,11.2500409 21.1092273,11.9101424 21.912,11.9101424 C22.7146364,11.9101424 23.364,11.250179 23.364,10.4349626 C23.364,9.62430444 22.7146364,8.96434109 21.912,8.96434109 Z" id="Shape"></path>
                <path d="M27.7243636,8.96434109 C26.9215909,8.96434109 26.2723636,9.62416631 26.2723636,10.4349626 C26.2723636,11.2500409 26.9217273,11.9101424 27.7243636,11.9101424 C28.527,11.9101424 29.1785455,11.250179 29.1785455,10.4349626 C29.1785455,9.62430444 28.5268636,8.96434109 27.7243636,8.96434109 Z" id="Shape"></path>
                <path d="M33.5386364,8.96434109 C32.7358636,8.96434109 32.0844545,9.62416631 32.0844545,10.4349626 C32.0844545,11.2500409 32.7358636,11.9101424 33.5386364,11.9101424 C34.3412727,11.9101424 34.9926818,11.250179 34.9926818,10.4349626 C34.9926818,9.62430444 34.3412727,8.96434109 33.5386364,8.96434109 Z" id="Shape"></path>
                <path d="M39.3530455,8.96434109 C38.5502727,8.96434109 37.8988636,9.62416631 37.8988636,10.4349626 C37.8988636,11.2500409 38.5502727,11.9101424 39.3530455,11.9101424 C40.1556818,11.9101424 40.8049091,11.250179 40.8049091,10.4349626 C40.8049091,9.62430444 40.1556818,8.96434109 39.3530455,8.96434109 Z" id="Shape"></path>
                <path d="M45.1652727,8.96434109 C44.3625,8.96434109 43.7132727,9.62416631 43.7132727,10.4349626 C43.7132727,11.2500409 44.3626364,11.9101424 45.1652727,11.9101424 C45.9679091,11.9101424 46.6193182,11.250179 46.6193182,10.4349626 C46.6193182,9.62430444 45.9679091,8.96434109 45.1652727,8.96434109 Z" id="Shape"></path>
                <path d="M1.56286364,4.54778013 C0.760227273,4.54778013 0.110863636,5.20760536 0.110863636,6.01853982 C0.110863636,6.83361804 0.760227273,7.4935814 1.56286364,7.4935814 C2.3655,7.4935814 3.01704545,6.83375617 3.01704545,6.01853982 C3.01704545,5.20760536 2.3655,4.54778013 1.56286364,4.54778013 Z" id="Shape"></path>
                <path d="M7.37727273,4.54778013 C6.57463636,4.54778013 5.92309091,5.20760536 5.92309091,6.01853982 C5.92309091,6.83361804 6.57463636,7.4935814 7.37727273,7.4935814 C8.17990909,7.4935814 8.83145455,6.83375617 8.83145455,6.01853982 C8.83131818,5.20760536 8.17990909,4.54778013 7.37727273,4.54778013 Z" id="Shape"></path>
                <path d="M13.1915455,7.4935814 C13.9941818,7.4935814 14.6435455,6.83375617 14.6435455,6.01853982 C14.6435455,5.20760536 13.9941818,4.54778013 13.1915455,4.54778013 C12.3889091,4.54778013 11.7373636,5.20760536 11.7373636,6.01853982 C11.7375,6.83375617 12.3890455,7.4935814 13.1915455,7.4935814 Z" id="Shape"></path>
                <path d="M19.0037727,7.4935814 C19.8064091,7.4935814 20.4579545,6.83375617 20.4579545,6.01853982 C20.4579545,5.20760536 19.8065455,4.54778013 19.0037727,4.54778013 C18.201,4.54778013 17.5517727,5.20760536 17.5517727,6.01853982 C17.5517727,6.83375617 18.2011364,7.4935814 19.0037727,7.4935814 Z" id="Shape"></path>
                <path d="M24.8181818,7.4935814 C25.6208182,7.4935814 26.2722273,6.83375617 26.2722273,6.01853982 C26.2722273,5.20760536 25.6208182,4.54778013 24.8181818,4.54778013 C24.0155455,4.54778013 23.364,5.20760536 23.364,6.01853982 C23.364,6.83375617 24.0155455,7.4935814 24.8181818,7.4935814 Z" id="Shape"></path>
                <path d="M30.6325909,7.4935814 C31.4352273,7.4935814 32.0844545,6.83375617 32.0844545,6.01853982 C32.0844545,5.20760536 31.4350909,4.54778013 30.6325909,4.54778013 C29.8300909,4.54778013 29.1785455,5.20760536 29.1785455,6.01853982 C29.1785455,6.83375617 29.8299545,7.4935814 30.6325909,7.4935814 Z" id="Shape"></path>
                <path d="M36.4446818,7.4935814 C37.2474545,7.4935814 37.8988636,6.83375617 37.8988636,6.01853982 C37.8988636,5.20760536 37.2474545,4.54778013 36.4446818,4.54778013 C35.6421818,4.54778013 34.9928182,5.20760536 34.9928182,6.01853982 C34.9926818,6.83375617 35.6421818,7.4935814 36.4446818,7.4935814 Z" id="Shape"></path>
                <path d="M42.2589545,4.54778013 C41.4564545,4.54778013 40.8049091,5.20760536 40.8049091,6.01853982 C40.8049091,6.83361804 41.4564545,7.4935814 42.2589545,7.4935814 C43.0617273,7.4935814 43.7131364,6.83375617 43.7131364,6.01853982 C43.7131364,5.20760536 43.0617273,4.54778013 42.2589545,4.54778013 Z" id="Shape"></path>
                <path d="M48.0733636,4.54778013 C47.2707273,4.54778013 46.6193182,5.20760536 46.6193182,6.01853982 C46.6193182,6.83361804 47.2707273,7.4935814 48.0733636,7.4935814 C48.8761364,7.4935814 49.5253636,6.83375617 49.5253636,6.01853982 C49.5255,5.20760536 48.8761364,4.54778013 48.0733636,4.54778013 Z" id="Shape"></path>
            </g>
            <polygon id="Shape" fill="#FF7B40" points="49.6363636 0 49.6363636 8.90909091 58.5454545 8.90909091"></polygon>
        </g>
    </g>
</svg>