<?xml version="1.0" encoding="UTF-8"?>
<svg width="70px" height="70px" viewBox="0 0 70 70" version="1.1" xmlns="http://www.w3.org/2000/svg" xmlns:xlink="http://www.w3.org/1999/xlink">
    <!-- Generator: Sketch 49 (51002) - http://www.bohemiancoding.com/sketch -->
    <title>why-now-2</title>
    <desc>Created with Sketch.</desc>
    <defs></defs>
    <g id="why-now-2" stroke="none" stroke-width="1" fill="none" fill-rule="evenodd">
        <g id="Group-6" transform="translate(8.000000, 0.000000)" fill-rule="nonzero">
            <polygon id="Shape" fill="#FF9E73" points="32.6666667 31.7367573 29.6928133 32.6666667 21 6.76536805 23.9760528 5.83333333"></polygon>
            <polygon id="Shape" fill="#FF9E73" points="33.8333333 35.8588219 35.8606105 33.8333333 46.6666667 44.6390287 44.6392552 46.6666667"></polygon>
            <polygon id="Shape" fill="#FF9E73" points="8.06863658 48.9756008 10.0942383 46.9521484 29.1666667 60.9723833 27.141065 63"></polygon>
            <polygon id="Shape" fill="#FF9E73" points="44.6409518 50.1666667 46.6666667 52.1919292 35.8587795 63 33.8333333 60.9727228"></polygon>
            <polygon id="Shape" fill="#FF9E73" points="27.1392552 33.8333333 29.1666667 35.8584827 6.97802734 48.4169922 4.95075018 46.3896938"></polygon>
            <rect id="Rectangle-path" fill="#FF9E73" transform="translate(14.000000, 13.416667) rotate(-41.000000) translate(-14.000000, -13.416667) " x="5.83333333" y="11.6666667" width="16.3333333" height="3.5"></rect>
            <path d="M43.7094227,51.9575493 C41.4301924,49.6787262 41.4301924,45.9879404 43.7094227,43.7091173 C45.9866024,41.4302942 49.6800984,41.4302942 51.9571414,43.7091173 C54.2365084,45.9879404 54.2365084,49.6787262 51.9571414,51.9575493 C49.6800984,54.2363724 45.9866024,54.2363724 43.7094227,51.9575493 Z" id="Shape" fill="#FF5C3C"></path>
            <path d="M2.56453192,51.9575493 C0.285291752,49.6787262 0.285291752,45.9879404 2.56453192,43.7091173 C4.84158485,41.4302942 8.5347386,41.4302942 10.8139788,43.7091173 C13.0910317,45.9879404 13.0910317,49.6787262 10.8139788,51.9575493 C8.5347386,54.2363724 4.84158485,54.2363724 2.56453192,51.9575493 Z" id="Shape" fill="#FF5C3C"></path>
            <path d="M27.3747165,68.2920577 C25.0973167,66.0146645 25.0973167,62.3208222 27.3747165,60.0413782 C29.654304,57.763985 33.3478836,57.763985 35.6252835,60.0413782 C37.9026833,62.3208222 37.9026833,66.0145278 35.6252835,68.2920577 C33.3480203,70.5693141 29.654304,70.5693141 27.3747165,68.2920577 Z" id="Shape" fill="#FF5C3C"></path>
            <path d="M26.2904897,9.95863681 C24.0133301,12.23601 20.32014,12.23601 18.0428436,9.95863681 C15.7634966,7.68126366 15.7634966,3.98540301 18.0428436,1.70802986 C20.3200032,-0.569343287 24.0131934,-0.569343287 26.2904897,1.70802986 C28.5698368,3.98540301 28.5698368,7.68140038 26.2904897,9.95863681 Z" id="Shape" fill="#FF5C3C"></path>
            <path d="M27.3747165,36.7920577 C25.0973167,34.5126137 25.0973167,30.8187714 27.3747165,28.5413782 C29.654304,26.263985 33.3458328,26.263985 35.6252835,28.5413782 C37.9026833,30.8187714 37.9026833,34.5126137 35.6252835,36.7920577 C33.3480203,39.0693141 29.654304,39.0693141 27.3747165,36.7920577 Z" id="Shape" fill="#FF5C3C"></path>
            <path d="M1.70802986,16.8746965 C3.98540301,14.5973234 7.67907611,14.5973234 9.95863681,16.8746965 C12.23601,19.1520697 12.23601,22.8479303 9.95863681,25.1253035 C7.67907611,27.4026766 3.98553973,27.4026766 1.70802986,25.1253035 C-0.569343287,22.8479303 -0.569343287,19.151933 1.70802986,16.8746965 Z" id="Shape" fill="#FF5C3C"></path>
        </g>
    </g>
</svg>