<?xml version="1.0" encoding="UTF-8"?>
<svg width="43px" height="43px" viewBox="0 0 43 43" version="1.1" xmlns="http://www.w3.org/2000/svg" xmlns:xlink="http://www.w3.org/1999/xlink">
    <!-- Generator: Sketch 49 (51002) - http://www.bohemiancoding.com/sketch -->
    <title>googleplus</title>
    <desc>Created with Sketch.</desc>
    <defs></defs>
    <g id="Symbols" stroke="none" stroke-width="1" fill="none" fill-rule="evenodd">
        <g id="底栏" transform="translate(-1107.000000, -263.000000)" fill="#FBFBFB">
            <path d="M1112,263 L1145,263 C1147.76142,263 1150,265.238576 1150,268 L1150,301 C1150,303.761424 1147.76142,306 1145,306 L1112,306 C1109.23858,306 1107,303.761424 1107,301 L1107,268 C1107,265.238576 1109.23858,263 1112,263 Z M1131.70485,286.762447 C1131.70485,288.567415 1131.32737,290.174965 1130.5724,291.585096 C1129.81744,292.995227 1128.7414,294.097299 1127.34429,294.891311 C1125.94717,295.685324 1124.34613,296.08233 1122.54116,296.08233 C1121.24818,296.08233 1120.01161,295.830676 1118.83144,295.327367 C1117.65126,294.824059 1116.63597,294.147196 1115.78555,293.296778 C1114.93513,292.446361 1114.25827,291.431066 1113.75496,290.250895 C1113.25165,289.070724 1113,287.834147 1113,286.541165 C1113,285.248183 1113.25165,284.011606 1113.75496,282.831435 C1114.25827,281.651264 1114.93513,280.635969 1115.78555,279.785552 C1116.63597,278.935134 1117.65126,278.258271 1118.83144,277.754963 C1120.01161,277.251654 1121.24818,277 1122.54116,277 C1125.023,277 1127.15338,277.833062 1128.93231,279.499186 L1126.34201,281.985356 C1125.32672,281.004773 1124.05977,280.514481 1122.54116,280.514481 C1121.4738,280.514481 1120.48671,280.783491 1119.57989,281.32151 C1118.67307,281.859529 1117.95498,282.590628 1117.42564,283.514806 C1116.8963,284.438985 1116.63163,285.447771 1116.63163,286.541165 C1116.63163,287.634559 1116.8963,288.643345 1117.42564,289.567524 C1117.95498,290.491702 1118.67307,291.222801 1119.57989,291.76082 C1120.48671,292.298839 1121.4738,292.567849 1122.54116,292.567849 C1123.26142,292.567849 1123.92309,292.468055 1124.5262,292.268467 C1125.1293,292.068879 1125.6261,291.819395 1126.0166,291.520013 C1126.40709,291.220631 1126.74769,290.88003 1127.0384,290.49821 C1127.3291,290.11639 1127.54171,289.756264 1127.67621,289.417833 C1127.81072,289.079401 1127.904,288.758325 1127.95607,288.454605 L1122.54116,288.454605 L1122.54116,285.174422 L1131.54865,285.174422 C1131.65278,285.721119 1131.70485,286.250461 1131.70485,286.762447 Z M1142.99024,285.174422 L1142.99024,287.907908 L1140.26977,287.907908 L1140.26977,290.628376 L1137.53628,290.628376 L1137.53628,287.907908 L1134.81582,287.907908 L1134.81582,285.174422 L1137.53628,285.174422 L1137.53628,282.453954 L1140.26977,282.453954 L1140.26977,285.174422 L1142.99024,285.174422 Z" id="googleplus"></path>
        </g>
    </g>
</svg>